mtllib materials.mtl
v 0.1276626 0.00999999 -0.009770975
v 0.1175664 0.00999999 -0.08477097
v 0.1175664 -0.00999999 -0.08477096
v 0.1276626 -0.00999999 -0.009770975
v 0.04900228 0.00999999 -0.09065552
v 0.04900227 -0.00999999 -0.09065552
v 0.02601194 0.00999999 -0.06593119
v 0.02601194 -0.00999999 -0.06593117
v 0.01991784 0.00999999 -0.007114574
v 0.01991784 -0.00999999 -0.007114574
v 0.04032161 0.00999999 0.02285686
v 0.0403216 -0.00999999 0.02285686
v 0.08756634 0.00999999 0.02522901
v 0.08756634 -0.00999999 0.02522901
v -0.08233742 0.00999999 0.01022896
v -0.007337429 0.00999999 0.0001327991
v -0.007337429 -0.00999999 0.0001327991
v -0.08233742 -0.00999999 0.01022896
v -0.001452871 0.00999999 -0.0684313
v -0.001452871 -0.00999999 -0.06843132
v -0.02617721 0.00999999 -0.09142164
v -0.02617721 -0.00999999 -0.09142165
v -0.0849938 0.00999999 -0.09751575
v -0.0849938 -0.00999999 -0.09751575
v -0.1149652 0.00999999 -0.077112
v -0.1149652 -0.00999999 -0.077112
v -0.1173374 0.00999999 -0.02986726
v -0.1173374 -0.00999999 -0.02986726
v -0.03733737 0.00999999 0.130229
v 0.03766262 0.00999999 0.1201328
v 0.03766262 -0.00999999 0.1201328
v -0.03733737 -0.00999999 0.130229
v 0.04354718 0.00999999 0.0515687
v 0.04354718 -0.00999999 0.0515687
v 0.01882284 0.00999999 0.02857837
v 0.01882284 -0.00999999 0.02857837
v -0.03999376 0.00999999 0.02248426
v -0.03999376 -0.00999999 0.02248427
v -0.06996519 0.00999999 0.04288802
v -0.06996519 -0.00999999 0.04288802
v -0.07233734 0.00999999 0.09013276
v -0.07233734 -0.00999999 0.09013276
vn 0.9910606 -1.927692E-07 -0.1334123
vn 0.08551116 -3.38764E-07 -0.9963372
vn -0.7323204 3.511576E-08 -0.6809602
vn -0.9946751 -2.163208E-07 -0.1030602
vn -0.8266292 -4.076998E-08 0.5627471
vn -0.05014644 2.273875E-07 0.9987419
vn 0.6576079 6.210197E-08 0.7533603
vn 7.921213E-08 1 -1.748456E-07
vn -2.028216E-07 -1 1.748456E-07
vn 0.1334122 -1.694427E-07 0.9910607
vn 0.9963372 -1.645588E-07 0.08551127
vn 0.6809604 1.541787E-07 -0.7323204
vn 0.1030603 -1.983012E-07 -0.9946751
vn -0.5627469 -1.391638E-07 -0.8266292
vn -0.9987419 5.276191E-08 -0.05014656
vn -0.7533605 -6.961977E-08 0.6576078
vn 0 1 7.921211E-08
vn 0 -1 -2.028216E-07
vn 0.1334122 3.8399E-09 0.9910607
vn 0.9963372 -1.496075E-07 0.08551127
vn 0.6809604 2.61357E-08 -0.7323204
vn 0.1030603 -3.722157E-07 -0.9946751
vn -0.5627469 -2.836963E-07 -0.8266292
vn -0.9987419 4.399401E-08 -0.05014656
vn -0.7533605 4.536004E-08 0.6576078
vn 0 1 -9.563344E-08
vn 0 -1 -2.7976E-08
vt 0.08882502 0.1466236
vt 0.08190099 0.1496776
vt 0.08109386 0.1478477
vt 0.0880179 0.1447937
vt -0.1397561 0.09981483
vt -0.1429199 0.09370362
vt -0.1411438 0.09278412
vt -0.13798 0.09889533
vt -0.1486126 0.08261605
vt -0.1501949 0.07963359
vt -0.1484281 0.07869631
vt -0.1468459 0.08167878
vt -0.1235936 0.117323
vt -0.1279526 0.1133275
vt -0.1266012 0.1118532
vt -0.1222422 0.1158487
vt 0.05934724 0.1610503
vt 0.05615033 0.1627608
vt 0.05520681 0.1609974
vt 0.05840371 0.1592869
vt 0.1437977 0.09223099
vt 0.1416493 0.09644541
vt 0.1398675 0.09553708
vt 0.1420159 0.09132266
vt 0.1514001 0.07732017
vt 0.1489973 0.08206923
vt 0.1472127 0.0811663
vt 0.1496156 0.07641725
vt -0.02808088 0.01172905
vt -0.02626847 0.007359602
vt -0.02275968 0.006446141
vt -0.01742564 0.008998265
vt -0.01587049 0.01199493
vt -0.01873073 0.01825398
vt -0.02613336 0.01668226
vt 0.02613335 0.01668224
vt 0.01873072 0.01825396
vt 0.01587049 0.01199491
vt 0.01742563 0.008998244
vt 0.02275967 0.006446122
vt 0.02626846 0.007359581
vt 0.02808087 0.01172903
vt 0.1528878 0.07433549
vt 0.1496055 0.08115426
vt 0.1478034 0.0802868
vt 0.1510857 0.07346803
vt 0.1267269 0.114893
vt 0.1215677 0.119447
vt 0.1202441 0.1179476
vt 0.1254034 0.1133936
vt -0.1064189 0.1337117
vt -0.1088324 0.1313508
vt -0.1074338 0.1299211
vt -0.1050204 0.132282
vt -0.1459911 0.08769442
vt -0.1487274 0.08245246
vt -0.1469544 0.08152697
vt -0.1442181 0.08676893
vt -0.1542131 0.07160871
vt -0.1557994 0.06834842
vt -0.154001 0.06747337
vt -0.1524147 0.07073367
vt -0.1167875 0.1241389
vt -0.1204567 0.1211533
vt -0.1191944 0.119602
vt -0.1155252 0.1225875
vt 0.09420636 0.142088
vt 0.0900038 0.1453538
vt 0.08877659 0.1437746
vt 0.09297915 0.1405088
vt -0.01600054 -0.005714477
vt -0.01163108 -0.00390207
vt -0.01071762 -0.0003932815
vt -0.01326975 0.004940757
vt -0.01626641 0.006495902
vt -0.02252547 0.003635668
vt -0.02095374 -0.003766966
vt 0.02095372 -0.00376696
vt 0.02252545 0.003635674
vt 0.01626639 0.006495909
vt 0.01326973 0.004940763
vt 0.01071761 -0.0003932754
vt 0.01163106 -0.003902063
vt 0.01600051 -0.005714471
vt 0.1516478 0.07691143
vt 0.1483655 0.0837302
vt 0.1465634 0.08286273
vt 0.1498457 0.07604396
vt 0.135402 0.1072356
vt 0.1302428 0.1117896
vt 0.1289192 0.1102902
vt 0.1340785 0.1057362
vt -0.09822185 0.1417304
vt -0.1006353 0.1393695
vt -0.0992367 0.1379398
vt -0.09682328 0.1403007
vt -0.1433475 0.09275876
vt -0.1460838 0.08751679
vt -0.1443108 0.08659131
vt -0.1415746 0.09183327
vt -0.1555402 0.0688813
vt -0.1571265 0.065621
vt -0.1553281 0.06474596
vt -0.1537417 0.06800625
vt -0.1259087 0.1167171
vt -0.129578 0.1137315
vt -0.1283157 0.1121802
vt -0.1246464 0.1151658
vt 0.08473136 0.149451
vt 0.0805288 0.1527168
vt 0.07930158 0.1511376
vt 0.08350415 0.1478718
vt -0.02881498 -0.00551268
vt -0.02444553 -0.003700273
vt -0.02353207 -0.0001914844
vt -0.0260842 0.005142554
vt -0.02908086 0.0066977
vt -0.03533991 0.003837466
vt -0.03376819 -0.003565168
vt 0.03376817 -0.003565162
vt 0.0353399 0.003837472
vt 0.02908084 0.006697706
vt 0.02608418 0.00514256
vt 0.02353206 -0.0001914786
vt 0.02444551 -0.003700266
vt 0.02881496 -0.005512674
o group187402642
g mesh187402642
usemtl mat21
f 4/4/1 3/3/1 2/2/1 1/1/1
f 3/8/2 6/7/2 5/6/2 2/5/2
f 6/12/3 8/11/3 7/10/3 5/9/3
f 8/16/4 10/15/4 9/14/4 7/13/4
f 10/20/5 12/19/5 11/18/5 9/17/5
f 12/24/6 14/23/6 13/22/6 11/21/6
f 14/28/7 4/27/7 1/26/7 13/25/7
f 1/35/8 2/34/8 5/33/8 7/32/8 9/31/8 11/30/8 13/29/8
f 14/42/9 12/41/9 10/40/9 8/39/9 6/38/9 3/37/9 4/36/9
o group728029235
g mesh728029235
usemtl mat21
f 18/46/10 17/45/10 16/44/10 15/43/10
f 17/50/11 20/49/11 19/48/11 16/47/11
f 20/54/12 22/53/12 21/52/12 19/51/12
f 22/58/13 24/57/13 23/56/13 21/55/13
f 24/62/14 26/61/14 25/60/14 23/59/14
f 26/66/15 28/65/15 27/64/15 25/63/15
f 28/70/16 18/69/16 15/68/16 27/67/16
f 15/77/17 16/76/17 19/75/17 21/74/17 23/73/17 25/72/17 27/71/17
f 28/84/18 26/83/18 24/82/18 22/81/18 20/80/18 17/79/18 18/78/18
o group1463012485
g mesh1463012485
usemtl mat21
f 32/88/19 31/87/19 30/86/19 29/85/19
f 31/92/20 34/91/20 33/90/20 30/89/20
f 34/96/21 36/95/21 35/94/21 33/93/21
f 36/100/22 38/99/22 37/98/22 35/97/22
f 38/104/23 40/103/23 39/102/23 37/101/23
f 40/108/24 42/107/24 41/106/24 39/105/24
f 42/112/25 32/111/25 29/110/25 41/109/25
f 29/119/26 30/118/26 33/117/26 35/116/26 37/115/26 39/114/26 41/113/26
f 42/126/27 40/125/27 38/124/27 36/123/27 34/122/27 31/121/27 32/120/27
