mtllib materials.mtl
v 0.002168328 -0.005844235 -0.0004960299
v -0.06291246 0.1252824 0.03784847
v -0.07063749 0.1229345 0.03136843
v -0.0584119 0.1243935 0.04712933
v -0.05834171 0.1205059 0.05672425
v -0.06272078 0.1146615 0.06406224
v -0.07037565 0.1084261 0.06717712
v -0.07925525 0.1034706 0.06523424
v -0.08698031 0.1011227 0.05875421
v -0.09148088 0.1020117 0.04947335
v -0.09155104 0.1058991 0.03987843
v -0.087172 0.1117436 0.03254044
v -0.07951713 0.1179789 0.02942556
v 0.0001716018 -0.00444591 0.003600717
v -0.04474622 0.0952189 -0.1010382
v -0.05035558 0.08764875 -0.1053286
v -0.04367921 0.1026485 -0.09390777
v -0.04744038 0.1079465 -0.0858478
v -0.055022 0.1096936 -0.07901794
v -0.06439251 0.1074215 -0.07524827
v -0.07304114 0.101739 -0.07554889
v -0.0786505 0.09416878 -0.07983923
v -0.07971752 0.0867393 -0.08696967
v -0.07595634 0.08144116 -0.09502965
v -0.06837472 0.07969415 -0.1018595
v -0.05900419 0.08196628 -0.1056292
v -0.001200885 0.0002712011 -0.000707984
v 0.08031541 0.09244263 0.08738005
v 0.08402586 0.09681654 0.0787614
v 0.07286942 0.0916177 0.09452546
v 0.06368309 0.09456253 0.09828293
v 0.05521786 0.1004882 0.09764576
v 0.04974204 0.1078069 0.09278458
v 0.0487228 0.1145577 0.08500201
v 0.05243331 0.1189315 0.07638335
v 0.0598793 0.1197566 0.06923795
v 0.06906557 0.1168118 0.06548047
v 0.0775308 0.110886 0.06611764
v 0.08300662 0.1035672 0.07097882
v -0.001364946 0.001976132 -0.005492687
v 0.1264521 0.07147515 -0.04711825
v 0.1245291 0.06842768 -0.05682367
v 0.1249352 0.07814729 -0.03934893
v 0.1203848 0.08665609 -0.03559744
v 0.1140203 0.09472179 -0.03686905
v 0.107547 0.1001832 -0.04282299
v 0.1026994 0.1015769 -0.05186391
v 0.1007765 0.09852946 -0.0615693
v 0.1022934 0.09185743 -0.06933865
v 0.1068437 0.08334851 -0.07309011
v 0.1132082 0.07528281 -0.07181853
v 0.1196815 0.06982136 -0.06586456
v 0.0001013875 0.002294779 0.0006207824
v 0.05950558 -0.1267248 -0.05158144
v 0.05016059 -0.1290826 -0.05536199
v 0.06855506 -0.1217779 -0.05248353
v 0.0748843 -0.1155671 -0.05782649
v 0.07679731 -0.1097567 -0.06617874
v 0.07378155 -0.1059037 -0.07530227
v 0.06664509 -0.1050403 -0.08275247
v 0.05730009 -0.107398 -0.08653301
v 0.04825062 -0.112345 -0.08563092
v 0.04192144 -0.1185558 -0.08028796
v 0.0400084 -0.124366 -0.07193571
v 0.04302412 -0.1282191 -0.06281218
v 0.006345779 0.005512834 0.002017379
v -0.07478845 -0.09032536 -0.08243549
v -0.07633838 -0.09597552 -0.07390007
v -0.07733494 -0.0823009 -0.08846074
v -0.08329552 -0.07405233 -0.09036136
v -0.09107304 -0.06778979 -0.08762807
v -0.09858349 -0.06519139 -0.08099324
v -0.1038145 -0.0669533 -0.07223472
v -0.1053644 -0.07260346 -0.06369931
v -0.1028179 -0.0806278 -0.05767408
v -0.09685737 -0.08887649 -0.05577347
v -0.08907986 -0.09513891 -0.05850676
v -0.08156937 -0.09773743 -0.06514156
v 0.003001571 0.001514554 -0.0009520054
v -0.09124735 -0.07614315 0.08841479
v -0.09628171 -0.07915807 0.07988578
v -0.08340913 -0.07729697 0.09507895
v -0.07486728 -0.08231044 0.0980925
v -0.06791061 -0.08984017 0.09664798
v -0.06440315 -0.09786868 0.09113252
v -0.0652847 -0.1042447 0.08302391
v -0.07031906 -0.1072598 0.0744949
v -0.07815731 -0.1061059 0.06783074
v -0.08669913 -0.1010925 0.06481719
v -0.09365579 -0.0935626 0.06626171
v -0.09716326 -0.0855341 0.07177716
v 0.001767457 0.001197457 -0.002400458
v 0.06165433 -0.1217921 0.06230754
v 0.07013398 -0.1161898 0.06427974
v 0.05204642 -0.1247065 0.06483209
v 0.04388458 -0.1241521 0.07117695
v 0.03935587 -0.1202774 0.079642
v 0.03967369 -0.1141207 0.08795905
v 0.0447529 -0.1073316 0.09389955
v 0.05323255 -0.1017293 0.09587175
v 0.06284046 -0.09881485 0.09334719
v 0.0710023 -0.09936929 0.08700234
v 0.07553101 -0.1032439 0.07853729
v 0.07521319 -0.1094007 0.07022023
vn 0.4851863 0.4585298 -0.7445433
vn 0.7990168 0.4959813 -0.339963
vn 0.916347 0.3733713 0.1445756
vn 0.8057387 0.123553 0.5792408
vn 0.4968291 -0.1865349 0.8475645
vn 0.07239013 -0.4738048 0.8776496
vn -0.3538499 -0.6612827 0.6614345
vn -0.6676801 -0.698734 0.2568544
vn -0.7850103 -0.576124 -0.2276841
vn -0.6744019 -0.3263057 -0.6623493
vn -0.3654923 -0.01621786 -0.9306731
vn 0.05894679 0.2710521 -0.9607581
vn -0.5140979 0.7936453 0.325316
vn 0.7790138 -0.2517936 -0.5742278
vn 0.9503955 0.1332478 -0.2810577
vn 0.8812369 0.4599642 0.1088792
vn 0.5900688 0.6408121 0.4910996
vn 0.1549095 0.6273335 0.7631879
vn -0.3076406 0.42314 0.8522382
vn -0.6736411 0.08294494 0.7343895
vn -0.8450227 -0.3020964 0.4412194
vn -0.775864 -0.6288126 0.05128263
vn -0.4846959 -0.8096606 -0.3309378
vn -0.04953663 -0.796182 -0.603026
vn 0.4130136 -0.5919883 -0.6920764
vn -0.4124662 0.6609321 -0.6269293
vn 0.753433 -0.6574591 -0.009286773
vn 0.4670479 -0.7909143 0.3953744
vn 0.0400986 -0.7364981 0.6752501
vn -0.4130141 -0.5087914 0.7553481
vn -0.7708791 -0.1688079 0.6142062
vn -0.937607 0.1923542 0.289643
vn -0.8685226 0.4779217 -0.1313749
vn -0.5821375 0.6113768 -0.5360359
vn -0.1551884 0.5569605 -0.8159115
vn 0.2979244 0.3292538 -0.8960095
vn 0.6557894 -0.01072965 -0.7548677
vn 0.8225172 -0.3718919 -0.4303043
vn 0.4505016 0.702773 0.5505984
vn 0.511815 -0.8434094 0.1634203
vn 0.522238 -0.5939108 0.6119948
vn 0.3664922 -0.2042188 0.9077325
vn 0.08630957 0.2212487 0.9713906
vn -0.2432353 0.5684882 0.785912
vn -0.5338411 0.7444571 0.4009956
vn -0.7076401 0.7020045 -0.08022056
vn -0.7180631 0.4525058 -0.5287948
vn -0.5623174 0.062814 -0.8245324
vn -0.2821347 -0.3626536 -0.8881906
vn 0.04741015 -0.709893 -0.7027121
vn 0.3380161 -0.8858619 -0.3177955
vn 0.7665281 0.5535081 -0.325674
vn -0.2329181 -0.454998 0.8594917
vn 0.2392657 -0.2674881 0.9333821
vn 0.6340354 0.01892938 0.7730723
vn 0.8456127 0.327509 0.4215175
vn 0.8173059 0.5755673 -0.02708377
vn 0.5566993 0.6966371 -0.4525292
vn 0.1336226 0.6582778 -0.7408208
vn -0.3385611 0.4707678 -0.814711
vn -0.7333307 0.1843504 -0.6544014
vn -0.944908 -0.1242293 -0.3028464
vn -0.9166011 -0.3722875 0.1457548
vn -0.6559945 -0.4933573 0.5712004
vn 0.3886766 -0.7957084 -0.4645199
vn 0.8272057 -0.525891 -0.1979128
vn 0.8016235 -0.1748659 -0.5716832
vn 0.5832483 0.2428604 -0.7751389
vn 0.2305935 0.6153587 -0.7537642
vn -0.1618473 0.8428183 -0.5132864
vn -0.4889201 0.8642915 -0.1181411
vn -0.6629857 0.6740246 0.3257926
vn -0.6374034 0.3229997 0.6995628
vn -0.4190283 -0.09472656 0.9030184
vn -0.06637345 -0.4672248 0.8816437
vn 0.3260673 -0.6946844 0.6411659
vn 0.6531402 -0.7161577 0.2460205
vn -0.6428148 -0.5798477 -0.5005655
vn -0.5951099 0.8007446 0.0682079
vn -0.2646717 0.8485212 0.4582147
vn 0.1558028 0.6902069 0.7066399
vn 0.5536477 0.3682221 0.7469181
vn 0.822261 -0.03115785 0.568257
vn 0.8896679 -0.4009195 0.2185284
vn 0.7378066 -0.6419852 -0.2085581
vn 0.4073685 -0.6897618 -0.5985648
vn -0.01310595 -0.5314475 -0.8469898
vn -0.410951 -0.2094626 -0.8872681
vn -0.6795643 0.1899173 -0.708607
vn -0.7469711 0.559679 -0.3588782
vn -0.5585651 -0.62144 0.5493791
vn 0.3864459 -0.2750081 -0.880358
vn -0.07786024 -0.4936313 -0.866179
vn -0.5340077 -0.5542119 -0.6385021
vn -0.8597722 -0.4405175 -0.2583334
vn -0.9678655 -0.1830123 0.1724614
vn -0.8293239 0.1493054 0.5384513
vn -0.4812694 0.4673913 0.7415693
vn -0.01696344 0.6860143 0.7273903
vn 0.4391839 0.7465948 0.4997136
vn 0.7649484 0.6329004 0.1195448
vn 0.8730417 0.3753953 -0.31125
vn 0.7345 0.04307749 -0.6772401
vn 0.3711733 -0.7530546 0.5432673
vt -0.1579513 0.08113708
vt -0.1729449 0.07908975
vt -0.1727698 0.07806937
vt -0.1342761 -0.0795237
vt -0.1444236 -0.09074996
vt -0.1436323 -0.09141751
vt 0.1491598 -0.01106923
vt 0.1639041 -0.01447592
vt 0.1641026 -0.01345983
vt 0.1560624 0.05858467
vt 0.1709234 0.05573005
vt 0.1710838 0.05675282
vt 0.1591752 0.09587926
vt 0.1739246 0.09249465
vt 0.1741215 0.09351103
vt 0.1611113 0.09240152
vt 0.1754999 0.08771467
vt 0.1757867 0.08870944
vt 0.1576 0.03437809
vt 0.1705635 0.02657119
vt 0.171067 0.02747582
vt 0.07196928 -0.1040081
vt 0.07427498 -0.1189642
vt 0.07529218 -0.1187715
vt -0.1035931 -0.051744
vt -0.1162286 -0.06007116
vt -0.1156297 -0.06091561
vt -0.1374913 0.04144331
vt -0.1520295 0.03724299
vt -0.1517083 0.0362588
vt -0.1477837 0.09612258
vt -0.162692 0.09352572
vt -0.1624795 0.09251248
vt -0.1532779 0.1104145
vt -0.1682913 0.1085171
vt -0.1681264 0.107495
vt -0.04201229 0.1286827
vt -0.04287489 0.1292552
vt -0.04390816 0.1293197
vt -0.04483523 0.1288589
vt -0.04540769 0.1279963
vt -0.04547216 0.126963
vt -0.04501136 0.1260359
vt -0.04414875 0.1254635
vt -0.04311549 0.125399
vt -0.04218841 0.1258598
vt -0.04161595 0.1267224
vt -0.04155148 0.1277557
vt -0.001607333 0.1851503
vt -0.01578855 0.1904317
vt -0.01611647 0.1894497
vt 0.09012769 0.1577474
vt 0.08144908 0.1701442
vt 0.08062179 0.1695218
vt 0.1329523 -0.04399804
vt 0.1454759 -0.03550345
vt 0.1448658 -0.03466705
vt 0.09135827 -0.006918185
vt 0.1060972 -0.003488326
vt 0.1058282 -0.002488607
vt 0.07555776 0.07297683
vt 0.09059611 0.07466451
vt 0.09044553 0.07568877
vt 0.06701736 0.1424878
vt 0.08213209 0.1432263
vt 0.08204622 0.144258
vt 0.06147126 0.1774825
vt 0.07660396 0.1775201
vt 0.07656599 0.1785546
vt 0.06047035 0.16537
vt 0.07557614 0.1644671
vt 0.07560252 0.1655021
vt -0.04671604 -0.1138609
vt -0.06183953 -0.1133315
vt -0.06184034 -0.1143668
vt -0.04314078 -0.02832049
vt -0.05822058 -0.02705579
vt -0.05827177 -0.0280898
vt -0.03651384 0.06511795
vt -0.05151348 0.06712067
vt -0.05161532 0.06609042
vt -0.02555251 0.1428758
vt -0.04036742 0.145961
vt -0.04054369 0.1449408
vt -0.1509724 0.09219879
vt -0.1517575 0.09287361
vt -0.1527748 0.09306546
vt -0.1537518 0.09272293
vt -0.1544266 0.09193781
vt -0.1546185 0.09092046
vt -0.1542759 0.0899435
vt -0.1534908 0.08926867
vt -0.1524735 0.08907683
vt -0.1514965 0.08941935
vt -0.1508217 0.09020448
vt -0.1506298 0.09122182
vt 0.1008955 0.1377774
vt 0.1132085 0.1465747
vt 0.1125782 0.147396
vt 0.1331433 0.09280016
vt 0.1463893 0.1001175
vt 0.145858 0.101006
vt 0.1532595 0.06090636
vt 0.1664197 0.06837694
vt 0.1658781 0.06925926
vt 0.1611092 0.07120566
vt 0.1723735 0.08131085
vt 0.1716563 0.08205739
vt 0.07892533 0.1689024
vt 0.07969161 0.1840157
vt 0.07865648 0.1840327
vt -0.07461215 0.1739709
vt -0.08502437 0.184952
vt -0.08575082 0.1842144
vt -0.1274428 0.1349317
vt -0.14004 0.1433167
vt -0.1405839 0.1424358
vt -0.1499865 0.1025644
vt -0.1627131 0.1107518
vt -0.1632431 0.1098625
vt -0.1610965 0.08674188
vt -0.1728323 0.09629551
vt -0.173458 0.09547074
vt -0.1525235 0.109365
vt -0.1609119 0.12196
vt -0.1617535 0.121357
vt -0.07797572 0.1722483
vt -0.07761916 0.1873769
vt -0.07865437 0.1873658
vt 0.03729863 0.1787819
vt 0.04636881 0.1908952
vt 0.04551936 0.191487
vt 0.0748189 0.01215541
vt 0.07429435 0.01126286
vt 0.07428637 0.01022761
vt 0.07479708 0.009327066
vt 0.07568963 0.008802521
vt 0.07672487 0.008794535
vt 0.07762542 0.009305239
vt 0.07814996 0.01019779
vt 0.07815795 0.01123304
vt 0.07764725 0.01213358
vt 0.07675469 0.01265812
vt 0.07571945 0.01266611
vt 0.1086605 0.1018341
vt 0.1092024 0.1169571
vt 0.1081671 0.1169588
vt 0.1537462 0.09891593
vt 0.1554517 0.1139523
vt 0.1544197 0.1140337
vt 0.1584451 0.1001496
vt 0.1609966 0.1150657
vt 0.1599708 0.1152053
vt 0.1219024 0.1114004
vt 0.1247699 0.126259
vt 0.1237473 0.1264203
vt 0.0528525 0.1277606
vt 0.05542028 0.1426739
vt 0.0543946 0.1428146
vt -0.03181222 0.1364236
vt -0.03010803 0.1514601
vt -0.0311401 0.1515414
vt -0.1087113 0.1281553
vt -0.108219 0.14328
vt -0.1092543 0.1432783
vt -0.1547472 0.1074028
vt -0.1554625 0.1225187
vt -0.1564943 0.1224344
vt -0.1572219 0.08898956
vt -0.1587877 0.1040411
vt -0.1598132 0.1038988
vt -0.1175788 0.08402877
vt -0.1194227 0.09904877
vt -0.1204454 0.09888755
vt -0.0475536 0.09106717
vt -0.04905453 0.1061253
vt -0.05008059 0.1059874
vt 0.03496203 0.09978292
vt 0.03433076 0.1149025
vt 0.03329847 0.114824
vt -0.1069215 -0.1022443
vt -0.1079568 -0.102255
vt -0.1088479 -0.102782
vt -0.1093562 -0.1036839
vt -0.1093454 -0.1047191
vt -0.1088185 -0.1056103
vt -0.1079166 -0.1061185
vt -0.1068814 -0.1061078
vt -0.1059902 -0.1055808
vt -0.1054819 -0.1046789
vt -0.1054927 -0.1036437
vt -0.1060196 -0.1027526
vt 0.1602535 0.09013821
vt 0.1451977 0.09166263
vt 0.1451288 0.09062965
vt 0.1588339 0.1029024
vt 0.1438626 0.105107
vt 0.1437469 0.1040782
vt 0.1559444 0.07988458
vt 0.1411746 0.08317927
vt 0.1409839 0.0821617
vt 0.147014 0.01738599
vt 0.1329421 0.02295201
vt 0.1325944 0.02197685
vt 0.07970741 -0.1031166
vt 0.07150339 -0.09040073
vt 0.07065317 -0.09099142
vt -0.1378526 -0.03620874
vt -0.1254773 -0.02749948
vt -0.1261017 -0.02667372
vt -0.1593702 0.05933022
vt -0.1446804 0.06296463
vt -0.1449633 0.06396052
vt -0.1617193 0.09576771
vt -0.1467022 0.09763496
vt -0.146865 0.09865735
vt -0.162005 0.09213381
vt -0.1469011 0.09306873
vt -0.1470004 0.09409924
vt -0.161777 0.05677431
vt -0.1466478 0.05710418
vt -0.1467058 0.05813783
vt -0.1609573 -0.0005045299
vt -0.1458254 -0.0003517524
vt -0.1458712 0.0006825078
vt 0.1612161 0.04791703
vt 0.1461246 0.04903345
vt 0.1460836 0.04799899
vt 0.01623674 0.1175933
vt 0.01690741 0.118382
vt 0.0170939 0.1194004
vt 0.01674623 0.1203755
vt 0.01595756 0.1210462
vt 0.01493922 0.1212327
vt 0.01396407 0.120885
vt 0.0132934 0.1200963
vt 0.01310691 0.119078
vt 0.01345458 0.1181028
vt 0.01424324 0.1174322
vt 0.01526158 0.1172457
vt 0.08048248 0.1596215
vt 0.06914074 0.1496033
vt 0.06985226 0.1488513
vt -0.005914653 0.1886079
vt -0.01360018 0.1755721
vt -0.01269089 0.1750771
vt -0.1300592 0.1354488
vt -0.1279415 0.120465
vt -0.126922 0.1206448
vt -0.1613352 0.06049851
vt -0.1520912 0.04851732
vt -0.1512937 0.0491774
vt -0.139007 0.06033813
vt -0.127809 0.05015947
vt -0.1271393 0.05094893
vt -0.1031379 0.1007576
vt -0.09197243 0.09054329
vt -0.09130017 0.0913306
vt -0.05089546 0.1499354
vt -0.04130945 0.1382261
vt -0.04053128 0.1389089
vt 0.03082928 0.1764365
vt 0.03607954 0.1622438
vt 0.03703765 0.162636
vt 0.1240672 0.1436821
vt 0.1216081 0.1287505
vt 0.1226348 0.1286173
vt 0.1615776 0.09193772
vt 0.1529274 0.07952104
vt 0.1537966 0.07895865
vt 0.1527906 0.08532067
vt 0.1415012 0.07524349
vt 0.1422166 0.07449519
vt 0.1256492 0.1157592
vt 0.1136363 0.1065565
vt 0.1142936 0.1057567
vt -0.1030871 -0.00266287
vt -0.1037122 -0.001837587
vt -0.1046661 -0.001435404
vt -0.1056934 -0.001564087
vt -0.1065187 -0.002189153
vt -0.1069209 -0.003143118
vt -0.1067922 -0.004170365
vt -0.1061671 -0.004995646
vt -0.1052131 -0.005397826
vt -0.1041859 -0.005269146
vt -0.1033606 -0.004644079
vt -0.1029584 -0.003690115
vt -0.08415982 0.122903
vt -0.08908372 0.1085937
vt -0.08809383 0.1082905
vt -0.009485638 0.09940313
vt -0.01603527 0.0857612
vt -0.0150872 0.08534531
vt 0.06549101 0.06527486
vt 0.05870537 0.05174877
vt 0.05964606 0.05131647
vt 0.1289397 0.05131555
vt 0.1234134 0.03722799
vt 0.1243895 0.0368831
vt 0.1612808 0.078134
vt 0.1586449 0.0632326
vt 0.1596699 0.06308725
vt 0.139633 0.1269469
vt 0.1408298 0.1118615
vt 0.1418584 0.1119787
vt 0.0725884 0.1502963
vt 0.07688846 0.1357874
vt 0.07787042 0.1361154
vt -0.00748219 0.1341102
vt -0.001702347 0.1201247
vt -0.0007596413 0.1205527
vt -0.08077981 0.1016518
vt -0.07507901 0.0876339
vt -0.07413392 0.08805649
vt -0.1368366 0.08279367
vt -0.1326464 0.06825262
vt -0.131662 0.06857315
vt -0.161648 0.09287027
vt -0.1602632 0.077801
vt -0.1592361 0.07793095
vt -0.1420176 0.1170198
vt -0.1440584 0.1020253
vt -0.1430284 0.1019208
vt 0.1573594 0.002115383
vt 0.1581126 0.002825597
vt 0.1584099 0.003817288
vt 0.1581714 0.004824733
vt 0.1574612 0.005577984
vt 0.1564695 0.005875217
vt 0.1554621 0.005636783
vt 0.1547088 0.004926573
vt 0.1544116 0.003934879
vt 0.15465 0.002927437
vt 0.1553602 0.002174182
vt 0.1563519 0.00187695
vt -0.0796412 0.1542098
vt -0.06470008 0.1518092
vt -0.06457091 0.1528364
vt -0.09047452 0.09701168
vt -0.07566813 0.09388583
vt -0.07548906 0.0949055
vt -0.1056725 0.02489998
vt -0.09125517 0.02030203
vt -0.09097452 0.02129855
vt -0.1356456 -0.02076616
vt -0.122975 -0.02903996
vt -0.1224389 -0.02815427
vt -0.1352121 0.1140132
vt -0.1375144 0.09905666
vt -0.1364864 0.09893425
vt -0.001736384 0.188829
vt -0.01536043 0.1822422
vt -0.01487819 0.1813262
vt 0.03713646 0.1575805
vt 0.02237322 0.1542568
vt 0.02263502 0.1532552
vt 0.05409599 0.09000866
vt 0.03909252 0.08803491
vt 0.03926257 0.08701371
vt 0.0656566 0.003281649
vt 0.05058102 0.001967695
vt 0.05070614 0.0009400049
vt 0.07905084 -0.07887278
vt 0.06397821 -0.08022022
vt 0.06410561 -0.08124762
vt 0.06544565 0.15312
vt 0.07464263 0.1411027
vt 0.07544276 0.1417596
vt -0.06730773 0.1770227
vt -0.05234908 0.1747339
vt -0.05222759 0.175762
vt 0.1433469 0.08646624
vt 0.1428615 0.08555183
vt 0.1428983 0.08451721
vt 0.1434475 0.08363961
vt 0.1443619 0.08315418
vt 0.1453965 0.08319099
vt 0.1462741 0.08374019
vt 0.1467595 0.08465461
vt 0.1467227 0.08568922
vt 0.1461735 0.08656682
vt 0.1452591 0.08705225
vt 0.1442245 0.08701544
o group1442607068
g mesh1442607068
usemtl mat2
f 3/3/1 2/2/1 1/1/1
f 2/6/2 4/5/2 1/4/2
f 4/9/3 5/8/3 1/7/3
f 5/12/4 6/11/4 1/10/4
f 6/15/5 7/14/5 1/13/5
f 7/18/6 8/17/6 1/16/6
f 8/21/7 9/20/7 1/19/7
f 9/24/8 10/23/8 1/22/8
f 10/27/9 11/26/9 1/25/9
f 11/30/10 12/29/10 1/28/10
f 12/33/11 13/32/11 1/31/11
f 13/36/12 3/35/12 1/34/12
f 13/48/13 12/47/13 11/46/13 10/45/13 9/44/13 8/43/13 7/42/13 6/41/13 5/40/13 4/39/13 2/38/13 3/37/13
o group1008342314
g mesh1008342314
usemtl mat2
f 16/51/14 15/50/14 14/49/14
f 15/54/15 17/53/15 14/52/15
f 17/57/16 18/56/16 14/55/16
f 18/60/17 19/59/17 14/58/17
f 19/63/18 20/62/18 14/61/18
f 20/66/19 21/65/19 14/64/19
f 21/69/20 22/68/20 14/67/20
f 22/72/21 23/71/21 14/70/21
f 23/75/22 24/74/22 14/73/22
f 24/78/23 25/77/23 14/76/23
f 25/81/24 26/80/24 14/79/24
f 26/84/25 16/83/25 14/82/25
f 26/96/26 25/95/26 24/94/26 23/93/26 22/92/26 21/91/26 20/90/26 19/89/26 18/88/26 17/87/26 15/86/26 16/85/26
o group2040924977
g mesh2040924977
usemtl mat2
f 29/99/27 28/98/27 27/97/27
f 28/102/28 30/101/28 27/100/28
f 30/105/29 31/104/29 27/103/29
f 31/108/30 32/107/30 27/106/30
f 32/111/31 33/110/31 27/109/31
f 33/114/32 34/113/32 27/112/32
f 34/117/33 35/116/33 27/115/33
f 35/120/34 36/119/34 27/118/34
f 36/123/35 37/122/35 27/121/35
f 37/126/36 38/125/36 27/124/36
f 38/129/37 39/128/37 27/127/37
f 39/132/38 29/131/38 27/130/38
f 39/144/39 38/143/39 37/142/39 36/141/39 35/140/39 34/139/39 33/138/39 32/137/39 31/136/39 30/135/39 28/134/39 29/133/39
o group1676567559
g mesh1676567559
usemtl mat2
f 42/147/40 41/146/40 40/145/40
f 41/150/41 43/149/41 40/148/41
f 43/153/42 44/152/42 40/151/42
f 44/156/43 45/155/43 40/154/43
f 45/159/44 46/158/44 40/157/44
f 46/162/45 47/161/45 40/160/45
f 47/165/46 48/164/46 40/163/46
f 48/168/47 49/167/47 40/166/47
f 49/171/48 50/170/48 40/169/48
f 50/174/49 51/173/49 40/172/49
f 51/177/50 52/176/50 40/175/50
f 52/180/51 42/179/51 40/178/51
f 52/192/52 51/191/52 50/190/52 49/189/52 48/188/52 47/187/52 46/186/52 45/185/52 44/184/52 43/183/52 41/182/52 42/181/52
o group1111673580
g mesh1111673580
usemtl mat2
f 55/195/53 54/194/53 53/193/53
f 54/198/54 56/197/54 53/196/54
f 56/201/55 57/200/55 53/199/55
f 57/204/56 58/203/56 53/202/56
f 58/207/57 59/206/57 53/205/57
f 59/210/58 60/209/58 53/208/58
f 60/213/59 61/212/59 53/211/59
f 61/216/60 62/215/60 53/214/60
f 62/219/61 63/218/61 53/217/61
f 63/222/62 64/221/62 53/220/62
f 64/225/63 65/224/63 53/223/63
f 65/228/64 55/227/64 53/226/64
f 65/240/65 64/239/65 63/238/65 62/237/65 61/236/65 60/235/65 59/234/65 58/233/65 57/232/65 56/231/65 54/230/65 55/229/65
o group624856587
g mesh624856587
usemtl mat2
f 68/243/66 67/242/66 66/241/66
f 67/246/67 69/245/67 66/244/67
f 69/249/68 70/248/68 66/247/68
f 70/252/69 71/251/69 66/250/69
f 71/255/70 72/254/70 66/253/70
f 72/258/71 73/257/71 66/256/71
f 73/261/72 74/260/72 66/259/72
f 74/264/73 75/263/73 66/262/73
f 75/267/74 76/266/74 66/265/74
f 76/270/75 77/269/75 66/268/75
f 77/273/76 78/272/76 66/271/76
f 78/276/77 68/275/77 66/274/77
f 78/288/78 77/287/78 76/286/78 75/285/78 74/284/78 73/283/78 72/282/78 71/281/78 70/280/78 69/279/78 67/278/78 68/277/78
o group671534886
g mesh671534886
usemtl mat2
f 81/291/79 80/290/79 79/289/79
f 80/294/80 82/293/80 79/292/80
f 82/297/81 83/296/81 79/295/81
f 83/300/82 84/299/82 79/298/82
f 84/303/83 85/302/83 79/301/83
f 85/306/84 86/305/84 79/304/84
f 86/309/85 87/308/85 79/307/85
f 87/312/86 88/311/86 79/310/86
f 88/315/87 89/314/87 79/313/87
f 89/318/88 90/317/88 79/316/88
f 90/321/89 91/320/89 79/319/89
f 91/324/90 81/323/90 79/322/90
f 91/336/91 90/335/91 89/334/91 88/333/91 87/332/91 86/331/91 85/330/91 84/329/91 83/328/91 82/327/91 80/326/91 81/325/91
o group313673697
g mesh313673697
usemtl mat2
f 94/339/92 93/338/92 92/337/92
f 93/342/93 95/341/93 92/340/93
f 95/345/94 96/344/94 92/343/94
f 96/348/95 97/347/95 92/346/95
f 97/351/96 98/350/96 92/349/96
f 98/354/97 99/353/97 92/352/97
f 99/357/98 100/356/98 92/355/98
f 100/360/99 101/359/99 92/358/99
f 101/363/100 102/362/100 92/361/100
f 102/366/101 103/365/101 92/364/101
f 103/369/102 104/368/102 92/367/102
f 104/372/103 94/371/103 92/370/103
f 104/384/104 103/383/104 102/382/104 101/381/104 100/380/104 99/379/104 98/378/104 97/377/104 96/376/104 95/375/104 93/374/104 94/373/104
