mtllib materials.mtl
v -0.04500002 0 0
v -0.04228616 0.003420234 0.005923957
v -0.04228616 0 0.006840378
v -0.04228616 0.005923986 0.003420204
v -0.04228616 0.006840348 0
v -0.04228616 0.005923986 -0.003420204
v -0.04228616 0.003420234 -0.005923986
v -0.04228616 0 -0.006840408
v -0.04228616 -0.003420234 -0.005923986
v -0.04228616 -0.005923986 -0.003420204
v -0.04228616 -0.006840348 0
v -0.04228616 -0.005923986 0.003420204
v -0.04228616 -0.003420234 0.005923957
v -0.03447199 0.006427884 0.0111334
v -0.03447199 0 0.01285574
v -0.03447199 0.01113343 0.006427854
v -0.03447199 0.01285577 0
v -0.03447199 0.01113343 -0.006427884
v -0.03447199 0.006427884 -0.0111334
v -0.03447199 0 -0.01285577
v -0.03447199 -0.006427884 -0.0111334
v -0.03447199 -0.01113343 -0.006427884
v -0.03447199 -0.01285577 0
v -0.03447199 -0.01113343 0.006427854
v -0.03447199 -0.006427884 0.0111334
v -0.02249998 0.008660197 0.01499999
v -0.02249998 0 0.01732051
v -0.02249998 0.01499999 0.008660257
v -0.02249998 0.01732051 0
v -0.02249998 0.01499999 -0.008660257
v -0.02249998 0.008660197 -0.01500002
v -0.02249998 0 -0.01732051
v -0.02249998 -0.008660316 -0.01500002
v -0.02249998 -0.01499999 -0.008660257
v -0.02249998 -0.01732051 0
v -0.02249998 -0.01499999 0.008660257
v -0.02249998 -0.008660197 0.01499999
v -0.007814169 0.009848118 0.01705736
v -0.007814169 0 0.01969615
v -0.007814169 0.01705742 0.009848088
v -0.007814169 0.01969612 0
v -0.007814169 0.01705742 -0.009848088
v -0.007814169 0.009848118 -0.01705736
v -0.007814169 0 -0.01969615
v -0.007814169 -0.009848118 -0.01705736
v -0.007814169 -0.01705742 -0.009848088
v -0.007814169 -0.01969612 0
v -0.007814169 -0.01705742 0.009848088
v -0.007814169 -0.009848118 0.01705736
v 0.007814169 0.009848118 0.01705736
v 0.007814169 0 0.01969615
v 0.007814169 0.01705742 0.009848088
v 0.007814169 0.01969612 0
v 0.007814169 0.01705742 -0.009848088
v 0.007814169 0.009848118 -0.01705736
v 0.007814169 0 -0.01969615
v 0.007814169 -0.009848118 -0.01705736
v 0.007814169 -0.01705742 -0.009848088
v 0.007814169 -0.01969612 0
v 0.007814169 -0.01705742 0.009848088
v 0.007814169 -0.009848118 0.01705739
v 0.02249998 0.008660197 0.01500002
v 0.02249998 0 0.01732051
v 0.02249998 0.01499999 0.008660257
v 0.02249998 0.01732051 0
v 0.02249998 0.01499999 -0.008660257
v 0.02249998 0.008660197 -0.01499999
v 0.02249998 0 -0.01732051
v 0.02249998 -0.008660316 -0.01499999
v 0.02249998 -0.01499999 -0.008660257
v 0.02249998 -0.01732051 0
v 0.02249998 -0.01499999 0.008660257
v 0.02249998 -0.008660197 0.01500002
v 0.03447199 0.006427884 0.0111334
v 0.03447199 0 0.01285577
v 0.03447199 0.01113343 0.006427884
v 0.03447199 0.01285577 0
v 0.03447199 0.01113343 -0.006427854
v 0.03447199 0.006427884 -0.0111334
v 0.03447199 0 -0.01285574
v 0.03447199 -0.006427884 -0.0111334
v 0.03447199 -0.01113343 -0.006427854
v 0.03447199 -0.01285577 0
v 0.03447199 -0.01113343 0.006427884
v 0.03447199 -0.006427884 0.01113343
v 0.04228616 0.003420234 0.005923957
v 0.04228616 0 0.006840408
v 0.04228616 0.005923986 0.003420204
v 0.04228616 0.006840348 0
v 0.04228616 0.005923986 -0.003420204
v 0.04228616 0.003420234 -0.005923957
v 0.04228616 0 -0.006840378
v 0.04228616 -0.003420234 -0.005923957
v 0.04228616 -0.005923986 -0.003420204
v 0.04228616 -0.006840348 0
v 0.04228616 -0.005923986 0.003420204
v 0.04228616 -0.003420234 0.005923957
v 0.04500002 0 0
vn -0.9250144 0.09833396 0.3669861
vn -0.9250146 0.268652 0.2686525
vn -0.9250144 0.3669861 0.09833343
vn -0.9250143 0.3669864 -0.09833392
vn -0.9250143 0.2686525 -0.2686529
vn -0.9250142 0.09833421 -0.3669865
vn -0.9250143 -0.09833395 -0.3669865
vn -0.9250141 -0.2686534 -0.2686528
vn -0.9250143 -0.3669865 -0.09833387
vn -0.9250144 -0.3669862 0.09833343
vn -0.9250143 -0.2686531 0.2686524
vn -0.9250143 -0.09833567 0.3669861
vn -0.5966929 0.2076946 0.7751262
vn -0.5966929 0.567432 0.5674317
vn -0.5966927 0.7751264 0.2076943
vn -0.5966929 0.7751262 -0.2076947
vn -0.5966926 0.5674319 -0.567432
vn -0.5966926 0.2076946 -0.7751264
vn -0.5966926 -0.2076946 -0.7751264
vn -0.5966926 -0.567432 -0.5674319
vn -0.5966927 -0.7751263 -0.2076947
vn -0.5966929 -0.7751263 0.2076944
vn -0.5966929 -0.5674318 0.5674317
vn -0.596693 -0.207694 0.7751263
vn -0.3389076 0.2435021 0.908762
vn -0.3389076 0.66526 0.66526
vn -0.3389075 0.9087621 0.2435019
vn -0.3389074 0.9087621 -0.2435021
vn -0.3389073 0.66526 -0.6652601
vn -0.3389072 0.243502 -0.9087622
vn -0.3389073 -0.2435022 -0.9087621
vn -0.3389073 -0.6652601 -0.66526
vn -0.3389074 -0.9087621 -0.2435022
vn -0.3389075 -0.908762 0.2435021
vn -0.3389076 -0.6652601 0.6652599
vn -0.3389076 -0.2435018 0.9087621
vn -0.1543796 0.2557163 0.9543459
vn -0.1543795 0.6986298 0.6986297
vn -0.1543794 0.954346 0.2557162
vn -0.1543793 0.954346 -0.2557163
vn -0.1543791 0.6986297 -0.6986298
vn -0.1543792 0.2557162 -0.9543461
vn -0.1543791 -0.2557164 -0.954346
vn -0.1543792 -0.6986299 -0.6986297
vn -0.1543793 -0.954346 -0.2557163
vn -0.1543795 -0.9543459 0.2557162
vn -0.1543795 -0.6986297 0.6986297
vn -0.1543795 -0.2557161 0.954346
vn -1.267156E-07 0.258819 0.9659259
vn -1.392028E-07 0.7071068 0.7071068
vn 5.607532E-08 0.9659259 0.2588189
vn 1.203047E-07 0.9659259 -0.2588189
vn 1.67732E-07 0.7071068 -0.7071068
vn 2.857715E-07 0.258819 -0.9659259
vn 4.005956E-07 -0.2588193 -0.9659258
vn 2.735983E-07 -0.7071069 -0.7071067
vn 1.840212E-07 -0.9659259 -0.258819
vn 6.146114E-08 -0.9659259 0.258819
vn -6.222294E-08 -0.7071068 0.7071069
vn -1.122296E-07 -0.2588189 0.9659259
vn 0.1543791 0.2557162 0.9543461
vn 0.1543792 0.6986298 0.6986298
vn 0.1543792 0.954346 0.2557163
vn 0.1543794 0.954346 -0.2557162
vn 0.1543795 0.6986297 -0.6986297
vn 0.1543795 0.2557162 -0.954346
vn 0.1543795 -0.2557165 -0.9543459
vn 0.1543795 -0.6986299 -0.6986296
vn 0.1543794 -0.9543459 -0.2557163
vn 0.1543793 -0.954346 0.2557163
vn 0.1543791 -0.6986297 0.6986298
vn 0.1543791 -0.2557161 0.9543461
vn 0.3389073 0.2435022 0.9087621
vn 0.3389073 0.66526 0.6652601
vn 0.3389075 0.908762 0.2435021
vn 0.3389076 0.908762 -0.2435019
vn 0.3389077 0.66526 -0.66526
vn 0.3389077 0.243502 -0.908762
vn 0.3389077 -0.2435023 -0.9087619
vn 0.3389076 -0.66526 -0.6652599
vn 0.3389076 -0.908762 -0.243502
vn 0.3389075 -0.908762 0.2435021
vn 0.3389073 -0.6652601 0.6652601
vn 0.3389072 -0.2435019 0.9087622
vn 0.5966926 0.2076943 0.7751265
vn 0.5966926 0.5674318 0.5674321
vn 0.5966927 0.7751264 0.2076945
vn 0.5966928 0.7751263 -0.2076943
vn 0.5966929 0.5674319 -0.5674316
vn 0.5966929 0.2076946 -0.7751262
vn 0.5966929 -0.2076946 -0.7751262
vn 0.5966928 -0.567432 -0.5674317
vn 0.5966929 -0.7751263 -0.2076943
vn 0.5966927 -0.7751263 0.2076946
vn 0.5966926 -0.567432 0.5674319
vn 0.5966927 -0.2076942 0.7751265
vn 0.9250143 0.09833464 0.3669862
vn 0.9250144 0.2686526 0.2686526
vn 0.9250143 0.3669866 0.09833376
vn 0.9250144 0.3669861 -0.09833342
vn 0.9250146 0.2686522 -0.2686523
vn 0.9250146 0.09833389 -0.3669858
vn 0.9250144 -0.09833462 -0.3669858
vn 0.9250143 -0.2686533 -0.2686521
vn 0.9250144 -0.3669863 -0.09833335
vn 0.9250145 -0.3669861 0.09833382
vn 0.9250143 -0.2686527 0.2686526
vn 0.9250144 -0.09833371 0.3669862
vt 0.08917125 0.1617066
vt 0.08854271 0.1620894
vt 0.08843671 0.1617515
vt 0.0596677 0.1530563
vt 0.05921373 0.1536355
vt 0.05899578 0.1533565
vt 0.01841969 0.1410622
vt 0.01818375 0.1417592
vt 0.01788551 0.1415683
vt -0.02913286 0.1286265
vt -0.02912484 0.1293624
vt -0.02946943 0.129281
vt -0.07716815 0.1189386
vt -0.07691585 0.1196299
vt -0.07726791 0.1196677
vt -0.1197508 0.1115818
vt -0.1192834 0.1121503
vt -0.119603 0.1123027
vt -0.1526509 0.1031337
vt -0.1520219 0.1035157
vt -0.1522732 0.1037652
vt -0.1741593 0.09172317
vt -0.1734379 0.09186836
vt -0.1735892 0.09218848
vt -0.1834158 0.08440288
vt -0.1826951 0.08425409
vt -0.1827091 0.08460791
vt -0.1650364 0.1181222
vt -0.1645552 0.1175654
vt -0.1643509 0.1178546
vt 0.01029856 0.2017036
vt 0.009795503 0.2011665
vt 0.01010458 0.2009937
vt 0.09560861 0.1723021
vt 0.09487591 0.1723706
vt 0.0949287 0.1720205
vt 0.1863174 0.06024138
vt 0.1865867 0.06047132
vt 0.1860727 0.06131294
vt 0.1855667 0.06088081
vt 0.1407303 0.07310028
vt 0.14102 0.07330383
vt 0.1405877 0.07419012
vt 0.1400431 0.07380758
vt 0.07528321 0.05507336
vt 0.07560512 0.05522083
vt 0.0753411 0.05617096
vt 0.0747361 0.0558938
vt -0.00516829 0.03316555
vt -0.004820312 0.03323102
vt -0.004847346 0.03421678
vt -0.005501336 0.03409375
vt -0.08758786 0.02712136
vt -0.0872351 0.02709075
vt -0.08699581 0.0280474
vt -0.08765878 0.02810493
vt -0.1537785 0.03426839
vt -0.1534453 0.03414853
vt -0.1529692 0.0350121
vt -0.1535954 0.03523737
vt -0.1928585 0.03253411
vt -0.1925572 0.03234797
vt -0.1919129 0.03309447
vt -0.192479 0.03344431
vt -0.2028523 0.0006490828
vt -0.2025781 0.0004251176
vt -0.2018416 0.001080872
vt -0.202357 0.001501785
vt -0.1777567 -0.07005562
vt -0.1774847 -0.07028227
vt -0.1767418 -0.06963374
vt -0.1772531 -0.0692078
vt -0.07880726 -0.1645425
vt -0.07848674 -0.164693
vt -0.07793197 -0.1638777
vt -0.07853435 -0.1635949
vt 0.1245954 -0.1441462
vt 0.1249406 -0.1440672
vt 0.1248748 -0.1430832
vt 0.1242262 -0.1432319
vt 0.2022132 -0.009450739
vt 0.2024962 -0.00923795
vt 0.2020355 -0.008366074
vt 0.2015036 -0.008765988
vt 0.1986398 0.02732534
vt 0.1991944 0.02769309
vt 0.1985875 0.02881749
vt 0.1978403 0.02832202
vt 0.1630655 0.03509883
vt 0.1636307 0.03545014
vt 0.1630571 0.03659188
vt 0.1622956 0.03611856
vt 0.09705062 0.006084313
vt 0.09765927 0.006353359
vt 0.09725048 0.007563948
vt 0.09643045 0.007201462
vt 0.005588835 -0.02463663
vt 0.006242628 -0.02451255
vt 0.006118889 -0.02324081
vt 0.005238037 -0.02340798
vt -0.09233317 -0.02524761
vt -0.09167027 -0.02530603
vt -0.09144345 -0.02404858
vt -0.09233657 -0.02396987
vt -0.166026 -8.381253E-05
vt -0.1653988 -0.0003061677
vt -0.1648647 0.0008545911
vt -0.1657097 0.001154168
vt -0.2002227 0.01455455
vt -0.1996439 0.0142261
vt -0.1989154 0.01527576
vt -0.1996951 0.01571829
vt -0.1960545 -0.00953696
vt -0.1955013 -0.009906811
vt -0.194698 -0.00891316
vt -0.1954434 -0.008414863
vt -0.14985 -0.07380871
vt -0.149276 -0.07414548
vt -0.1485323 -0.07310645
vt -0.1493056 -0.07265271
vt -0.04257395 -0.1416706
vt -0.04193465 -0.1418554
vt -0.0414703 -0.140665
vt -0.04233162 -0.1404161
vt 0.1073053 -0.1264863
vt 0.1079646 -0.1263958
vt 0.1079059 -0.1251194
vt 0.1070177 -0.1252414
vt 0.1919596 -0.03542605
vt 0.1925547 -0.03512814
vt 0.1920883 -0.03393853
vt 0.1912866 -0.0343399
vt 0.2011432 0.01600615
vt 0.2019111 0.01646894
vt 0.2011965 0.01777376
vt 0.2003233 0.01724748
vt 0.1736638 0.01595152
vt 0.1744313 0.01641501
vt 0.1737155 0.01771918
vt 0.1728428 0.01719212
vt 0.1101444 -0.02240866
vt 0.1109612 -0.02203902
vt 0.1104044 -0.02065948
vt 0.1094756 -0.02107981
vt 0.01293372 -0.06062813
vt 0.01381285 -0.06045215
vt 0.01358138 -0.0589826
vt 0.01258167 -0.05918272
vt -0.09558992 -0.05699374
vt -0.09469723 -0.05707712
vt -0.09449779 -0.05560287
vt -0.09551293 -0.05550806
vt -0.1731131 -0.01705833
vt -0.1722717 -0.01736796
vt -0.1717007 -0.01599424
vt -0.1726575 -0.01564214
vt -0.2021206 0.01087508
vt -0.2013395 0.01043498
vt -0.2005563 0.01169981
vt -0.2014446 0.01220027
vt -0.1887882 -0.004564722
vt -0.1880273 -0.005038965
vt -0.1871889 -0.003810052
vt -0.1880541 -0.003270762
vt -0.1338325 -0.05963881
vt -0.1330343 -0.06004699
vt -0.1323028 -0.05875156
vt -0.1332106 -0.05828739
vt -0.02911027 -0.1142292
vt -0.0282384 -0.1144383
vt -0.02783209 -0.1130072
vt -0.02882354 -0.1127695
vt 0.1012352 -0.1035128
vt 0.1021262 -0.1034122
vt 0.1020204 -0.1019283
vt 0.1010073 -0.1020427
vt 0.1840313 -0.03458367
vt 0.1848559 -0.03423166
vt 0.1843289 -0.03284047
vt 0.1833912 -0.03324078
vt 0.2012203 0.0121636
vt 0.202104 0.01267209
vt 0.2013245 0.01402668
vt 0.2004408 0.0135182
vt 0.1806813 0.00448922
vt 0.1815532 0.005017673
vt 0.1807431 0.006354186
vt 0.1798712 0.005825733
vt 0.1207547 -0.04212107
vt 0.1216759 -0.04168409
vt 0.121006 -0.04027208
vt 0.1200849 -0.04070906
vt 0.01962943 -0.08764341
vt 0.02062608 -0.08742856
vt 0.02029676 -0.08590083
vt 0.01930011 -0.08611567
vt -0.09850834 -0.08031805
vt -0.09749395 -0.08042052
vt -0.09733688 -0.0788656
vt -0.09835126 -0.07876313
vt -0.1785725 -0.02668009
vt -0.1776228 -0.02705098
vt -0.1770543 -0.02559522
vt -0.1780039 -0.02522433
vt -0.202104 0.01267209
vt -0.2012202 0.01216361
vt -0.2004408 0.01351821
vt -0.2013245 0.01402669
vt -0.1815532 0.005017673
vt -0.1806812 0.00448922
vt -0.1798712 0.005825733
vt -0.1807431 0.006354186
vt -0.1216758 -0.04168405
vt -0.1207547 -0.04212103
vt -0.1200849 -0.04070902
vt -0.121006 -0.04027204
vt -0.02062605 -0.08742855
vt -0.0196294 -0.08764338
vt -0.01930007 -0.08611564
vt -0.02029673 -0.0859008
vt 0.09749396 -0.08042049
vt 0.09850834 -0.08031802
vt 0.09835127 -0.0787631
vt 0.09733688 -0.07886557
vt 0.1776228 -0.02705096
vt 0.1785724 -0.02668008
vt 0.1780039 -0.02522432
vt 0.1770542 -0.0255952
vt 0.2000867 0.01253331
vt 0.200975 0.01303376
vt 0.2001918 0.01429859
vt 0.1994107 0.0138585
vt 0.1866829 -0.002998144
vt 0.1875481 -0.002458854
vt 0.1867097 -0.001229941
vt 0.1859488 -0.001704188
vt 0.1318672 -0.05789977
vt 0.132775 -0.05743559
vt 0.1320435 -0.05614017
vt 0.1312453 -0.05654836
vt 0.02760907 -0.1120768
vt 0.02860053 -0.1118391
vt 0.02819422 -0.110408
vt 0.02732234 -0.110617
vt -0.1019131 -0.1009776
vt -0.1009 -0.1010921
vt -0.1007943 -0.09960815
vt -0.1016852 -0.09950753
vt -0.1839532 -0.03196063
vt -0.1830156 -0.03236093
vt -0.1824885 -0.03096976
vt -0.1833131 -0.03061773
vt -0.2007027 0.01859314
vt -0.1998294 0.01806686
vt -0.1991148 0.01937167
vt -0.1998828 0.01983447
vt -0.1732209 0.01853811
vt -0.1723482 0.01801104
vt -0.1716324 0.01931521
vt -0.1723999 0.01977869
vt -0.1100101 -0.01978788
vt -0.1090812 -0.02020822
vt -0.1085244 -0.01882867
vt -0.1093412 -0.01845903
vt -0.0133936 -0.05804453
vt -0.01239388 -0.05824465
vt -0.01216241 -0.0567751
vt -0.01304155 -0.05659911
vt 0.09440883 -0.05465034
vt 0.09542397 -0.05455554
vt 0.09522453 -0.05308129
vt 0.09433184 -0.05316467
vt 0.1713703 -0.01509642
vt 0.1723271 -0.01474432
vt 0.1717561 -0.01337061
vt 0.1709147 -0.01368023
vt 0.1973854 0.01797156
vt 0.1981652 0.01841409
vt 0.1974366 0.01946376
vt 0.1968579 0.0191353
vt 0.1929753 -0.00633629
vt 0.1937206 -0.00583799
vt 0.1929173 -0.00484434
vt 0.1923641 -0.005214191
vt 0.1469637 -0.07043301
vt 0.1477369 -0.06997927
vt 0.1469933 -0.06894024
vt 0.1464193 -0.06927701
vt 0.04060967 -0.1376872
vt 0.04147098 -0.1374383
vt 0.04100663 -0.1362479
vt 0.04036734 -0.1364327
vt -0.1074842 -0.1220485
vt -0.1065959 -0.1221705
vt -0.1065372 -0.1208941
vt -0.1071965 -0.1208036
vt -0.1907007 -0.03116685
vt -0.189899 -0.03156822
vt -0.1894326 -0.03037861
vt -0.1900277 -0.0300807
vt -0.1968745 0.03140088
vt -0.1961273 0.0309054
vt -0.1955204 0.0320298
vt -0.196075 0.03239756
vt -0.1614207 0.03922442
vt -0.1606592 0.0387511
vt -0.1600856 0.03989284
vt -0.1606507 0.04024415
vt -0.0959973 0.01039902
vt -0.09517727 0.01003653
vt -0.09476848 0.01124712
vt -0.09537713 0.01151616
vt -0.005540923 -0.02019548
vt -0.00466007 -0.02036265
vt -0.004536332 -0.01909091
vt -0.005190125 -0.01896683
vt 0.09117134 -0.02096089
vt 0.09206446 -0.02088218
vt 0.09183763 -0.01962473
vt 0.09117474 -0.01968315
vt 0.163829 0.003776119
vt 0.164674 0.004075696
vt 0.1641399 0.005236454
vt 0.1635127 0.005014098
vt 0.1897835 0.03654025
vt 0.1903495 0.03689009
vt 0.1897052 0.0376366
vt 0.189404 0.03745045
vt 0.1992795 0.004218326
vt 0.1997949 0.004639239
vt 0.1990584 0.005294993
vt 0.1987842 0.00507103
vt 0.1741491 -0.06652159
vt 0.1746604 -0.06609565
vt 0.1739175 -0.06544714
vt 0.1736455 -0.06567378
vt 0.07621051 -0.1602111
vt 0.07681288 -0.1599282
vt 0.07625811 -0.159113
vt 0.07593759 -0.1592634
vt -0.12397 -0.139135
vt -0.1233213 -0.1392836
vt -0.1232556 -0.1382997
vt -0.1236007 -0.1382206
vt -0.1996012 -0.005128636
vt -0.1990693 -0.00552855
vt -0.1986085 -0.004656674
vt -0.1988915 -0.004443884
vt -0.1834424 0.06439333
vt -0.1829363 0.0639612
vt -0.1824224 0.06480282
vt -0.1826916 0.06503276
vt -0.1382592 0.07750459
vt -0.1377147 0.07712205
vt -0.1372823 0.07800835
vt -0.137572 0.07821189
vt -0.07365402 0.05985359
vt -0.07304902 0.05957643
vt -0.072785 0.06052657
vt -0.07310691 0.06067403
vt 0.005596231 0.03819754
vt 0.00625022 0.0380745
vt 0.006277255 0.03906027
vt 0.005929277 0.03912574
vt 0.08664562 0.03208287
vt 0.08730859 0.0321404
vt 0.0870693 0.03309706
vt 0.08671654 0.03306645
vt 0.151598 0.03882362
vt 0.1522242 0.03904889
vt 0.1517481 0.03991246
vt 0.1514149 0.03979259
vt 0.1506191 0.1049282
vt 0.1508703 0.1051777
vt 0.1502414 0.1055597
vt 0.1716379 0.09271933
vt 0.1717892 0.09303945
vt 0.1710677 0.09318464
vt 0.1807059 0.08433241
vt 0.1807198 0.08468622
vt 0.1799991 0.08453743
vt 0.1629293 0.1164166
vt 0.162725 0.1167058
vt 0.1622438 0.116149
vt -0.00882426 0.1994288
vt -0.009133333 0.199256
vt -0.008630272 0.1987189
vt -0.09290706 0.1720739
vt -0.09295984 0.1717238
vt -0.09222715 0.1717924
vt -0.08664306 0.1626853
vt -0.08653707 0.1623475
vt -0.08590853 0.1627303
vt -0.0576447 0.1548608
vt -0.05742675 0.1545817
vt -0.05697278 0.1551609
vt -0.01711055 0.143436
vt -0.01681231 0.1432451
vt -0.01657637 0.1439421
vt 0.0295827 0.1312999
vt 0.02992729 0.1312184
vt 0.02991927 0.1319543
vt 0.07670318 0.1216094
vt 0.07705524 0.1216472
vt 0.07680293 0.1223385
vt 0.1184264 0.1139472
vt 0.118746 0.1140996
vt 0.1182787 0.1146681
o group77402737
g mesh77402737
usemtl mat10
f 3/3/1 2/2/1 1/1/1
f 2/6/2 4/5/2 1/4/2
f 4/9/3 5/8/3 1/7/3
f 5/12/4 6/11/4 1/10/4
f 6/15/5 7/14/5 1/13/5
f 7/18/6 8/17/6 1/16/6
f 8/21/7 9/20/7 1/19/7
f 9/24/8 10/23/8 1/22/8
f 10/27/9 11/26/9 1/25/9
f 11/30/10 12/29/10 1/28/10
f 12/33/11 13/32/11 1/31/11
f 13/36/12 3/35/12 1/34/12
f 15/40/13 14/39/13 2/38/13 3/37/13
f 14/44/14 16/43/14 4/42/14 2/41/14
f 16/48/15 17/47/15 5/46/15 4/45/15
f 17/52/16 18/51/16 6/50/16 5/49/16
f 18/56/17 19/55/17 7/54/17 6/53/17
f 19/60/18 20/59/18 8/58/18 7/57/18
f 20/64/19 21/63/19 9/62/19 8/61/19
f 21/68/20 22/67/20 10/66/20 9/65/20
f 22/72/21 23/71/21 11/70/21 10/69/21
f 23/76/22 24/75/22 12/74/22 11/73/22
f 24/80/23 25/79/23 13/78/23 12/77/23
f 25/84/24 15/83/24 3/82/24 13/81/24
f 27/88/25 26/87/25 14/86/25 15/85/25
f 26/92/26 28/91/26 16/90/26 14/89/26
f 28/96/27 29/95/27 17/94/27 16/93/27
f 29/100/28 30/99/28 18/98/28 17/97/28
f 30/104/29 31/103/29 19/102/29 18/101/29
f 31/108/30 32/107/30 20/106/30 19/105/30
f 32/112/31 33/111/31 21/110/31 20/109/31
f 33/116/32 34/115/32 22/114/32 21/113/32
f 34/120/33 35/119/33 23/118/33 22/117/33
f 35/124/34 36/123/34 24/122/34 23/121/34
f 36/128/35 37/127/35 25/126/35 24/125/35
f 37/132/36 27/131/36 15/130/36 25/129/36
f 39/136/37 38/135/37 26/134/37 27/133/37
f 38/140/38 40/139/38 28/138/38 26/137/38
f 40/144/39 41/143/39 29/142/39 28/141/39
f 41/148/40 42/147/40 30/146/40 29/145/40
f 42/152/41 43/151/41 31/150/41 30/149/41
f 43/156/42 44/155/42 32/154/42 31/153/42
f 44/160/43 45/159/43 33/158/43 32/157/43
f 45/164/44 46/163/44 34/162/44 33/161/44
f 46/168/45 47/167/45 35/166/45 34/165/45
f 47/172/46 48/171/46 36/170/46 35/169/46
f 48/176/47 49/175/47 37/174/47 36/173/47
f 49/180/48 39/179/48 27/178/48 37/177/48
f 51/184/49 50/183/49 38/182/49 39/181/49
f 50/188/50 52/187/50 40/186/50 38/185/50
f 52/192/51 53/191/51 41/190/51 40/189/51
f 53/196/52 54/195/52 42/194/52 41/193/52
f 54/200/53 55/199/53 43/198/53 42/197/53
f 55/204/54 56/203/54 44/202/54 43/201/54
f 56/208/55 57/207/55 45/206/55 44/205/55
f 57/212/56 58/211/56 46/210/56 45/209/56
f 58/216/57 59/215/57 47/214/57 46/213/57
f 59/220/58 60/219/58 48/218/58 47/217/58
f 60/224/59 61/223/59 49/222/59 48/221/59
f 61/228/60 51/227/60 39/226/60 49/225/60
f 63/232/61 62/231/61 50/230/61 51/229/61
f 62/236/62 64/235/62 52/234/62 50/233/62
f 64/240/63 65/239/63 53/238/63 52/237/63
f 65/244/64 66/243/64 54/242/64 53/241/64
f 66/248/65 67/247/65 55/246/65 54/245/65
f 67/252/66 68/251/66 56/250/66 55/249/66
f 68/256/67 69/255/67 57/254/67 56/253/67
f 69/260/68 70/259/68 58/258/68 57/257/68
f 70/264/69 71/263/69 59/262/69 58/261/69
f 71/268/70 72/267/70 60/266/70 59/265/70
f 72/272/71 73/271/71 61/270/71 60/269/71
f 73/276/72 63/275/72 51/274/72 61/273/72
f 75/280/73 74/279/73 62/278/73 63/277/73
f 74/284/74 76/283/74 64/282/74 62/281/74
f 76/288/75 77/287/75 65/286/75 64/285/75
f 77/292/76 78/291/76 66/290/76 65/289/76
f 78/296/77 79/295/77 67/294/77 66/293/77
f 79/300/78 80/299/78 68/298/78 67/297/78
f 80/304/79 81/303/79 69/302/79 68/301/79
f 81/308/80 82/307/80 70/306/80 69/305/80
f 82/312/81 83/311/81 71/310/81 70/309/81
f 83/316/82 84/315/82 72/314/82 71/313/82
f 84/320/83 85/319/83 73/318/83 72/317/83
f 85/324/84 75/323/84 63/322/84 73/321/84
f 87/328/85 86/327/85 74/326/85 75/325/85
f 86/332/86 88/331/86 76/330/86 74/329/86
f 88/336/87 89/335/87 77/334/87 76/333/87
f 89/340/88 90/339/88 78/338/88 77/337/88
f 90/344/89 91/343/89 79/342/89 78/341/89
f 91/348/90 92/347/90 80/346/90 79/345/90
f 92/352/91 93/351/91 81/350/91 80/349/91
f 93/356/92 94/355/92 82/354/92 81/353/92
f 94/360/93 95/359/93 83/358/93 82/357/93
f 95/364/94 96/363/94 84/362/94 83/361/94
f 96/368/95 97/367/95 85/366/95 84/365/95
f 97/372/96 87/371/96 75/370/96 85/369/96
f 98/375/97 86/374/97 87/373/97
f 98/378/98 88/377/98 86/376/98
f 98/381/99 89/380/99 88/379/99
f 98/384/100 90/383/100 89/382/100
f 98/387/101 91/386/101 90/385/101
f 98/390/102 92/389/102 91/388/102
f 98/393/103 93/392/103 92/391/103
f 98/396/104 94/395/104 93/394/104
f 98/399/105 95/398/105 94/397/105
f 98/402/106 96/401/106 95/400/106
f 98/405/107 97/404/107 96/403/107
f 98/408/108 87/407/108 97/406/108
