mtllib materials.mtl
v -0.1155711 -0.08356738 0.01425856
v 0.05954246 -0.1871809 -0.05518705
v 0.05893643 -0.1885809 -0.05608088
v -0.08775023 0.2301264 0.09991658
v -0.1182727 0.1719828 0.08258331
v -0.1206821 0.167724 0.04630154
v -0.06008002 0.1097978 0.02486318
v -0.07304156 -0.08689094 -0.02130413
v -0.1044511 -0.08012533 -0.04252052
v 0.04789375 -0.1969872 -0.08355719
v -0.1201843 -0.09012103 -0.02225912
v -0.1263341 -0.0892154 -0.0003393292
v 0.05445202 -0.2249824 -0.07228571
v 0.01660626 -0.1570194 -0.05427665
v -0.1350324 0.03203619 0.02716982
v -0.09084541 0.1784935 0.03779793
v -0.1010158 0.0778898 -0.001567543
v -0.04569286 0.2088373 0.09614211
v 0.1350324 -0.2301265 -0.07798779
v 0.1285883 -0.2000833 -0.06796551
v 0.1272613 -0.2094777 -0.09982991
v 0.09567854 -0.1842077 -0.09161091
v 0.0898239 -0.2232394 -0.09991664
v 0.1135277 -0.2238703 -0.05762625
vn 0.01259294 -0.5419349 0.8403262
vn -0.8859463 0.4637669 0.004396863
vn 0.6159147 -0.2182667 0.7569734
vn 0.4659499 0.7640951 -0.4461496
vn -0.5643266 -0.8160934 -0.1246075
vn -0.5886505 -0.4167812 -0.6926645
vn 0.5039408 0.7312579 -0.4596798
vn -0.7463753 0.1696735 -0.6435331
vn 0.5754396 0.1507563 -0.8038295
vn -0.7823744 -0.09853627 0.6149641
vn 0.3291851 0.3150349 -0.8901631
vn -0.8164718 0.1614248 -0.5543607
vn 0.4011148 0.2216342 -0.8888111
vn -0.345356 0.240536 -0.9071228
vn 0.2169675 -0.3817338 0.8984456
vn -0.9937482 0.09740583 0.05455927
vn -0.4178254 0.7088094 -0.5683408
vn 0.6109979 0.402039 -0.6819431
vn 0.3107767 0.7232795 -0.6166723
vn 0.9387999 -0.2803865 0.2000957
vn -0.04475758 -0.2594585 0.9647166
vn -0.9628786 -0.007859193 -0.2698203
vn -0.4009621 -0.2299504 0.8867651
vn -0.3497268 -0.7576842 0.5510044
vn -0.5558719 -0.4884589 -0.6726176
vn -0.991722 0.1190662 -0.04806974
vn 0.9632797 0.2440001 -0.1120548
vn 0.5945835 0.4453227 0.6694462
vn 0.32867 0.7119331 -0.6205863
vn 0.5621665 0.7932031 0.2340892
vn -0.2851181 0.9359921 -0.2064617
vn -0.0528076 -0.3835862 -0.9219941
vn -0.07813872 0.2186972 -0.9726592
vn -0.07396771 -0.9848543 -0.1568148
vn -0.6034728 0.2515344 -0.7566711
vn 0.2288981 0.9252191 0.3026141
vn 0.2441888 -0.6598158 -0.7106441
vn 0.05060984 -0.5528927 0.8317141
vn 0.5626908 0.7862741 -0.2552492
vn -0.2166536 -0.374632 0.9015055
vn -0.04399806 -0.9670728 0.2506678
vn 0.2059425 0.2774921 0.9383953
vn 0.1135685 -0.4157032 0.9023819
vn 0.6680166 -0.1025863 0.7370414
vt 0.1205385 0.002428174
vt 0.1045265 0.01677567
vt 0.1043778 0.01668007
vt -0.02119078 0.1758757
vt -0.01718656 0.17039
vt -0.01362915 0.1712548
vt 0.1309314 0.08883161
vt 0.1463981 0.1017389
vt 0.1279093 0.09349126
vt -0.02974139 -0.105475
vt -0.02792507 -0.1088699
vt -0.02013939 -0.09084552
vt -0.1333252 -0.04276266
vt -0.1320407 -0.04464445
vt -0.1247568 -0.02376628
vt -0.1704752 0.06609879
vt -0.1508715 0.07946371
vt -0.1537552 0.08056927
vt -0.0279217 -0.09641214
vt -0.03092722 -0.09525714
vt -0.03228157 -0.1003273
vt -0.1362575 0.1100582
vt -0.1232573 0.1074399
vt -0.1481803 0.1169632
vt -0.1841575 0.05635326
vt -0.1715501 0.04001761
vt -0.1690152 0.04291571
vt 0.1688031 0.1241229
vt 0.1548895 0.09460064
vt 0.1559064 0.09299622
vt -0.1815967 0.01674591
vt -0.1722032 0.01131418
vt -0.1739603 0.01686728
vt -0.1151581 0.1213747
vt -0.1301354 0.1278752
vt -0.115785 0.1186939
vt -0.1814654 0.03396515
vt -0.1803342 0.02825158
vt -0.1661958 0.02008566
vt -0.1414981 0.0602529
vt -0.1663653 0.07241151
vt -0.1666549 0.06914021
vt 0.1453024 0.04151779
vt 0.1592539 0.04741023
vt 0.164156 0.05211098
vt -0.04347838 0.1978608
vt -0.04691615 0.1966019
vt -0.03555107 0.1865918
vt -0.09280095 0.06027971
vt -0.08482407 0.05641956
vt -0.0847381 0.05970252
vt -0.1807905 -0.0219361
vt -0.1731558 -0.021734
vt -0.1828934 -0.0142411
vt -0.0973551 -0.07315597
vt -0.1034202 -0.06797425
vt -0.1053902 -0.0722733
vt 0.05870908 0.1528166
vt 0.08236555 0.173096
vt 0.07080927 0.1689226
vt 0.1840475 0.04401765
vt 0.180487 0.04712975
vt 0.1548769 0.02938131
vt -0.119047 0.1490822
vt -0.1077888 0.1437347
vt -0.1062922 0.1454526
vt 0.1660159 0.01834362
vt 0.177393 0.0234334
vt 0.1933934 0.037982
vt 0.0453647 -0.06579699
vt 0.05930792 -0.08499367
vt 0.06081235 -0.08383389
vt -0.1715758 0.0630964
vt -0.1710972 0.0603852
vt -0.1550011 0.07362138
vt -0.05851834 0.1841292
vt -0.06734279 0.1904435
vt -0.04754461 0.1710981
vt 0.06725825 0.1507312
vt 0.07012186 0.1522297
vt 0.06721065 0.1538354
vt 0.1588195 0.07465032
vt 0.1705571 0.06290892
vt 0.1687296 0.06815349
vt -0.06507094 -0.05776079
vt -0.0701526 -0.06067858
vt -0.07797879 -0.06957634
vt 0.1444112 -0.02246527
vt 0.1380488 -0.007130599
vt 0.1342335 -0.003527275
vt 0.01336142 0.04512743
vt 0.01653207 0.04456691
vt 0.0159825 0.04954823
vt -0.1547773 0.08078745
vt -0.1518484 0.07980808
vt -0.1536092 0.08566096
vt -0.1315682 0.05466555
vt -0.131434 0.05865196
vt -0.1350611 0.05668221
vt -0.08319256 0.02434677
vt -0.08711852 0.02113615
vt -0.08604983 0.01677327
vt -0.1077966 0.09700452
vt -0.1057366 0.1009961
vt -0.109273 0.1029355
vt 0.1143013 0.02253694
vt 0.110263 0.02415978
vt 0.1129987 0.01756535
vt -0.1275124 0.09591527
vt -0.1304862 0.09680663
vt -0.1316581 0.092994
vt 0.1015571 0.02029189
vt 0.1017069 0.0203858
vt 0.09852527 0.02677705
vt 0.04443505 -0.09307159
vt 0.04456396 -0.08894614
vt 0.0413963 -0.08995584
vt 0.1270475 0.01777056
vt 0.1285551 0.01187243
vt 0.1321217 0.01370464
vt -0.02085978 -0.003748164
vt -0.02197499 -0.01176553
vt -0.01925911 -0.006317155
vt 0.1499387 0.08660325
vt 0.1484633 0.08399203
vt 0.1541264 0.080797
vt 0.117523 0.03976986
vt 0.1138208 0.03822989
vt 0.1343905 0.02636199
vt 0.1153942 0.1099337
vt 0.1173716 0.107642
vt 0.1185952 0.1103802
o group554167174
g mesh554167174
usemtl mat8
f 3/3/1 2/2/1 1/1/1
f 6/6/2 5/5/2 4/4/2
f 8/9/3 7/8/3 1/7/3
f 10/12/4 9/11/4 8/10/4
f 10/15/5 12/14/5 11/13/5
f 10/18/6 13/17/6 12/16/6
f 14/21/7 2/20/7 10/19/7
f 6/24/8 11/23/8 15/22/8
f 8/27/9 9/26/9 7/25/9
f 12/30/10 1/29/10 4/28/10
f 7/33/11 17/32/11 16/31/11
f 11/36/12 17/35/12 9/34/12
f 9/39/13 17/38/13 7/37/13
f 6/42/14 16/41/14 11/40/14
f 4/45/15 5/44/15 15/43/15
f 15/48/16 5/47/16 6/46/16
f 16/51/17 6/50/17 4/49/17
f 18/54/18 7/53/18 16/52/18
f 4/57/19 18/56/19 16/55/19
f 7/60/20 18/59/20 1/58/20
f 1/63/21 18/62/21 4/61/21
f 11/66/22 12/65/22 15/64/22
f 4/69/23 15/68/23 12/67/23
f 1/72/24 12/71/24 13/70/24
f 10/75/25 11/74/25 9/73/25
f 11/78/26 16/77/26 17/76/26
f 21/81/27 20/80/27 19/79/27
f 8/84/28 1/83/28 14/82/28
f 8/87/29 14/86/29 10/85/29
f 2/90/30 14/89/30 1/88/30
f 22/93/31 10/92/31 2/91/31
f 22/96/32 13/95/32 10/94/32
f 22/99/33 21/98/33 23/97/33
f 13/102/34 23/101/34 19/100/34
f 22/105/35 23/104/35 13/103/35
f 2/108/36 20/107/36 22/106/36
f 23/111/37 21/110/37 19/109/37
f 20/114/38 2/113/38 3/112/38
f 20/117/39 21/116/39 22/115/39
f 3/120/40 13/119/40 24/118/40
f 24/123/41 13/122/41 19/121/41
f 3/126/42 24/125/42 20/124/42
f 1/129/43 13/128/43 3/127/43
f 20/132/44 24/131/44 19/130/44
