mtllib materials.mtl
v 0.02500001 -0.02999997 -0.06999999
v 0.07500002 -0.02999997 -0.03
v 0.03500009 0.01999998 -0.04000002
v -0.01499996 0.02999985 -0.04999998
v -0.02499995 0.02999997 0.02000001
v -0.07499999 -0.02999997 -0.00999999
v -0.05499998 -0.02999997 -0.06999999
v -0.03499997 -0.02999997 0.04999998
v 0.02500004 -0.02999997 0.06999999
v 0.06500003 -0.02999997 0.03
v 0.02000004 0.01999998 0.01500002
vn 0.5907962 0.3249371 -0.7384956
vn -0.7374089 0.6671811 -0.1053452
vn 3.116794E-14 -1 1.580162E-08
vn -2.305416E-08 0.3162287 -0.948683
vn 0.4574955 0.7624931 0.4574956
vn -0.2797515 0.4662526 0.8392543
vn 0.762001 0.6350005 0.127
vn 0.2229627 0.9729286 0.06080816
vn -0.7682209 0.3841111 0.5121478
vn 0.1907966 0.9812512 0.02725494
vn 0.2614862 0.4576045 -0.8498371
vn -0.7633691 0.5937336 -0.2544566
vn 0.7004235 0.6876891 0.191025
vn 0.194948 0.4386331 0.8772664
vt -0.1711723 0.04812411
vt -0.1692131 0.05422013
vt -0.1753933 0.05226942
vt -0.08411485 0.08187193
vt -0.09045114 0.07873321
vt -0.08484812 0.07251981
vt 0.01870031 -0.04278199
vt 0.01600962 -0.05031593
vt 0.0209874 -0.05421743
vt 0.02798319 -0.05246848
vt 0.03188469 -0.0474907
vt 0.02946307 -0.04237839
vt 0.02414896 -0.03941863
vt -0.1745322 0.02692411
vt -0.1818397 0.02531188
vt -0.1772513 0.01940038
vt 0.1035575 -0.05342
vt 0.1034213 -0.05907521
vt 0.1126923 -0.05929844
vt 0.1063062 0.07135019
vt 0.1105233 0.06663679
vt 0.1155778 0.07115911
vt 0.1285215 -0.09336716
vt 0.1223765 -0.09130821
vt 0.1201539 -0.09697035
vt 0.004642833 -0.08356135
vt 0.007545737 -0.0755256
vt 0.003160175 -0.07916798
vt 0.02550001 0.1350185
vt 0.03240624 0.1329439
vt 0.02922896 0.1406837
vt 0.0007235544 -0.07710656
vt -0.002187249 -0.07280223
vt -0.005340818 -0.08074296
vt -0.1728773 0.007793141
vt -0.178084 0.01060224
vt -0.1800931 0.005810248
vt -0.1115084 0.06814333
vt -0.1063978 0.07186906
vt -0.1113014 0.07752188
vt 0.1189464 -0.09169599
vt 0.1103682 -0.09476427
vt 0.1168839 -0.09701068
vt 0.1520302 0.02104716
vt 0.1490755 0.0246206
vt 0.1422982 0.02587283
o group260489964
g mesh260489964
usemtl mat21
f 3/3/1 2/2/1 1/1/1
f 6/6/2 5/5/2 4/4/2
f 2/13/3 10/12/3 9/11/3 8/10/3 6/9/3 7/8/3 1/7/3
f 7/16/4 4/15/4 1/14/4
f 5/19/5 9/18/5 10/17/5
f 5/22/6 8/21/6 9/20/6
f 10/25/7 2/24/7 3/23/7
f 11/28/8 3/27/8 5/26/8
f 5/31/9 6/30/9 8/29/9
f 5/34/10 3/33/10 4/32/10
f 4/37/11 3/36/11 1/35/11
f 4/40/12 7/39/12 6/38/12
f 11/43/13 10/42/13 3/41/13
f 10/46/14 11/45/14 5/44/14
