mtllib materials.mtl
v 0.07499996 -0.005000353 -0.04500002
v -0.07499999 -0.005000353 -0.04500008
v -0.07499999 -0.005000353 -0.03500003
v 0.07499996 -0.005000353 -0.03500003
v -0.07499999 0.004999638 -0.03500003
v -0.07499999 0.004999638 -0.04500008
v 0.07499996 0.004999638 -0.04500002
v 0.07499996 0.004999638 -0.03500003
v 0.07499999 -0.005000114 0.01500002
v -0.07499999 -0.005000114 0.01499996
v -0.07499999 -0.005000114 0.02500001
v 0.07499999 -0.005000114 0.02500001
v -0.07499999 0.004999876 0.02500001
v -0.07499999 0.004999876 0.01499996
v 0.07499999 0.004999876 0.01500002
v 0.07499999 0.004999876 0.02500001
v 0.07499999 -0.005000591 -0.005000025
v -0.07499999 -0.005000591 -0.005000085
v -0.07499999 -0.005000591 0.004999965
v 0.07499999 -0.005000591 0.004999965
v -0.07499999 0.004999399 0.004999965
v -0.07499999 0.004999399 -0.005000085
v 0.07499999 0.004999399 -0.005000025
v 0.07499999 0.004999399 0.004999965
v 0.07499999 -0.005000353 -0.02500004
v -0.07499999 -0.005000353 -0.0250001
v -0.07499999 -0.005000353 -0.01500005
v 0.07499999 -0.005000353 -0.01500005
v -0.07499999 0.004999638 -0.01500005
v -0.07499999 0.004999638 -0.0250001
v 0.07499999 0.004999638 -0.02500004
v 0.07499999 0.004999638 -0.01500005
v 0.07499999 -0.005000353 0.035
v -0.07499999 -0.005000353 0.03499994
v -0.07499999 -0.005000353 0.04499999
v 0.07499999 -0.005000353 0.04499999
v -0.07499999 0.004999638 0.04499999
v -0.07499999 0.004999638 0.03499994
v 0.07499999 0.004999638 0.035
v 0.07499999 0.004999638 0.04499999
v -0.07500005 -0.005000591 0.04499996
v -0.07499999 -0.005000591 -0.04500002
v -0.08500004 -0.005000591 -0.04500002
v -0.08500004 -0.005000591 0.04499993
v -0.08500004 0.004999399 -0.04500002
v -0.07499999 0.004999399 -0.04500002
v -0.07500005 0.004999399 0.04499993
v -0.08500004 0.004999399 0.04499996
v 0.08500001 -0.005000353 0.04499996
v 0.08500013 -0.005000114 -0.04500002
v 0.07500008 -0.005000114 -0.04500002
v 0.07500002 -0.005000353 0.04499996
v 0.07500008 0.004999876 -0.04500002
v 0.08500013 0.004999876 -0.04500002
v 0.08500001 0.004999638 0.04499996
v 0.07500002 0.004999638 0.04499996
vn 1.065814E-14 -1 2.486901E-14
vn -1.241674E-09 1 -1.924684E-08
vn 2.103433E-09 -2.60771E-08 1
vn 3.973645E-07 1.053972E-13 -1
vn 1 -9.429932E-08 -4.097849E-08
vn -1 1.620493E-06 5.066358E-07
vn 1.065814E-14 -1 2.486901E-14
vn -1.241674E-09 1 -1.924684E-08
vn 2.103433E-09 -2.60771E-08 1
vn 3.973645E-07 1.053972E-13 -1
vn 1 -9.429932E-08 -4.097849E-08
vn -1 1.620493E-06 5.066358E-07
vn 1.065814E-14 -1 2.486901E-14
vn -1.241674E-09 1 -1.924684E-08
vn 2.103433E-09 -2.60771E-08 1
vn 3.973645E-07 1.053972E-13 -1
vn 1 -9.429932E-08 -4.097849E-08
vn -1 1.620493E-06 5.066358E-07
vn 1.065814E-14 -1 2.486901E-14
vn -1.241674E-09 1 -1.924684E-08
vn 2.103433E-09 -2.60771E-08 1
vn 3.973645E-07 1.053972E-13 -1
vn 1 -9.429932E-08 -4.097849E-08
vn -1 1.620493E-06 5.066358E-07
vn 1.065814E-14 -1 2.486901E-14
vn -1.241674E-09 1 -1.924684E-08
vn 2.103433E-09 -2.60771E-08 1
vn 3.973645E-07 1.053972E-13 -1
vn 1 -9.429932E-08 -4.097849E-08
vn -1 1.620493E-06 5.066358E-07
vn 1.490123E-07 -1 -7.565577E-07
vn -1.111379E-07 1 7.505744E-07
vn -1 -3.91153E-08 -3.389643E-07
vn 1 2.980252E-08 9.892271E-07
vn 1.886963E-08 4.505965E-07 1
vn -3.913954E-07 1.970184E-06 -1
vn 1.490124E-07 -1 -1.417086E-06
vn -1.499425E-07 1 1.410707E-06
vn -1 -3.911503E-08 -6.647251E-07
vn 1 2.980184E-08 1.318618E-06
vn 4.170788E-08 5.019262E-07 1
vn -4.170434E-08 2.319875E-06 -1
vt -0.06403845 -0.02172733
vt -0.0690835 -0.03585345
vt -0.06814175 -0.03618979
vt -0.06309671 -0.02206367
vt 0.06814174 -0.03618979
vt 0.0690835 -0.03585345
vt 0.06403844 -0.02172733
vt 0.0630967 -0.02206367
vt 0.2338927 0.05321842
vt 0.2347871 0.05366564
vt 0.2280789 0.06708204
vt 0.2271845 0.06663483
vt -0.2280789 0.06708203
vt -0.2347871 0.05366563
vt -0.2338927 0.05321841
vt -0.2271845 0.06663482
vt 0.09369557 0.220638
vt 0.09288183 0.2212193
vt 0.09230059 0.2204055
vt 0.09311432 0.2198243
vt -0.09230006 0.2204057
vt -0.0928813 0.2212194
vt -0.09369504 0.2206382
vt -0.0931138 0.2198244
vt -0.05838799 -0.02374535
vt -0.06343304 -0.03787147
vt -0.0624913 -0.03820781
vt -0.05744625 -0.02408168
vt 0.06249129 -0.03820781
vt 0.06343304 -0.03787147
vt 0.05838799 -0.02374535
vt 0.05744625 -0.02408169
vt 0.2338927 0.05321844
vt 0.2347872 0.05366565
vt 0.228079 0.06708205
vt 0.2271845 0.06663484
vt -0.228079 0.06708205
vt -0.2347872 0.05366564
vt -0.2338927 0.05321843
vt -0.2271845 0.06663483
vt 0.09857798 0.2171506
vt 0.09776425 0.2177319
vt 0.097183 0.2169181
vt 0.09799674 0.2163369
vt -0.09718249 0.2169183
vt -0.09776372 0.217732
vt -0.09857746 0.2171508
vt -0.09799623 0.216337
vt -0.06027148 -0.02307267
vt -0.06531654 -0.0371988
vt -0.06437479 -0.03753514
vt -0.05932974 -0.02340901
vt 0.06437478 -0.03753514
vt 0.06531653 -0.0371988
vt 0.06027148 -0.02307268
vt 0.05932974 -0.02340901
vt 0.2338927 0.05321841
vt 0.2347871 0.05366563
vt 0.2280789 0.06708203
vt 0.2271845 0.06663482
vt -0.2280789 0.06708203
vt -0.2347871 0.05366562
vt -0.2338927 0.05321841
vt -0.2271845 0.06663481
vt 0.09695048 0.2183131
vt 0.09613675 0.2188943
vt 0.09555551 0.2180806
vt 0.09636924 0.2174993
vt -0.09555499 0.2180807
vt -0.09613623 0.2188944
vt -0.09694996 0.2183132
vt -0.09636872 0.2174995
vt -0.06215497 -0.0224
vt -0.06720002 -0.03652612
vt -0.06625827 -0.03686247
vt -0.06121323 -0.02273634
vt 0.06625827 -0.03686247
vt 0.06720001 -0.03652613
vt 0.06215496 -0.0224
vt 0.06121322 -0.02273634
vt 0.2338927 0.05321842
vt 0.2347871 0.05366564
vt 0.2280789 0.06708204
vt 0.2271845 0.06663483
vt -0.2280789 0.06708203
vt -0.2347871 0.05366563
vt -0.2338927 0.05321842
vt -0.2271845 0.06663482
vt 0.09532303 0.2194756
vt 0.09450929 0.2200568
vt 0.09392805 0.219243
vt 0.09474178 0.2186618
vt -0.09392753 0.2192432
vt -0.09450877 0.2200569
vt -0.0953225 0.2194757
vt -0.09474127 0.2186619
vt -0.05650451 -0.02441802
vt -0.06154956 -0.03854414
vt -0.06060781 -0.03888048
vt -0.05556277 -0.02475436
vt 0.06060781 -0.03888049
vt 0.06154956 -0.03854415
vt 0.05650451 -0.02441802
vt 0.05556276 -0.02475436
vt 0.2338927 0.05321842
vt 0.2347871 0.05366564
vt 0.2280789 0.06708204
vt 0.2271845 0.06663483
vt -0.2280789 0.06708203
vt -0.2347871 0.05366563
vt -0.2338927 0.05321842
vt -0.2271845 0.06663482
vt 0.1002054 0.2159881
vt 0.0993917 0.2165693
vt 0.09881046 0.2157556
vt 0.09962419 0.2151744
vt -0.09880994 0.2157558
vt -0.09939118 0.2165695
vt -0.1002049 0.2159883
vt -0.09962368 0.2151745
vt -0.06060799 -0.03888037
vt -0.06908366 -0.03585334
vt -0.06941999 -0.03679509
vt -0.06094433 -0.03982212
vt 0.06941999 -0.0367951
vt 0.06908366 -0.03585335
vt 0.06060799 -0.03888039
vt 0.06094433 -0.03982212
vt -0.09230074 0.2204054
vt -0.09288199 0.2212192
vt -0.1002056 0.215988
vt -0.09962434 0.2151743
vt 0.1002058 0.2159879
vt 0.09288219 0.2212191
vt 0.09230095 0.2204053
vt 0.09962454 0.2151742
vt 0.2352343 0.05277123
vt 0.2347871 0.05366566
vt 0.2338927 0.05321845
vt 0.2343399 0.05232402
vt -0.2338926 0.05321824
vt -0.234787 0.05366545
vt -0.2352343 0.05277102
vt -0.2343398 0.05232381
vt -0.05522675 -0.02381243
vt -0.06370242 -0.02078539
vt -0.06403875 -0.02172714
vt -0.05556308 -0.02475417
vt 0.06403875 -0.02172714
vt 0.06370242 -0.02078539
vt 0.05522675 -0.02381243
vt 0.05556308 -0.02475417
vt -0.09230086 0.2204054
vt -0.0928821 0.2212192
vt -0.1002057 0.215988
vt -0.09962444 0.2151743
vt 0.1002059 0.2159879
vt 0.09288232 0.2212191
vt 0.09230109 0.2204053
vt 0.09962466 0.2151742
vt 0.2280789 0.06708209
vt 0.2276317 0.06797652
vt 0.2267373 0.06752931
vt 0.2271845 0.06663488
vt -0.2267372 0.06752907
vt -0.2276317 0.06797628
vt -0.2280789 0.06708185
vt -0.2271844 0.06663464
o group1998443809
g mesh1998443809
usemtl mat23
f 4/4/1 3/3/1 2/2/1 1/1/1
f 8/8/2 7/7/2 6/6/2 5/5/2
f 4/12/3 8/11/3 5/10/3 3/9/3
f 1/16/4 2/15/4 6/14/4 7/13/4
f 4/20/5 1/19/5 7/18/5 8/17/5
f 3/24/6 5/23/6 6/22/6 2/21/6
o group1872629391
g mesh1872629391
usemtl mat23
f 12/28/7 11/27/7 10/26/7 9/25/7
f 16/32/8 15/31/8 14/30/8 13/29/8
f 12/36/9 16/35/9 13/34/9 11/33/9
f 9/40/10 10/39/10 14/38/10 15/37/10
f 12/44/11 9/43/11 15/42/11 16/41/11
f 11/48/12 13/47/12 14/46/12 10/45/12
o group525000591
g mesh525000591
usemtl mat23
f 20/52/13 19/51/13 18/50/13 17/49/13
f 24/56/14 23/55/14 22/54/14 21/53/14
f 20/60/15 24/59/15 21/58/15 19/57/15
f 17/64/16 18/63/16 22/62/16 23/61/16
f 20/68/17 17/67/17 23/66/17 24/65/17
f 19/72/18 21/71/18 22/70/18 18/69/18
o group2077350536
g mesh2077350536
usemtl mat23
f 28/76/19 27/75/19 26/74/19 25/73/19
f 32/80/20 31/79/20 30/78/20 29/77/20
f 28/84/21 32/83/21 29/82/21 27/81/21
f 25/88/22 26/87/22 30/86/22 31/85/22
f 28/92/23 25/91/23 31/90/23 32/89/23
f 27/96/24 29/95/24 30/94/24 26/93/24
o group1530523099
g mesh1530523099
usemtl mat23
f 36/100/25 35/99/25 34/98/25 33/97/25
f 40/104/26 39/103/26 38/102/26 37/101/26
f 36/108/27 40/107/27 37/106/27 35/105/27
f 33/112/28 34/111/28 38/110/28 39/109/28
f 36/116/29 33/115/29 39/114/29 40/113/29
f 35/120/30 37/119/30 38/118/30 34/117/30
o group84860588
g mesh84860588
usemtl mat23
f 44/124/31 43/123/31 42/122/31 41/121/31
f 48/128/32 47/127/32 46/126/32 45/125/32
f 44/132/33 48/131/33 45/130/33 43/129/33
f 41/136/34 42/135/34 46/134/34 47/133/34
f 44/140/35 41/139/35 47/138/35 48/137/35
f 43/144/36 45/143/36 46/142/36 42/141/36
o group2019281642
g mesh2019281642
usemtl mat23
f 52/148/37 51/147/37 50/146/37 49/145/37
f 56/152/38 55/151/38 54/150/38 53/149/38
f 52/156/39 56/155/39 53/154/39 51/153/39
f 49/160/40 50/159/40 54/158/40 55/157/40
f 52/164/41 49/163/41 55/162/41 56/161/41
f 51/168/42 53/167/42 54/166/42 50/165/42
