mtllib materials.mtl
v -0.02000001 -0.09000003 0.02000001
v 0.01999999 -0.09000003 0.02000001
v 0.02 -0.09000003 -0.01999998
v -0.02 -0.09000003 -0.01999998
v -0.02 0.09000003 0.02000001
v -0.01999999 0.09000003 -0.01999998
v 0.02000001 0.09000003 -0.01999998
v 0.02 0.09000003 0.02000001
v 0.09 -0.01999998 0.02000001
v 0.09 0.01999998 0.02000001
v 0.09 0.01999998 -0.01999998
v 0.09 -0.01999998 -0.01999998
v -0.09 -0.01999998 0.01999998
v -0.09 -0.01999998 -0.02000001
v -0.09 0.01999998 -0.02000003
v -0.09 0.01999998 0.01999998
vn -5.960465E-08 -1 3.702008E-08
vn 5.960465E-08 1 -3.702008E-08
vn -1.870406E-07 5.960464E-08 1
vn 1.870406E-07 -5.960464E-08 -1
vn -1 2.160151E-09 -1.192093E-07
vn 1 -2.160151E-09 1.192093E-07
vn 1 4.413137E-15 2.118657E-07
vn -1 -4.413137E-15 -2.118657E-07
vn -1.748456E-07 1.109826E-07 1
vn 1.748456E-07 -1.109826E-07 -1
vn -2.160151E-09 -1 1.192093E-07
vn 2.160151E-09 1 -1.192093E-07
vt 0.02556157 -0.002757969
vt 0.02690691 0.001008999
vt 0.02313995 0.002354345
vt 0.0217946 -0.001412623
vt -0.02556157 -0.002757969
vt -0.0217946 -0.001412623
vt -0.02313995 0.002354345
vt -0.02690692 0.001008999
vt 0.1395306 0.07647353
vt 0.1556303 0.08452338
vt 0.1538415 0.08810109
vt 0.1377418 0.08005124
vt -0.1395306 0.07647353
vt -0.1377418 0.08005124
vt -0.1538415 0.08810109
vt -0.1556303 0.08452338
vt -0.1127602 0.1148526
vt -0.1095053 0.1171776
vt -0.1199676 0.1318248
vt -0.1232225 0.1294999
vt 0.1127602 0.1148526
vt 0.1232225 0.1294999
vt 0.1199676 0.1318248
vt 0.1095053 0.1171776
vt 0.1168289 0.1205488
vt 0.1191539 0.1238037
vt 0.1158989 0.1261287
vt 0.113574 0.1228737
vt -0.1168289 0.1205488
vt -0.113574 0.1228737
vt -0.1158989 0.1261287
vt -0.1191539 0.1238037
vt 0.1408723 0.08944273
vt 0.1489221 0.07334304
vt 0.1524998 0.07513189
vt 0.14445 0.09123158
vt -0.1408723 0.08944273
vt -0.14445 0.09123158
vt -0.1524998 0.07513189
vt -0.1489221 0.07334304
vt 0.02926129 0.007601198
vt 0.02549432 0.008946543
vt 0.01944026 -0.008004811
vt 0.02320723 -0.009350155
vt -0.02926129 0.007601197
vt -0.02320723 -0.009350156
vt -0.01944026 -0.00800481
vt -0.02549432 0.008946543
o group1558562590
g mesh1558562590
usemtl mat8
f 4/4/1 3/3/1 2/2/1 1/1/1
f 8/8/2 7/7/2 6/6/2 5/5/2
f 2/12/3 8/11/3 5/10/3 1/9/3
f 6/16/4 7/15/4 3/14/4 4/13/4
f 5/20/5 6/19/5 4/18/5 1/17/5
f 3/24/6 7/23/6 8/22/6 2/21/6
o group442479198
g mesh442479198
usemtl mat8
f 12/28/7 11/27/7 10/26/7 9/25/7
f 16/32/8 15/31/8 14/30/8 13/29/8
f 10/36/9 16/35/9 13/34/9 9/33/9
f 14/40/10 15/39/10 11/38/10 12/37/10
f 13/44/11 14/43/11 12/42/11 9/41/11
f 11/48/12 15/47/12 16/46/12 10/45/12
