mtllib materials.mtl
v 0.1333333 0.06499994 0.07333332
v 0.1232852 0.1025001 0.07333332
v 0.1232852 0.1025001 -0.07666662
v 0.1333333 0.06499994 -0.07666662
v 0.09583332 0.1299518 0.07333332
v 0.09583335 0.1299518 -0.07666663
v 0.05833334 0.14 0.07333331
v 0.05833337 0.14 -0.07666664
v 0.02083334 0.1299518 0.0733333
v 0.02083337 0.1299518 -0.07666665
v -0.00661853 0.1025001 0.07333329
v -0.0066185 0.1025001 -0.07666665
v -0.01666664 0.06499994 0.07333329
v -0.01666661 0.06499994 -0.07666665
v -0.00661853 0.02750003 0.07333329
v -0.0066185 0.02750003 -0.07666665
v 0.02083336 4.804134E-05 0.0733333
v 0.02083339 4.804134E-05 -0.07666665
v 0.05833334 -0.01000011 0.07333331
v 0.05833337 -0.01000011 -0.07666664
v 0.09583332 4.804134E-05 0.07333332
v 0.09583335 4.804134E-05 -0.07666663
v 0.1232852 0.02750003 0.07333332
v 0.1232853 0.02750003 -0.07666662
v -0.1116666 -0.009999871 0.05333332
v -0.07416648 -0.009999871 0.06338145
v -0.07416648 0.14 0.06338152
v -0.1116666 0.14 0.05333339
v -0.04671475 -0.009999871 0.09083337
v -0.04671475 0.14 0.09083343
v -0.03666663 -0.009999871 0.1283333
v -0.03666663 0.14 0.1283334
v -0.04671481 -0.009999871 0.1658333
v -0.04671481 0.14 0.1658334
v -0.0741666 -0.00999999 0.1932852
v -0.0741666 0.14 0.1932853
v -0.1116667 -0.00999999 0.2033333
v -0.1116667 0.14 0.2033333
v -0.1491666 -0.00999999 0.1932851
v -0.1491666 0.14 0.1932852
v -0.1766186 -0.009999871 0.1658332
v -0.1766186 0.14 0.1658333
v -0.1866667 -0.009999871 0.1283332
v -0.1866667 0.14 0.1283333
v -0.1766185 -0.009999871 0.09083325
v -0.1766185 0.14 0.09083334
v -0.1491665 -0.009999871 0.06338137
v -0.1491665 0.14 0.06338145
v 0.1833334 0 -0.1266667
v 0.1659167 0 -0.1916667
v 0.1659167 -0.01999998 -0.1916667
v 0.1833334 -0.01999998 -0.1266667
v 0.1183334 0 -0.23925
v 0.1183334 -0.01999998 -0.23925
v 0.05333337 0 -0.2566667
v 0.05333333 -0.01999998 -0.2566667
v -0.01166663 0 -0.23925
v -0.0116667 -0.01999998 -0.23925
v -0.05924994 0 -0.1916667
v -0.05925 -0.01999998 -0.1916667
v -0.07666662 0 -0.1266667
v -0.07666671 -0.01999998 -0.1266666
v -0.05924988 0 -0.06166664
v -0.05925 -0.01999998 -0.06166657
v -0.01166658 0 -0.01408336
v -0.01166666 -0.01999998 -0.01408326
v 0.05333342 0 0.003333335
v 0.05333337 -0.01999998 0.003333439
v 0.1183334 0 -0.01408337
v 0.1183334 -0.01999998 -0.01408328
v 0.1659167 0 -0.06166672
v 0.1659167 -0.01999998 -0.06166665
vn 0.9659261 0.2588182 2.307656E-07
vn 0.707105 0.7071086 1.742679E-07
vn 0.2588205 0.9659255 5.952697E-08
vn -0.2588204 0.9659255 -3.961621E-08
vn -0.7071053 0.7071084 -1.564785E-07
vn -0.965926 0.2588184 -2.308233E-07
vn -0.9659256 -0.2588199 -2.291092E-07
vn -0.7071081 -0.7071055 -1.506963E-07
vn -0.2588206 -0.9659255 -5.868432E-08
vn 0.2588206 -0.9659255 5.316076E-08
vn 0.7071078 -0.7071058 1.45636E-07
vn 0.9659258 -0.2588194 2.294811E-07
vn 2.593904E-07 0 -1
vn -2.036493E-07 0 1
vn 0.258819 4.447859E-07 -0.9659259
vn 0.7071092 3.202686E-07 -0.7071044
vn 0.9659257 1.214872E-07 -0.2588197
vn 0.9659253 -1.413985E-07 0.2588212
vn 0.7071078 -3.380586E-07 0.7071059
vn 0.2588176 -4.447282E-07 0.9659262
vn -0.2588207 -4.464419E-07 0.9659254
vn -0.7071061 -3.438424E-07 0.7071075
vn -0.9659256 -1.223299E-07 0.2588197
vn -0.9659252 1.27854E-07 -0.2588214
vn -0.7071052 3.489029E-07 -0.7071084
vn -0.2588186 4.460703E-07 -0.965926
vn -9.337487E-14 1 4.399918E-07
vn 1.39004E-13 -1 -4.957329E-07
vn 0.9659258 5.789704E-07 -0.2588193
vn 0.7071067 -2.537299E-07 -0.7071069
vn 0.2588188 6.49717E-07 -0.9659259
vn -0.2588192 1.877995E-06 -0.9659258
vn -0.7071071 2.577205E-06 -0.7071066
vn -0.9659258 4.182696E-06 -0.258819
vn -0.9659258 6.202262E-06 0.2588193
vn -0.7071065 6.481407E-06 0.7071071
vn -0.2588189 6.035655E-06 0.9659259
vn 0.2588191 4.827345E-06 0.9659259
vn 0.707107 3.125491E-06 0.7071066
vn 0.9659259 1.821176E-06 0.2588187
vn 1.824284E-07 1 -1.748456E-07
vn -5.547889E-09 -1 6.154382E-09
vt 0.1671257 0.09780516
vt 0.170414 0.09986894
vt 0.1624403 0.112574
vt 0.1591519 0.1105102
vt 0.1014353 -0.1088592
vt 0.1041943 -0.1115905
vt 0.1147472 -0.1009305
vt 0.1119882 -0.09819923
vt 0.01939202 -0.06070145
vt 0.02091641 -0.06427194
vt 0.03471171 -0.05838215
vt 0.03318732 -0.05481167
vt -0.0178907 0.03551457
vt -0.0166872 0.03182353
vt -0.002426141 0.03647347
vt -0.003629633 0.04016451
vt -0.04782464 0.1232298
vt -0.04658576 0.1195505
vt -0.03237002 0.1243372
vt -0.0336089 0.1280165
vt -0.08779626 0.1685205
vt -0.0861121 0.1650226
vt -0.072597 0.1715296
vt -0.07428116 0.1750276
vt -0.1704143 0.09986822
vt -0.167126 0.09780448
vt -0.1591523 0.1105096
vt -0.1624406 0.1125733
vt -0.1041954 -0.1115902
vt -0.1014364 -0.108859
vt -0.1119892 -0.09819889
vt -0.1147483 -0.1009302
vt -0.0209164 -0.06427193
vt -0.01939202 -0.06070144
vt -0.03318731 -0.05481166
vt -0.0347117 -0.05838214
vt 0.0166872 0.03182353
vt 0.0178907 0.03551457
vt 0.003629633 0.0401645
vt 0.002426141 0.03647346
vt 0.04658598 0.119551
vt 0.04782487 0.1232304
vt 0.03360913 0.1280171
vt 0.03237023 0.1243377
vt 0.086112 0.1650225
vt 0.08779614 0.1685205
vt 0.07428104 0.1750276
vt 0.07259689 0.1715296
vt -0.1806743 0.0825109
vt -0.1844778 0.08328923
vt -0.1881608 0.08206154
vt -0.1907366 0.0791568
vt -0.1915149 0.07535334
vt -0.1902872 0.07167029
vt -0.1873825 0.0690945
vt -0.183579 0.06831618
vt -0.179896 0.06954386
vt -0.1773202 0.0724486
vt -0.1765419 0.07625207
vt -0.1777696 0.07993513
vt 0.1777696 0.07993513
vt 0.1765419 0.07625207
vt 0.1773202 0.0724486
vt 0.179896 0.06954386
vt 0.183579 0.06831618
vt 0.1873825 0.0690945
vt 0.1902872 0.07167029
vt 0.1915149 0.07535334
vt 0.1907366 0.0791568
vt 0.1881608 0.08206154
vt 0.1844778 0.08328923
vt 0.1806743 0.0825109
vt -0.1803651 0.06937786
vt -0.1784364 0.07274722
vt -0.1914545 0.08019898
vt -0.1933832 0.07682963
vt -0.140384 0.1305067
vt -0.1375114 0.1331183
vt -0.1476017 0.1442172
vt -0.1504743 0.1416056
vt 0.03343227 0.188054
vt 0.03725817 0.1873948
vt 0.03980526 0.202177
vt 0.03597935 0.2028362
vt 0.1581551 0.1084802
vt 0.1606312 0.1054901
vt 0.1721842 0.1150571
vt 0.1697081 0.1180472
vt 0.1825397 0.06301171
vt 0.1843336 0.05956873
vt 0.1976363 0.06649976
vt 0.1958424 0.06994274
vt 0.186137 0.0531402
vt 0.1877953 0.04962992
vt 0.201358 0.0560373
vt 0.1996996 0.05954758
vt 0.1784364 0.07274731
vt 0.180365 0.06937798
vt 0.1933831 0.07682976
vt 0.1914545 0.08019909
vt 0.1375121 0.1331176
vt 0.1403847 0.130506
vt 0.1504751 0.1416048
vt 0.1476025 0.1442164
vt -0.03725813 0.1873948
vt -0.03343222 0.188054
vt -0.03597931 0.2028362
vt -0.03980521 0.202177
vt -0.1606312 0.10549
vt -0.1581551 0.1084802
vt -0.1697081 0.1180472
vt -0.1721842 0.115057
vt -0.1843337 0.05956855
vt -0.1825398 0.06301153
vt -0.1958424 0.06994255
vt -0.1976363 0.06649956
vt -0.1877953 0.04962992
vt -0.186137 0.05314018
vt -0.1996996 0.05954755
vt -0.201358 0.05603729
vt 0.006827717 -0.03101019
vt 0.004620175 -0.0278166
vt 0.001111612 -0.02615466
vt -0.002757875 -0.02646965
vt -0.005951449 -0.02867719
vt -0.0076134 -0.03218574
vt -0.007298402 -0.03605524
vt -0.005090869 -0.03924881
vt -0.001582298 -0.04091077
vt 0.002287189 -0.04059578
vt 0.005480761 -0.03838824
vt 0.007142709 -0.03487966
vt -0.00714272 -0.03487966
vt -0.005480774 -0.03838824
vt -0.002287201 -0.04059578
vt 0.001582284 -0.04091077
vt 0.005090856 -0.03924881
vt 0.00729839 -0.03605524
vt 0.007613388 -0.03218574
vt 0.005951436 -0.02867719
vt 0.002757863 -0.02646964
vt -0.001111623 -0.02615466
vt -0.004620187 -0.02781659
vt -0.006827728 -0.03101018
vt 0.01876611 0.1915959
vt 0.01213454 0.1927385
vt 0.01179493 0.1907676
vt 0.01842651 0.1896249
vt -0.1418401 0.1305343
vt -0.1468193 0.1260076
vt -0.1454739 0.1245277
vt -0.1404947 0.1290545
vt -0.1739582 0.08258347
vt -0.1773012 0.0767433
vt -0.1755655 0.07574973
vt -0.1722225 0.08158991
vt -0.1768059 0.07523243
vt -0.1796804 0.06914796
vt -0.177872 0.06829363
vt -0.1749975 0.07437811
vt -0.1690459 0.09107419
vt -0.1721553 0.08510636
vt -0.1703816 0.08418222
vt -0.1672722 0.09015005
vt -0.1395831 0.1324751
vt -0.143875 0.1272922
vt -0.1423346 0.1260166
vt -0.1380427 0.1311995
vt -0.01213404 0.1927384
vt -0.01876562 0.1915958
vt -0.01842601 0.1896248
vt -0.01179444 0.1907675
vt 0.1468185 0.1260084
vt 0.1418393 0.1305351
vt 0.1404939 0.1290552
vt 0.1454731 0.1245285
vt 0.1773009 0.07674392
vt 0.1739579 0.08258408
vt 0.1722222 0.08159051
vt 0.1755652 0.07575034
vt 0.1796804 0.06914807
vt 0.1768059 0.07523254
vt 0.1749976 0.07437822
vt 0.177872 0.06829375
vt 0.1721556 0.08510603
vt 0.1690462 0.09107388
vt 0.1672725 0.09014974
vt 0.1703819 0.08418189
vt 0.1438758 0.1272916
vt 0.1395838 0.1324745
vt 0.1380434 0.1311989
vt 0.1423354 0.126016
vt 0.008321511 -0.001001201
vt 0.005440787 -0.007082724
vt 0.005986768 -0.01378983
vt 0.009813158 -0.01932537
vt 0.01589467 -0.02220609
vt 0.02260179 -0.02166011
vt 0.02813733 -0.01783372
vt 0.03101804 -0.0117522
vt 0.03047206 -0.005045091
vt 0.02664567 0.0004904461
vt 0.02056416 0.003371167
vt 0.01385704 0.002825186
vt -0.01385706 0.002825229
vt -0.02056417 0.003371211
vt -0.0266457 0.0004904893
vt -0.03047208 -0.00504505
vt -0.03101807 -0.01175216
vt -0.02813734 -0.01783368
vt -0.0226018 -0.02166008
vt -0.01589469 -0.02220606
vt -0.009813171 -0.01932533
vt -0.005986779 -0.0137898
vt -0.005440798 -0.007082686
vt -0.008321522 -0.001001159
o group1489235423
g mesh1489235423
usemtl mat23
f 4/4/1 3/3/1 2/2/1 1/1/1
f 3/8/2 6/7/2 5/6/2 2/5/2
f 6/12/3 8/11/3 7/10/3 5/9/3
f 8/16/4 10/15/4 9/14/4 7/13/4
f 10/20/5 12/19/5 11/18/5 9/17/5
f 12/24/6 14/23/6 13/22/6 11/21/6
f 14/28/7 16/27/7 15/26/7 13/25/7
f 16/32/8 18/31/8 17/30/8 15/29/8
f 18/36/9 20/35/9 19/34/9 17/33/9
f 20/40/10 22/39/10 21/38/10 19/37/10
f 22/44/11 24/43/11 23/42/11 21/41/11
f 24/48/12 4/47/12 1/46/12 23/45/12
f 24/60/13 22/59/13 20/58/13 18/57/13 16/56/13 14/55/13 12/54/13 10/53/13 8/52/13 6/51/13 3/50/13 4/49/13
f 1/72/14 2/71/14 5/70/14 7/69/14 9/68/14 11/67/14 13/66/14 15/65/14 17/64/14 19/63/14 21/62/14 23/61/14
o group741661821
g mesh741661821
usemtl mat23
f 28/76/15 27/75/15 26/74/15 25/73/15
f 27/80/16 30/79/16 29/78/16 26/77/16
f 30/84/17 32/83/17 31/82/17 29/81/17
f 32/88/18 34/87/18 33/86/18 31/85/18
f 34/92/19 36/91/19 35/90/19 33/89/19
f 36/96/20 38/95/20 37/94/20 35/93/20
f 38/100/21 40/99/21 39/98/21 37/97/21
f 40/104/22 42/103/22 41/102/22 39/101/22
f 42/108/23 44/107/23 43/106/23 41/105/23
f 44/112/24 46/111/24 45/110/24 43/109/24
f 46/116/25 48/115/25 47/114/25 45/113/25
f 48/120/26 28/119/26 25/118/26 47/117/26
f 48/132/27 46/131/27 44/130/27 42/129/27 40/128/27 38/127/27 36/126/27 34/125/27 32/124/27 30/123/27 27/122/27 28/121/27
f 25/144/28 26/143/28 29/142/28 31/141/28 33/140/28 35/139/28 37/138/28 39/137/28 41/136/28 43/135/28 45/134/28 47/133/28
o group1592443419
g mesh1592443419
usemtl mat23
f 52/148/29 51/147/29 50/146/29 49/145/29
f 51/152/30 54/151/30 53/150/30 50/149/30
f 54/156/31 56/155/31 55/154/31 53/153/31
f 56/160/32 58/159/32 57/158/32 55/157/32
f 58/164/33 60/163/33 59/162/33 57/161/33
f 60/168/34 62/167/34 61/166/34 59/165/34
f 62/172/35 64/171/35 63/170/35 61/169/35
f 64/176/36 66/175/36 65/174/36 63/173/36
f 66/180/37 68/179/37 67/178/37 65/177/37
f 68/184/38 70/183/38 69/182/38 67/181/38
f 70/188/39 72/187/39 71/186/39 69/185/39
f 72/192/40 52/191/40 49/190/40 71/189/40
f 49/204/41 50/203/41 53/202/41 55/201/41 57/200/41 59/199/41 61/198/41 63/197/41 65/196/41 67/195/41 69/194/41 71/193/41
f 72/216/42 70/215/42 68/214/42 66/213/42 64/212/42 62/211/42 60/210/42 58/209/42 56/208/42 54/207/42 51/206/42 52/205/42
