mtllib materials.mtl
v 0.00999999 -0.2649999 0.1700001
v -0.00999999 -0.2649999 0.1500001
v -0.01000023 0.2649999 0.1500001
v 0.009999752 0.2649999 0.1700001
v 0.01000017 -0.2649999 -0.1700001
v 0.009999931 0.2649999 -0.17
v -0.01000005 0.2649999 -0.15
v -0.009999871 -0.2649999 -0.1500002
vn -0.7071077 -3.108415E-07 0.707106
vn -0.7071055 -1.718955E-07 -0.7071081
vn 4.513879E-08 -1 -2.228066E-10
vn 4.999223E-07 1 -1.141851E-08
vn 1 4.753347E-07 5.044502E-07
vn -1 -4.155895E-07 -4.52487E-07
vt 0.1525514 0.07214268
vt 0.1546442 0.07024001
vt 0.1902968 0.1094559
vt 0.188204 0.1113586
vt -0.1399814 0.06894709
vt -0.1869842 0.09343669
vt -0.1882911 0.09092832
vt -0.1412884 0.06643872
vt -0.04634715 -0.05246849
vt -0.07836639 -0.04103302
vt -0.07715559 -0.04358918
vt -0.04890331 -0.05367929
vt 0.04634719 -0.05246861
vt 0.04890335 -0.05367942
vt 0.07715561 -0.0435893
vt 0.07836642 -0.04103315
vt 0.06951629 0.1420545
vt 0.1003219 0.1851823
vt 0.07265503 0.2049445
vt 0.04184936 0.1618167
vt -0.06788881 0.143217
vt -0.0434768 0.1606542
vt -0.07428247 0.203782
vt -0.09869447 0.1863448
o group1386337691
g mesh1386337691
usemtl mat23
f 4/4/1 3/3/1 2/2/1 1/1/1
f 8/8/2 7/7/2 6/6/2 5/5/2
f 2/12/3 8/11/3 5/10/3 1/9/3
f 6/16/4 7/15/4 3/14/4 4/13/4
f 5/20/5 6/19/5 4/18/5 1/17/5
f 3/24/6 7/23/6 8/22/6 2/21/6
