mtllib materials.mtl
v 0.002497137 -0.0003274679 0.03135246
v -0.003340006 0.03123057 -0.04260713
v -0.003930211 0.02642226 -0.04443108
v -0.00535053 0.03548574 -0.04045165
v -0.009423077 0.03804767 -0.0385422
v -0.01446638 0.03822982 -0.0373904
v -0.01912913 0.03598344 -0.03730488
v -0.02216193 0.0319103 -0.03830855
v -0.02275217 0.02710199 -0.04013249
v -0.02074164 0.02284682 -0.04228798
v -0.01666909 0.02028501 -0.04419743
v -0.01162577 0.02010286 -0.04534923
v -0.006963015 0.02234924 -0.04543476
v 0.001993477 -0.0001496077 0.02958265
v -0.02069563 0.01071417 -0.01395564
v -0.02070153 0.007555127 -0.01462112
v -0.02203307 0.01326776 -0.01250181
v -0.02435547 0.01453149 -0.01064918
v -0.02704057 0.01416671 -0.008894175
v -0.02936888 0.0122714 -0.007707037
v -0.03071657 0.009353161 -0.007405862
v -0.03072247 0.006194115 -0.008071348
v -0.02938503 0.003640532 -0.00952518
v -0.02706262 0.002376795 -0.0113778
v -0.02437752 0.002741575 -0.01313281
v -0.02204919 0.004636884 -0.01431995
v 0.002573103 -7.259846E-05 0.03157121
v -0.01105797 -0.01262999 -0.04689221
v -0.009993106 -0.01763415 -0.04610557
v -0.01440936 -0.008686781 -0.0467703
v -0.0191493 -0.006861329 -0.04577251
v -0.02400774 -0.007642627 -0.04416619
v -0.02768281 -0.01082146 -0.04238177
v -0.02918983 -0.01554585 -0.04089737
v -0.02812496 -0.02055013 -0.04011073
v -0.02477357 -0.02449322 -0.04023264
v -0.02003363 -0.02631867 -0.04123043
v -0.01517522 -0.02553737 -0.04283674
v -0.01150012 -0.02235854 -0.04462117
v 0.002757609 0.0005956888 0.03130502
v 0.01443303 -0.02965033 -0.007130183
v 0.01225075 -0.0317477 -0.006007008
v 0.01515043 -0.02701449 -0.008850873
v 0.0142107 -0.02454662 -0.010708
v 0.01186568 -0.02290773 -0.01220397
v 0.008743703 -0.02253711 -0.01293793
v 0.005681276 -0.02353418 -0.01271321
v 0.003499001 -0.02563155 -0.01159003
v 0.00278163 -0.02826726 -0.009869352
v 0.003721327 -0.03073525 -0.008012213
v 0.006066352 -0.03237402 -0.006516248
v 0.009188354 -0.03274465 -0.005782291
v 0.001936823 -9.822845E-05 0.02976134
v 0.02995056 -0.009264231 -0.04528008
v 0.02910423 -0.01434803 -0.04479653
v 0.02819991 -0.004508734 -0.04633595
v 0.02432135 -0.001355648 -0.04768122
v 0.01935413 -0.0006498098 -0.04895544
v 0.01462924 -0.002580523 -0.04981717
v 0.01141268 -0.006630421 -0.05003552
v 0.01056632 -0.0117141 -0.04955198
v 0.01231697 -0.01646972 -0.04849611
v 0.01619554 -0.0196228 -0.04715084
v 0.02116275 -0.02032852 -0.04587661
v 0.02588767 -0.01839781 -0.04501488
v 0.002720743 -0.0003083944 0.03105354
v 0.02308446 0.02148271 -0.00942941
v 0.02278829 0.01866043 -0.01096883
v 0.02180332 0.02427638 -0.008441314
v 0.01928809 0.02629304 -0.008269303
v 0.01621276 0.0269922 -0.008959465
v 0.01340136 0.02618659 -0.01032687
v 0.0116072 0.02409208 -0.01200513
v 0.01131102 0.0212698 -0.01354455
v 0.0125922 0.01847601 -0.01453265
v 0.01510739 0.01645935 -0.01470466
v 0.01818272 0.01576018 -0.0140145
v 0.02099413 0.0165658 -0.01264709
vn 0.9905595 -0.07912692 -0.1119411
vn 0.9175689 0.3866513 0.09256361
vn 0.604957 0.7369851 0.3014631
vn 0.1364877 0.878003 0.458783
vn -0.3623131 0.7719193 0.5223696
vn -0.7577918 0.4471588 0.4751847
vn -0.9439804 -0.009258815 0.3298717
vn -0.8709898 -0.4750368 0.1253671
vn -0.5583779 -0.8253706 -0.08353238
vn -0.08990845 -0.9663885 -0.2408523
vn 0.4088921 -0.8603047 -0.3044388
vn 0.8043711 -0.5355442 -0.257254
vn -0.19429 0.3686719 -0.9090282
vn 0.8922602 0.09147497 -0.4421586
vn 0.7825451 0.5621837 -0.2675307
vn 0.4809811 0.8767173 0.004914762
vn 0.06837111 0.9507968 0.302177
vn -0.3447252 0.7645726 0.5446038
vn -0.6476197 0.3679434 0.6672379
vn -0.7591521 -0.1328152 0.6372192
vn -0.6494371 -0.6035237 0.4625914
vn -0.3478731 -0.9180571 0.1901459
vn 0.064737 -0.9921367 -0.1071164
vn 0.4778332 -0.8059126 -0.3495432
vn 0.7807279 -0.4092831 -0.4721773
vn -0.5552177 0.1724364 -0.8136332
vn 0.9650173 0.1746019 -0.1955912
vn 0.7380632 0.6344106 -0.2297519
vn 0.3222446 0.930861 -0.17221
vn -0.1710205 0.9845195 -0.03838368
vn -0.6095619 0.7810084 0.1358684
vn -0.8758729 0.3748582 0.3038554
vn -0.8985955 -0.1251034 0.4205655
vn -0.6716414 -0.5849119 0.4547261
vn -0.2558229 -0.8813623 0.3971843
vn 0.2374422 -0.9350207 0.2633579
vn 0.6759836 -0.7315097 0.08910593
vn 0.9422947 -0.3253593 -0.07888117
vn -0.277057 -0.206468 -0.9384084
vn 0.706212 -0.4361254 0.5577269
vn 0.9451384 -0.04612142 0.323398
vn 0.9268194 0.3744174 0.0285925
vn 0.656163 0.7128088 -0.2476971
vn 0.2056921 0.8783801 -0.4314386
vn -0.3038904 0.8267673 -0.473399
vn -0.7360429 0.5717992 -0.3623347
vn -0.9749692 0.1817954 -0.1280058
vn -0.9566502 -0.2387433 0.1667996
vn -0.6859937 -0.5771348 0.4430892
vn -0.235523 -0.7427061 0.6268307
vn 0.2740599 -0.6910931 0.6687911
vn 0.1244296 -0.5659209 -0.8150159
vn 0.9252204 -0.1197864 0.3600258
vn 0.8787476 0.3858625 0.2809144
vn 0.5894592 0.7922916 0.157518
vn 0.1348698 0.9905987 0.02290074
vn -0.3632138 0.9276475 -0.08686695
vn -0.7713306 0.6203057 -0.1423728
vn -0.9801258 0.1509252 -0.1287442
vn -0.9336529 -0.3547235 -0.04963277
vn -0.6443647 -0.7611526 0.0737635
vn -0.1897751 -0.9594597 0.2083808
vn 0.3083084 -0.8965085 0.3181485
vn 0.7164253 -0.5891665 0.3736545
vn 0.2290203 -0.1298864 -0.9647171
vn 0.9109249 -0.2671068 0.3144358
vn 0.8297648 0.1956444 0.5226985
vn 0.5169508 0.5920137 0.6182894
vn 0.05630029 0.8157946 0.575595
vn -0.4287545 0.8070245 0.4060552
vn -0.8082445 0.5680541 0.1550982
vn -0.9804855 0.1629143 -0.1100327
vn -0.8993253 -0.2998368 -0.3182953
vn -0.5865114 -0.6962059 -0.4138861
vn -0.1258608 -0.9199868 -0.3711917
vn 0.3591939 -0.9112169 -0.2016521
vn 0.7386841 -0.6722463 0.04930511
vn 0.2901499 0.434605 -0.8526028
vt 0.08170519 0.167254
vt 0.07608543 0.1730349
vt 0.07572605 0.1726623
vt 0.184065 0.01928986
vt 0.1865014 0.02697518
vt 0.1860031 0.02711569
vt 0.1301748 -0.06073359
vt 0.1371361 -0.05666647
vt 0.1368607 -0.05622814
vt 0.09061212 -0.007278828
vt 0.09829493 -0.004834537
vt 0.09812223 -0.004346557
vt 0.06519745 0.07562077
vt 0.07305367 0.07743176
vt 0.07292127 0.07793218
vt 0.04056164 0.149479
vt 0.04843396 0.1512187
vt 0.0483061 0.1517203
vt -0.006867043 0.1889469
vt 0.0006727412 0.191802
vt 0.0004739816 0.19228
vt -0.1720388 -0.05462209
vt -0.1764905 -0.04790027
vt -0.1769126 -0.0481998
vt -0.07863719 -0.1022614
vt -0.08627395 -0.09967689
vt -0.08642407 -0.1001723
vt -0.04829972 -0.02619068
vt -0.05605619 -0.02399134
vt -0.05618135 -0.02449362
vt -0.02371993 0.06569088
vt -0.03138363 0.06819442
vt -0.03152849 0.06769747
vt 0.01001173 0.142532
vt 0.002716117 0.1459633
vt 0.002510958 0.1454881
vt -0.1765152 0.0376848
vt -0.1769895 0.03789201
vt -0.177504 0.03783428
vt -0.1779206 0.03752708
vt -0.1781278 0.03705273
vt -0.1780701 0.03653832
vt -0.1777629 0.03612169
vt -0.1772885 0.03591448
vt -0.1767741 0.03597221
vt -0.1763575 0.03627941
vt -0.1761503 0.03675377
vt -0.176208 0.03726817
vt -0.05632107 0.1823416
vt -0.06133293 0.1819351
vt -0.06129652 0.1816144
vt 0.009553271 -0.173368
vt 0.01442539 -0.1746115
vt 0.01449515 -0.1742963
vt 0.04557765 -0.1068496
vt 0.05056584 -0.1074836
vt 0.05059624 -0.1071622
vt 0.05750238 -0.01642152
vt 0.06247499 -0.01716794
vt 0.06251264 -0.0168473
vt 0.07035172 0.07452764
vt 0.07527603 0.07351021
vt 0.07533117 0.07382832
vt 0.0911255 0.1375319
vt 0.09590313 0.135964
vt 0.0959939 0.1362738
vt 0.1414427 0.1287741
vt 0.1453965 0.1256675
vt 0.1455877 0.1259276
vt 0.1321518 -0.1057653
vt 0.1295192 -0.1100494
vt 0.1297996 -0.1102095
vt 0.02078762 -0.1014906
vt 0.01604911 -0.103173
vt 0.01616684 -0.1034736
vt -0.01179373 -0.01228826
vt -0.01674544 -0.01316265
vt -0.01667912 -0.01347861
vt -0.02784816 0.08245134
vt -0.03284992 0.08193517
vt -0.03280649 0.08161527
vt -0.03978998 0.1544243
vt -0.04480701 0.1540875
vt -0.04477505 0.1537662
vt -0.1780549 0.05903126
vt -0.1783561 0.05914744
vt -0.1786751 0.05909745
vt -0.1789263 0.05889469
vt -0.1790425 0.05859347
vt -0.1789925 0.05827453
vt -0.1787897 0.0580233
vt -0.1784885 0.05790712
vt -0.1781696 0.0579571
vt -0.1779184 0.05815987
vt -0.1778022 0.05846109
vt -0.1778522 0.05878003
vt 0.0915743 0.1680014
vt 0.08386488 0.1703604
vt 0.08372939 0.1698608
vt 0.01990389 -0.1644401
vt 0.0276289 -0.1621327
vt 0.0274649 -0.1616417
vt -0.01820759 -0.09647726
vt -0.01015126 -0.09616796
vt -0.01018772 -0.09565161
vt -0.02184583 -0.002094803
vt -0.01378897 -0.002389662
vt -0.01378665 -0.001872028
vt -0.01843199 0.09262732
vt -0.01041018 0.09182064
vt -0.01037495 0.09233709
vt -0.005990808 0.1632912
vt 0.001915017 0.1617108
vt 0.002000145 0.1622213
vt 0.04999802 0.1845647
vt 0.05696148 0.1805014
vt 0.05720787 0.1809566
vt 0.1353531 -0.1050989
vt 0.1284852 -0.1093217
vt 0.1287704 -0.1097538
vt 0.07927488 -0.08211784
vt 0.0713001 -0.08330229
vt 0.07139255 -0.0838116
vt 0.06643239 0.00279809
vt 0.05837757 0.002451788
vt 0.0584164 0.001935609
vt 0.06264612 0.09181447
vt 0.05458577 0.09198947
vt 0.05459115 0.09147187
vt 0.06521152 0.1563883
vt 0.05718432 0.1571393
vt 0.05715267 0.1566227
vt -0.1786031 0.05142374
vt -0.1790995 0.05157023
vt -0.1796027 0.05144887
vt -0.1799779 0.05109217
vt -0.1801244 0.05059569
vt -0.180003 0.05009248
vt -0.1796463 0.04971737
vt -0.1791498 0.04957087
vt -0.1786466 0.04969223
vt -0.1782715 0.05004894
vt -0.178125 0.05054541
vt -0.1782463 0.05104863
vt 0.1472662 0.07790361
vt 0.1423197 0.07880723
vt 0.1422719 0.07848795
vt 0.1597327 0.1009535
vt 0.1549385 0.1024699
vt 0.1548511 0.1021591
vt 0.1837614 0.02892748
vt 0.1801328 0.0324085
vt 0.1799169 0.03216848
vt -0.01053872 -0.1543461
vt -0.006637037 -0.1511742
vt -0.006848625 -0.1509303
vt -0.08815154 -0.07174735
vt -0.08326577 -0.07055857
vt -0.08335213 -0.07024749
vt -0.1070466 0.01524012
vt -0.1020515 0.0158172
vt -0.1020989 0.01613656
vt -0.1157367 0.08944519
vt -0.1107152 0.08970626
vt -0.1107423 0.09002796
vt -0.1209353 0.1357891
vt -0.1159071 0.1358254
vt -0.1159198 0.1361479
vt -0.12289 0.145903
vt -0.1178665 0.1456805
vt -0.1178626 0.1460033
vt 0.133973 -0.1082501
vt 0.1289459 -0.1081422
vt 0.1289493 -0.108465
vt 0.1358645 -0.05103571
vt 0.1308493 -0.05067315
vt 0.1308364 -0.05099573
vt 0.1403863 0.01892531
vt 0.1353924 0.01951256
vt 0.135365 0.01919088
vt -0.1312024 0.06648391
vt -0.1312874 0.06679536
vt -0.1315167 0.06702258
vt -0.1318289 0.06710469
vt -0.1321404 0.06701969
vt -0.1323676 0.06679034
vt -0.1324497 0.06647811
vt -0.1323647 0.06616665
vt -0.1321354 0.06593944
vt -0.1318232 0.06585734
vt -0.1315117 0.06594234
vt -0.1312845 0.06617169
vt 0.1557648 0.1022543
vt 0.1498679 0.1077521
vt 0.1495273 0.1073624
vt 0.1834136 0.01629445
vt 0.181288 0.02407147
vt 0.1807934 0.02391904
vt 0.101413 -0.0897431
vt 0.1055942 -0.08284982
vt 0.1051433 -0.08259571
vt 0.01085258 -0.05308267
vt 0.01751047 -0.04853597
vt 0.01720497 -0.04811809
vt -0.04138506 0.03179597
vt -0.03408354 0.0352147
vt -0.03431797 0.03567621
vt -0.08064699 0.1068004
vt -0.07322828 0.1099568
vt -0.07344613 0.1104263
vt -0.1244959 0.1348267
vt -0.1174357 0.1387195
vt -0.1177001 0.1391645
vt -0.1830104 0.03753173
vt -0.1791182 0.04459222
vt -0.1795793 0.04482745
vt -0.0574777 -0.1334164
vt -0.06272016 -0.1272913
vt -0.06310241 -0.1276403
vt 0.03513853 -0.07412767
vt 0.02812672 -0.07014839
vt 0.02788582 -0.07060656
vt 0.07938053 0.01512567
vt 0.07217766 0.01874764
vt 0.07196008 0.01827795
vt 0.1154802 0.08586793
vt 0.1085395 0.08997007
vt 0.1082906 0.08951622
vt -0.1675629 0.07988571
vt -0.1679561 0.08022235
vt -0.168465 0.08031728
vt -0.1689532 0.08014508
vt -0.1692898 0.07975186
vt -0.1693847 0.07924301
vt -0.1692125 0.07875486
vt -0.1688193 0.07841821
vt -0.1683104 0.07832327
vt -0.1678223 0.07849547
vt -0.1674857 0.07888869
vt -0.1673907 0.07939754
vt 0.137173 0.1126036
vt 0.1354596 0.117331
vt 0.1351598 0.1172113
vt 0.1834133 0.0502579
vt 0.1839798 0.05525421
vt 0.183658 0.05528026
vt 0.1593071 -0.001387871
vt 0.161858 0.002945381
vt 0.1615746 0.003100144
vt 0.1027006 0.01731962
vt 0.1061914 0.0209387
vt 0.105952 0.02115526
vt 0.04058091 0.07775253
vt 0.04434578 0.08108566
vt 0.04412412 0.08132039
vt -0.03041033 0.1350902
vt -0.02687221 0.1386631
vt -0.02710879 0.1388828
vt -0.1201078 0.1377401
vt -0.1177083 0.142159
vt -0.1179968 0.1423039
vt -0.1838106 0.03918049
vt -0.184171 0.04419588
vt -0.1844921 0.04416241
vt -0.1432373 -0.03870657
vt -0.1459066 -0.03444524
vt -0.1461746 -0.03462531
vt -0.07471333 -0.01675793
vt -0.07816445 -0.01310091
vt -0.07839201 -0.01332991
vt -0.008893969 0.04842915
vt -0.01239804 0.05203547
vt -0.01262224 0.05180317
vt 0.06108198 0.1063181
vt 0.05805995 0.110337
vt 0.05780828 0.1101348
vt -0.1801702 0.01354464
vt -0.1804627 0.01368122
vt -0.1807844 0.01365324
vt -0.1810489 0.01346819
vt -0.1811855 0.01317565
vt -0.1811575 0.01285403
vt -0.1809725 0.01258948
vt -0.1806799 0.0124529
vt -0.1803583 0.01248089
vt -0.1800938 0.01266593
vt -0.1799572 0.01295847
vt -0.1799852 0.0132801
o group1686224423
g mesh1686224423
usemtl mat13
f 3/3/1 2/2/1 1/1/1
f 2/6/2 4/5/2 1/4/2
f 4/9/3 5/8/3 1/7/3
f 5/12/4 6/11/4 1/10/4
f 6/15/5 7/14/5 1/13/5
f 7/18/6 8/17/6 1/16/6
f 8/21/7 9/20/7 1/19/7
f 9/24/8 10/23/8 1/22/8
f 10/27/9 11/26/9 1/25/9
f 11/30/10 12/29/10 1/28/10
f 12/33/11 13/32/11 1/31/11
f 13/36/12 3/35/12 1/34/12
f 13/48/13 12/47/13 11/46/13 10/45/13 9/44/13 8/43/13 7/42/13 6/41/13 5/40/13 4/39/13 2/38/13 3/37/13
o group1565512473
g mesh1565512473
usemtl mat13
f 16/51/14 15/50/14 14/49/14
f 15/54/15 17/53/15 14/52/15
f 17/57/16 18/56/16 14/55/16
f 18/60/17 19/59/17 14/58/17
f 19/63/18 20/62/18 14/61/18
f 20/66/19 21/65/19 14/64/19
f 21/69/20 22/68/20 14/67/20
f 22/72/21 23/71/21 14/70/21
f 23/75/22 24/74/22 14/73/22
f 24/78/23 25/77/23 14/76/23
f 25/81/24 26/80/24 14/79/24
f 26/84/25 16/83/25 14/82/25
f 26/96/26 25/95/26 24/94/26 23/93/26 22/92/26 21/91/26 20/90/26 19/89/26 18/88/26 17/87/26 15/86/26 16/85/26
o group1746627453
g mesh1746627453
usemtl mat13
f 29/99/27 28/98/27 27/97/27
f 28/102/28 30/101/28 27/100/28
f 30/105/29 31/104/29 27/103/29
f 31/108/30 32/107/30 27/106/30
f 32/111/31 33/110/31 27/109/31
f 33/114/32 34/113/32 27/112/32
f 34/117/33 35/116/33 27/115/33
f 35/120/34 36/119/34 27/118/34
f 36/123/35 37/122/35 27/121/35
f 37/126/36 38/125/36 27/124/36
f 38/129/37 39/128/37 27/127/37
f 39/132/38 29/131/38 27/130/38
f 39/144/39 38/143/39 37/142/39 36/141/39 35/140/39 34/139/39 33/138/39 32/137/39 31/136/39 30/135/39 28/134/39 29/133/39
o group859198247
g mesh859198247
usemtl mat13
f 42/147/40 41/146/40 40/145/40
f 41/150/41 43/149/41 40/148/41
f 43/153/42 44/152/42 40/151/42
f 44/156/43 45/155/43 40/154/43
f 45/159/44 46/158/44 40/157/44
f 46/162/45 47/161/45 40/160/45
f 47/165/46 48/164/46 40/163/46
f 48/168/47 49/167/47 40/166/47
f 49/171/48 50/170/48 40/169/48
f 50/174/49 51/173/49 40/172/49
f 51/177/50 52/176/50 40/175/50
f 52/180/51 42/179/51 40/178/51
f 52/192/52 51/191/52 50/190/52 49/189/52 48/188/52 47/187/52 46/186/52 45/185/52 44/184/52 43/183/52 41/182/52 42/181/52
o group36427447
g mesh36427447
usemtl mat13
f 55/195/53 54/194/53 53/193/53
f 54/198/54 56/197/54 53/196/54
f 56/201/55 57/200/55 53/199/55
f 57/204/56 58/203/56 53/202/56
f 58/207/57 59/206/57 53/205/57
f 59/210/58 60/209/58 53/208/58
f 60/213/59 61/212/59 53/211/59
f 61/216/60 62/215/60 53/214/60
f 62/219/61 63/218/61 53/217/61
f 63/222/62 64/221/62 53/220/62
f 64/225/63 65/224/63 53/223/63
f 65/228/64 55/227/64 53/226/64
f 65/240/65 64/239/65 63/238/65 62/237/65 61/236/65 60/235/65 59/234/65 58/233/65 57/232/65 56/231/65 54/230/65 55/229/65
o group1981820982
g mesh1981820982
usemtl mat13
f 68/243/66 67/242/66 66/241/66
f 67/246/67 69/245/67 66/244/67
f 69/249/68 70/248/68 66/247/68
f 70/252/69 71/251/69 66/250/69
f 71/255/70 72/254/70 66/253/70
f 72/258/71 73/257/71 66/256/71
f 73/261/72 74/260/72 66/259/72
f 74/264/73 75/263/73 66/262/73
f 75/267/74 76/266/74 66/265/74
f 76/270/75 77/269/75 66/268/75
f 77/273/76 78/272/76 66/271/76
f 78/276/77 68/275/77 66/274/77
f 78/288/78 77/287/78 76/286/78 75/285/78 74/284/78 73/283/78 72/282/78 71/281/78 70/280/78 69/279/78 67/278/78 68/277/78
