mtllib materials.mtl
v 0.03999999 -0.03999996 -0.03999999
v 0.03999999 -0.03999996 0.03999999
v 0.03999999 0.03999996 0.03999999
v 0.03999999 0.03999996 -0.03999999
v -0.03999999 -0.03999996 -0.03999999
v -0.03999999 0.03999996 -0.03999999
v -0.03999999 0.03999996 0.03999999
v -0.03999999 -0.03999996 0.03999999
vn 1 9.720679E-09 0
vn -1 -9.720679E-09 0
vn 0 -1 9.720679E-09
vn 0 1 -9.720679E-09
vn -9.720679E-09 0 -1
vn 9.720679E-09 0 1
vt 0.1160152 0.1039254
vt 0.122525 0.09927548
vt 0.1271749 0.1057853
vt 0.1206651 0.1104353
vt -0.1160152 0.1039254
vt -0.1206651 0.1104353
vt -0.1271749 0.1057853
vt -0.122525 0.09927548
vt 0.04345467 0.02058379
vt 0.04076397 0.01304985
vt 0.04829791 0.01035916
vt 0.0509886 0.0178931
vt -0.04345467 0.02058379
vt -0.0509886 0.0178931
vt -0.04829791 0.01035916
vt -0.04076397 0.01304985
vt -0.1207477 0.098387
vt -0.1279031 0.1019647
vt -0.1314808 0.09480928
vt -0.1243254 0.09123158
vt 0.1207477 0.098387
vt 0.1243254 0.09123158
vt 0.1314808 0.09480928
vt 0.1279031 0.1019647
o group1265438651
g mesh1265438651
usemtl mat13
f 4/4/1 3/3/1 2/2/1 1/1/1
f 8/8/2 7/7/2 6/6/2 5/5/2
f 2/12/3 8/11/3 5/10/3 1/9/3
f 6/16/4 7/15/4 3/14/4 4/13/4
f 5/20/5 6/19/5 4/18/5 1/17/5
f 3/24/6 7/23/6 8/22/6 2/21/6
