mtllib materials.mtl
v 0.04000001 -0.01000011 0.04000002
v -0.04000002 -0.01000011 0.04000002
v -0.03999999 0.009999871 0.04000002
v 2.980232E-08 0.009999871 0.04000002
v 0.04000002 0.00999999 0.04000002
v 0.04000002 -0.01000011 -0.03999996
v 0.04000001 0.00999999 -0.03999996
v 2.980232E-08 0.009999871 -0.03999996
v -0.03999999 0.00999999 -0.03999996
v -0.03999999 -0.01000011 -0.03999999
v 2.980232E-08 -1.192093E-07 0.02000004
v 0.02000006 -1.192093E-07 0.02000004
v 0.04000008 0.009999871 5.960464E-08
v -0.04000002 0.009999871 2.980232E-08
v -0.01999998 -1.192093E-07 0.02000004
v -0.01999998 -1.192093E-07 -0.01999998
v -0.01999998 -1.192093E-07 2.980232E-08
v 2.980232E-08 -1.192093E-07 2.980232E-08
v 2.980232E-08 -1.192093E-07 -0.01999998
v 0.02000006 -1.192093E-07 -0.01999995
v 0.02000006 -1.192093E-07 5.960464E-08
v 0.04000001 -0.00999999 0.04000002
v 0.04000001 -0.00999999 -0.03999996
v 0.04000001 0.00999999 -0.03999999
v 0.04000001 0.00999999 0.04000002
v 0.06999999 -0.00999999 0.04000005
v 0.06999999 -0.00999999 -0.03999996
v 0.04000004 -0.01000011 0.04000005
v 0.04000004 0.009999871 0.04000005
v -0.04000002 0.009999871 0.04000002
v -0.03999999 -0.01000011 0.04000002
v 0.04000005 -0.01000011 0.07000005
v -0.03999999 -0.01000011 0.07000005
v -0.06999999 -0.01000011 0.04000002
v -0.06999999 -0.01000011 -0.03999996
v -0.03999999 0.009999871 -0.03999996
v -0.03999999 0.009999871 0.04000002
v -0.03999999 -0.01000011 0.04000005
v -0.03999999 -0.01000011 -0.03999996
v 0.03999999 -0.00999999 -0.06999996
v 0.03999999 -0.00999999 -0.03999996
v 0.03999999 0.00999999 -0.03999996
v -0.03999999 -0.00999999 -0.06999996
v -0.03999999 0.00999999 -0.03999996
v -0.03999999 -0.00999999 -0.03999996
v -0.07000002 -0.00999999 -0.03999996
v -0.03999999 0.00999999 -0.03999999
v -0.03999999 -0.009999871 -0.03999996
v -0.03999999 -0.00999999 -0.06999996
v 0.04000001 -0.00999999 -0.06999999
v 0.04000004 0.00999999 -0.03999996
v 0.04000001 -0.009999871 -0.03999996
v 0.07000001 -0.00999999 -0.03999996
v -0.03999999 -0.01000011 0.07000005
v -0.04000002 0.009999871 0.04000002
v -0.03999999 -0.00999999 0.04000002
v -0.06999999 -0.01000011 0.04000002
v 0.07000004 -0.00999999 0.04000002
v 0.04000001 0.00999999 0.04000005
v 0.04000001 -0.009999871 0.04000002
v 0.04000001 -0.00999999 0.07000002
vn 2.0489E-08 -1.873279E-08 1
vn 2.123421E-07 7.878873E-07 -1
vn 1.34459E-08 -1 1.141896E-08
vn 4.41504E-08 0.8944272 -0.4472136
vn 1 -2.002339E-06 -4.039628E-08
vn -1 4.656623E-08 -1.735169E-07
vn 4.935681E-08 0.8944272 -0.4472136
vn 0.4472125 0.8944278 -4.415785E-08
vn 6.975132E-09 1 -1.141883E-08
vn -2.671532E-06 0.8944261 -0.4472158
vn -0.4472158 0.8944261 3.629676E-06
vn -1.114053E-08 0.8944272 -0.4472136
vn 0.447215 0.8944265 3.015239E-06
vn -7.28871E-08 0.8944272 0.4472136
vn -6.924299E-07 0.8944272 0.4472136
vn 5.031366E-08 1 -1.141884E-08
vn 0.4472126 0.8944277 1.581809E-08
vn 3.618694E-09 1 -1.141883E-08
vn -5.227413E-09 1 -1.141897E-08
vn -0.4472128 0.8944277 3.143345E-08
vn -0.4472128 0.8944276 -7.269008E-08
vn 2.649355E-06 0.8944262 0.4472157
vn 9.520537E-08 1 -1.141883E-08
vn -2.658417E-06 0.8944264 0.4472152
vn 0.4472128 0.8944276 -3.233168E-07
vn -0.4472156 0.8944262 -3.480797E-06
vn -1 -1.010382E-07 -1.757355E-08
vn -1.141899E-08 -1 -2.174085E-08
vn 0.5547 0.8320504 1.944304E-08
vn -1.028991E-06 1.748454E-07 1
vn 5.8862E-08 -1.664963E-06 -1
vn 3.520398E-07 -4.470328E-08 -1
vn -2.465168E-08 -1 4.560695E-14
vn -9.356164E-08 0.8320507 0.5546996
vn 1 -1.141912E-08 -4.681465E-07
vn -1 -1.478698E-06 1.024565E-08
vn -0.5546998 0.8320506 2.658433E-08
vn 1 -3.888284E-08 -5.709474E-09
vn 9.323189E-14 -1 -8.159247E-09
vn -1.168689E-06 1.478698E-06 1
vn 1.442337E-07 1.141915E-08 -1
vn 1 5.836282E-08 1.020448E-14
vn -1 5.029149E-08 8.793243E-15
vn 7.228016E-16 -1 2.212897E-08
vn 6.296096E-09 0.8320506 -0.5546999
vn -4.657391E-10 1.141915E-08 1
vn 1.192031E-07 1.317143E-06 1
vn 4.159283E-06 -1 3.798797E-06
vn -0.4850711 0.727607 -0.4850713
vn 1 1.862658E-07 -1.567735E-07
vn -1 1.142298E-06 -6.198782E-12
vn -3.623952E-06 -1 4.159282E-06
vn 0.4850712 0.7276071 -0.485071
vn 3.756422E-08 1.862658E-07 1
vn 1 1.491989E-06 5.922629E-12
vn 3.973643E-06 -1 -3.984436E-06
vn -0.4850714 0.727607 0.4850709
vn -3.75643E-08 1.142023E-08 -1
vn 1.192155E-07 1.142297E-06 -1
vn -4.159282E-06 -1 -3.623953E-06
vn 0.485071 0.7276071 0.4850712
vn -1 1.862658E-07 -8.164509E-08
vt 0.1623385 0.05769055
vt 0.1659162 0.05053513
vt 0.1677051 0.05142956
vt 0.1659162 0.05500727
vt 0.1641274 0.05858499
vt -0.1623385 0.0576905
vt -0.1641274 0.05858494
vt -0.1659162 0.05500722
vt -0.1677051 0.05142952
vt -0.1659162 0.05053508
vt -0.03625706 -0.00935015
vt -0.043791 -0.006659458
vt -0.04648169 -0.01419339
vt -0.03894775 -0.01688409
vt -0.04702945 -0.02962144
vt -0.04480358 -0.02940814
vt -0.04499438 -0.02741725
vt 0.07416566 0.1571669
vt 0.07532815 0.1587944
vt 0.07207321 0.1611193
vt 0.06881827 0.1634443
vt 0.06765579 0.1618168
vt -0.07416603 0.1571668
vt -0.06765616 0.1618167
vt -0.06881864 0.1634442
vt -0.07207357 0.1611192
vt -0.07532851 0.1587943
vt -0.04702947 -0.02962144
vt -0.04461281 -0.03139902
vt -0.0448036 -0.02940814
vt 0.07944249 -0.07473992
vt 0.08015705 -0.07182626
vt 0.07839166 -0.07276615
vt 0.04136937 -0.01177177
vt 0.04325286 -0.0110991
vt 0.04258018 -0.009215615
vt 0.0406967 -0.009888289
vt -0.04741153 -0.02563919
vt -0.04702996 -0.02962095
vt -0.04499488 -0.02741676
vt 0.0193242 0.06767473
vt 0.01551388 0.06645757
vt 0.01809945 0.06493612
vt -0.04702945 -0.02962143
vt -0.04664787 -0.0336032
vt -0.0446128 -0.031399
vt 0.08015795 -0.07182603
vt 0.0794434 -0.07473969
vt 0.08297418 -0.0728599
vt 0.109564 0.02877391
vt 0.1105745 0.03159857
vt 0.1086095 0.03053148
vt 0.1086095 0.03053155
vt 0.1105745 0.03159864
vt 0.107655 0.03228912
vt 0.04325286 -0.01109911
vt 0.04136938 -0.01177178
vt 0.04204205 -0.01365527
vt 0.07662629 -0.07370603
vt 0.07944252 -0.07473992
vt 0.07839169 -0.07276614
vt 0.04015856 -0.01432793
vt 0.04204205 -0.01365526
vt 0.04136937 -0.01177177
vt 0.03948589 -0.01244445
vt 0.03948589 -0.01244444
vt 0.04136937 -0.01177177
vt 0.0406967 -0.009888286
vt 0.03881321 -0.01056096
vt 0.01619389 0.06432684
vt 0.01551348 0.06645687
vt 0.01428874 0.06371826
vt 0.01809904 0.06493542
vt 0.01551346 0.06645687
vt 0.01619388 0.06432684
vt 0.1095644 0.02877383
vt 0.1124839 0.02808336
vt 0.110575 0.0315985
vt 0.04204205 -0.01365527
vt 0.04392553 -0.0129826
vt 0.04325286 -0.01109911
vt 0.1076551 0.03228949
vt 0.1105746 0.03159902
vt 0.1086657 0.03511415
vt 0.07591168 -0.07661976
vt 0.07944246 -0.07473999
vt 0.07662624 -0.07370611
vt 0.01428803 0.06371857
vt 0.01551277 0.06645718
vt 0.01170246 0.06524003
vt -0.07416604 0.1571668
vt -0.06765617 0.1618167
vt -0.06881864 0.1634442
vt -0.07532851 0.1587943
vt -0.03625707 -0.009350153
vt -0.03524806 -0.006524929
vt -0.04278199 -0.003834237
vt -0.043791 -0.006659462
vt 0.08747312 -0.07859528
vt 0.09419952 -0.0742645
vt 0.09224766 -0.07123296
vt 0.08552127 -0.07556374
vt 0.1623385 0.05769057
vt 0.1641274 0.058585
vt 0.1609969 0.06037385
vt -0.1623386 0.05769066
vt -0.1609969 0.06037394
vt -0.1641274 0.05858509
vt -0.1623385 0.05769055
vt -0.1641274 0.05858498
vt -0.1677051 0.05142956
vt -0.1659162 0.05053513
vt -0.03343184 -0.01035916
vt -0.03625706 -0.009350154
vt -0.03894776 -0.01688409
vt -0.03612253 -0.0178931
vt 0.1129087 0.04064834
vt 0.1168939 0.03371162
vt 0.1200203 0.03550773
vt 0.1160351 0.04244446
vt 0.07660709 0.1554231
vt 0.07532836 0.1587943
vt 0.07416589 0.1571669
vt -0.07660744 0.155423
vt -0.07416623 0.1571667
vt -0.07532872 0.1587942
vt 0.008601045 0.0744452
vt 0.01621617 0.0768967
vt 0.0151113 0.08032878
vt 0.007496172 0.0778773
vt 0.07416598 0.1571668
vt 0.07532845 0.1587943
vt 0.06881858 0.1634442
vt 0.06765611 0.1618167
vt -0.03995677 -0.01970931
vt -0.03894775 -0.01688409
vt -0.04648169 -0.0141934
vt -0.0474907 -0.01701862
vt 0.1672579 0.04785194
vt 0.1677051 0.05142965
vt 0.1659163 0.05053522
vt -0.1672579 0.04785185
vt -0.1659162 0.05053513
vt -0.1677051 0.05142956
vt 0.06521495 0.1635604
vt 0.06765614 0.1618167
vt 0.06881862 0.1634442
vt -0.06521492 0.1635604
vt -0.0688186 0.1634442
vt -0.06765612 0.1618167
vt -0.04661622 -0.005650454
vt -0.04930691 -0.01318439
vt -0.04648169 -0.0141934
vt -0.043791 -0.006659464
vt -0.05947986 -0.02218248
vt -0.06308471 -0.02225389
vt -0.06292625 -0.03025232
vt -0.0593214 -0.03018091
vt 0.1623385 0.05769056
vt 0.1659162 0.05053514
vt 0.1677051 0.05142957
vt 0.1641274 0.05858498
vt 0.1672579 0.04785194
vt 0.1677051 0.05142965
vt 0.1659163 0.05053523
vt -0.04930604 -0.01318405
vt -0.04748981 -0.01701828
vt -0.0464808 -0.01419305
vt -0.06082761 0.05393733
vt -0.06443264 0.05387641
vt -0.06326544 0.05046501
vt 0.06521492 0.1635605
vt 0.06765614 0.1618167
vt 0.06881861 0.1634442
vt -0.06521474 0.1635605
vt -0.06881841 0.1634443
vt -0.06765595 0.1618168
vt -0.04278152 -0.003835111
vt -0.04661576 -0.005651331
vt -0.04379053 -0.006660338
vt -0.05909606 -0.09733719
vt -0.060087 -0.1008039
vt -0.05648358 -0.1006801
vt 0.1609969 0.06037385
vt 0.1623386 0.05769057
vt 0.1641274 0.058585
vt 0.07660744 0.155423
vt 0.07532872 0.1587942
vt 0.07416625 0.1571667
vt -0.0399572 -0.0197084
vt -0.03612296 -0.01789219
vt -0.03894819 -0.01688317
vt 0.08755444 0.08921176
vt 0.08677678 0.09273244
vt 0.08366617 0.09090924
vt -0.1672579 0.04785185
vt -0.1659162 0.05053514
vt -0.1677051 0.05142956
vt -0.1609969 0.06037378
vt -0.1641274 0.05858492
vt -0.1623385 0.05769049
vt -0.03343268 -0.01035955
vt -0.03524889 -0.006525303
vt -0.03625791 -0.009350529
vt 0.1424405 0.006768397
vt 0.1453287 0.008926755
vt 0.1423863 0.01101069
vt -0.07660718 0.1554231
vt -0.07416599 0.1571668
vt -0.07532846 0.1587943
o group764987959
g mesh764987959
usemtl mat21
f 5/5/1 4/4/1 3/3/1 2/2/1 1/1/1
f 10/10/2 9/9/2 8/8/2 7/7/2 6/6/2
f 2/14/3 10/13/3 6/12/3 1/11/3
f 12/17/4 11/16/4 4/15/4
f 6/22/5 7/21/5 13/20/5 5/19/5 1/18/5
f 3/27/6 14/26/6 9/25/6 10/24/6 2/23/6
f 11/30/7 15/29/7 4/28/7
f 17/33/8 16/32/8 14/31/8
f 21/37/9 20/36/9 19/35/9 18/34/9
f 12/40/10 4/39/10 5/38/10
f 20/43/11 13/42/11 7/41/11
f 15/46/12 3/45/12 4/44/12
f 9/49/13 14/48/13 16/47/13
f 19/52/14 8/51/14 16/50/14
f 20/55/15 8/54/15 19/53/15
f 17/58/16 18/57/16 19/56/16
f 17/61/17 14/60/17 15/59/17
f 11/65/18 18/64/18 17/63/18 15/62/18
f 12/69/19 21/68/19 18/67/19 11/66/19
f 12/72/20 13/71/20 21/70/20
f 21/75/21 13/74/21 20/73/21
f 8/78/22 9/77/22 16/76/22
f 19/81/23 16/80/23 17/79/23
f 7/84/24 8/83/24 20/82/24
f 15/87/25 14/86/25 3/85/25
f 5/90/26 13/89/26 12/88/26
o group1586226101
g mesh1586226101
usemtl mat21
f 25/94/27 24/93/27 23/92/27 22/91/27
f 23/98/28 27/97/28 26/96/28 22/95/28
f 26/102/29 27/101/29 24/100/29 25/99/29
f 26/105/30 25/104/30 22/103/30
f 24/108/31 27/107/31 23/106/31
o group1663703151
g mesh1663703151
usemtl mat21
f 31/112/32 30/111/32 29/110/32 28/109/32
f 33/116/33 31/115/33 28/114/33 32/113/33
f 29/120/34 30/119/34 33/118/34 32/117/34
f 28/123/35 29/122/35 32/121/35
f 30/126/36 31/125/36 33/124/36
o group1566562205
g mesh1566562205
usemtl mat21
f 37/130/37 36/129/37 35/128/37 34/127/37
f 39/134/38 36/133/38 37/132/38 38/131/38
f 35/138/39 39/137/39 38/136/39 34/135/39
f 38/141/40 37/140/40 34/139/40
f 36/144/41 39/143/41 35/142/41
o group1072616308
g mesh1072616308
usemtl mat21
f 42/147/42 41/146/42 40/145/42
f 45/150/43 44/149/43 43/148/43
f 41/154/44 45/153/44 43/152/44 40/151/44
f 43/158/45 44/157/45 42/156/45 40/155/45
f 42/162/46 44/161/46 45/160/46 41/159/46
o group724387351
g mesh724387351
usemtl mat21
f 48/165/47 47/164/47 46/163/47
f 48/168/48 46/167/48 49/166/48
f 46/171/49 47/170/49 49/169/49
f 47/174/50 48/173/50 49/172/50
o group215038182
g mesh215038182
usemtl mat21
f 52/177/51 51/176/51 50/175/51
f 52/180/52 50/179/52 53/178/52
f 50/183/53 51/182/53 53/181/53
f 51/186/54 52/185/54 53/184/54
o group1119179376
g mesh1119179376
usemtl mat21
f 56/189/55 55/188/55 54/187/55
f 56/192/56 54/191/56 57/190/56
f 54/195/57 55/194/57 57/193/57
f 55/198/58 56/197/58 57/196/58
o group1581092883
g mesh1581092883
usemtl mat21
f 60/201/59 59/200/59 58/199/59
f 60/204/60 58/203/60 61/202/60
f 58/207/61 59/206/61 61/205/61
f 59/210/62 60/209/62 61/208/62
