mtllib materials.mtl
v -0.07259876 -0.05894804 0.1997225
v 0.02240123 -0.05894804 0.1696263
v 0.02240123 -0.07894802 0.1696263
v -0.07259876 -0.07894802 0.1997225
v 0.1382858 -0.05894804 0.09106219
v 0.1382858 -0.07894802 0.09106219
v 0.158382 -0.05894804 0.0160622
v 0.158382 -0.07894802 0.0160622
v 0.157305 -0.05894804 -0.1552775
v 0.157305 -0.07894802 -0.1552775
v 0.1024012 -0.05894804 -0.2101813
v 0.1024012 -0.07894802 -0.2101813
v -0.06643853 -0.05894804 -0.2019281
v -0.06643853 -0.07894802 -0.2019281
v -0.1414385 -0.05894804 -0.181832
v -0.1414385 -0.07894802 -0.181832
v -0.1825026 -0.05894804 -0.07527751
v -0.1825026 -0.07894802 -0.07527751
v -0.2025988 -0.05894804 -0.0002775192
v -0.2025988 -0.07894802 -0.0002775192
v -0.1825026 -0.05894804 0.07472247
v -0.1825026 -0.07894802 0.07472247
v -0.1575987 -0.05894804 0.1496263
v -0.1575987 -0.07894802 0.1496263
v 0.03267065 -0.06484568 -0.01313114
v 0.04504827 -0.06879902 0.00207305
v 0.06468602 0.1076134 0.03195626
v 0.05230841 0.1115667 0.01675206
v 0.01711322 -0.06524193 -0.0005689263
v 0.03675097 0.1111705 0.02931428
v 0.04912859 0.1072172 0.04451847
v 0.02949083 -0.06919515 0.01463526
v -0.01295231 -0.06225979 -0.007982194
v -0.0009301305 -0.06594026 0.007571638
v -0.03901312 0.116484 0.08017379
v -0.0510353 0.1201645 0.06461996
v -0.02847533 -0.06958568 0.002282679
v -0.06655832 0.1128386 0.07488483
v -0.05453613 0.1091582 0.09043866
v -0.01645315 -0.07326615 0.01783651
v 0.01334809 -0.07164371 -0.04784885
v 0.02046658 -0.06893778 -0.02935547
v 0.03518386 0.1176019 -0.06231532
v 0.02806537 0.1148959 -0.08080867
v -0.005277887 -0.0689764 -0.0410696
v 0.009439394 0.1175632 -0.07402945
v 0.01655789 0.1202692 -0.05553606
v 0.001840606 -0.06627047 -0.02257621
vn 0.3020088 -5.934518E-09 0.9533051
vn 0.56115 -2.095925E-08 0.8277141
vn 0.9659259 -1.031157E-07 0.258819
vn 0.9999803 -9.579506E-08 -0.006285267
vn 0.7071069 2.961067E-08 -0.7071068
vn -0.04882329 -7.767631E-09 -0.9988074
vn -0.258819 1.426141E-09 -0.9659259
vn -0.9331061 1.33619E-07 -0.3596011
vn -0.9659259 -1.782604E-09 -0.258819
vn -0.9659259 -1.749405E-07 0.258819
vn -0.9489266 5.144529E-08 0.315497
vn -0.5077447 2.250848E-08 0.8615076
vn 0 1 5.113343E-09
vn 3.054417E-08 -1 2.201401E-08
vn 0.7778718 0.01980758 -0.6281108
vn -0.7778718 -0.01980758 0.6281108
vn -0.1090987 -0.9800692 -0.1660179
vn 0.1090987 0.9800692 0.1660179
vn -0.6188804 0.1976666 -0.7602072
vn 0.6188804 -0.1976666 0.7602072
vn 0.7761506 0.3662932 -0.5132442
vn -0.7761506 -0.3662932 0.5132442
vn 0.190415 -0.9121214 -0.3630107
vn -0.190415 0.9121214 0.3630107
vn -0.6011093 0.1840216 -0.7776912
vn 0.6011093 -0.1840216 0.7776912
vn 0.9312989 -0.1333675 -0.3389626
vn -0.9312989 0.1333675 0.3389626
vn -0.07745939 -0.9817878 0.1734728
vn 0.07745939 0.9817878 -0.1734728
vn -0.3559249 -0.1352992 -0.9246684
vn 0.3559249 0.1352992 0.9246684
vt 0.1600592 0.05914211
vt 0.1558116 0.06815687
vt 0.1540024 0.0673044
vt 0.15825 0.05828964
vt 0.1639671 0.05155066
vt 0.157844 0.06414126
vt 0.1560454 0.06326657
vt 0.1621685 0.05067597
vt 0.1650272 0.06725602
vt 0.1600749 0.07323629
vt 0.1585345 0.0719607
vt 0.1634868 0.06598042
vt 0.1433472 0.1070906
vt 0.1293214 0.1169324
vt 0.1281727 0.1152953
vt 0.1421984 0.1054534
vt -0.07799987 0.158841
vt -0.08374505 0.1536179
vt -0.08239967 0.152138
vt -0.07665449 0.1573612
vt -0.1420046 0.09645665
vt -0.1494673 0.08128895
vt -0.1476727 0.08040601
vt -0.1402101 0.09557371
vt -0.1538957 0.07222397
vt -0.1572124 0.06520342
vt -0.155404 0.0643491
vt -0.1520873 0.07136965
vt -0.1571904 0.07268539
vt -0.1638729 0.06342548
vt -0.1622511 0.06225511
vt -0.1555686 0.07151502
vt -0.1600749 0.07323627
vt -0.1650272 0.067256
vt -0.1634868 0.0659804
vt -0.1585345 0.07196067
vt -0.07899433 0.1588938
vt -0.08664614 0.1575753
vt -0.08630653 0.1556043
vt -0.07865472 0.1569228
vt -0.06530184 0.1671293
vt -0.07318673 0.1667602
vt -0.07309321 0.1647624
vt -0.06520832 0.1651315
vt 0.1164801 0.128567
vt 0.1106362 0.1365166
vt 0.1090248 0.135332
vt 0.1148686 0.1273824
vt -0.06480296 -0.02367484
vt -0.05691135 -0.02350085
vt -0.04917238 -0.02287087
vt -0.04278522 -0.01845581
vt -0.03413168 -0.01100482
vt -0.03476166 -0.003265851
vt -0.03966312 0.01291208
vt -0.04668026 0.01623599
vt -0.06285226 0.01057463
vt -0.06923941 0.006159567
vt -0.0727405 -0.007396166
vt -0.07237959 -0.01735496
vt 0.0723796 -0.01735495
vt 0.07274051 -0.007396162
vt 0.06923942 0.006159571
vt 0.06285226 0.01057464
vt 0.04668026 0.01623599
vt 0.03966313 0.01291209
vt 0.03476166 -0.003265847
vt 0.03413168 -0.01100482
vt 0.04278523 -0.01845581
vt 0.04917238 -0.02287087
vt 0.05691136 -0.02350085
vt 0.06480297 -0.02367484
vt -0.05754317 0.1681525
vt -0.05572646 0.1689889
vt -0.0632542 0.1853393
vt -0.0650709 0.1845028
vt 0.05754317 0.1681525
vt 0.0650709 0.1845028
vt 0.06325419 0.1853393
vt 0.05572646 0.1689889
vt 0.02119154 -0.01059525
vt 0.02166852 -0.01253754
vt 0.02361081 -0.01206057
vt 0.02313384 -0.01011828
vt -0.02119154 -0.01059525
vt -0.02313383 -0.01011828
vt -0.02361081 -0.01206057
vt -0.02166851 -0.01253754
vt -0.1632233 0.06967156
vt -0.1791053 0.0781428
vt -0.1800466 0.07637813
vt -0.1641646 0.06790688
vt 0.1632234 0.06967156
vt 0.1641646 0.06790689
vt 0.1800466 0.07637813
vt 0.1791053 0.0781428
vt -0.1383704 0.1028787
vt -0.1373569 0.1046028
vt -0.1545985 0.1147382
vt -0.155612 0.1130141
vt 0.1383704 0.1028787
vt 0.155612 0.1130141
vt 0.1545985 0.1147382
vt 0.1373569 0.1046028
vt 0.009135623 0.04844394
vt 0.009532524 0.04648371
vt 0.01149275 0.04688061
vt 0.01109585 0.04884084
vt -0.009135623 0.04844394
vt -0.01109585 0.04884084
vt -0.01149275 0.04688062
vt -0.009532525 0.04648372
vt -0.1648233 0.06560808
vt -0.1846831 0.06797192
vt -0.1849195 0.06598593
vt -0.1650597 0.06362209
vt 0.1648233 0.06560808
vt 0.1650597 0.06362209
vt 0.1849195 0.06598593
vt 0.1846831 0.06797192
vt 0.05026484 0.167571
vt 0.05224327 0.167864
vt 0.0494601 0.1866591
vt 0.04748168 0.1863661
vt -0.05026484 0.167571
vt -0.04748167 0.1863661
vt -0.0494601 0.1866591
vt -0.05224327 0.167864
vt 0.0761761 -0.01663293
vt 0.07636464 -0.01862402
vt 0.07835574 -0.01843548
vt 0.0781672 -0.01644439
vt -0.0761761 -0.01663293
vt -0.07816719 -0.01644439
vt -0.07835574 -0.01843548
vt -0.07636464 -0.01862402
vt -0.146238 0.06533582
vt -0.1622451 0.07557181
vt -0.1633225 0.07388686
vt -0.1473155 0.06365086
vt 0.146238 0.06533582
vt 0.1473155 0.06365086
vt 0.1633225 0.07388686
vt 0.1622451 0.07557181
o group1834761066
g mesh1834761066
usemtl mat21
f 4/4/1 3/3/1 2/2/1 1/1/1
f 3/8/2 6/7/2 5/6/2 2/5/2
f 6/12/3 8/11/3 7/10/3 5/9/3
f 8/16/4 10/15/4 9/14/4 7/13/4
f 10/20/5 12/19/5 11/18/5 9/17/5
f 12/24/6 14/23/6 13/22/6 11/21/6
f 14/28/7 16/27/7 15/26/7 13/25/7
f 16/32/8 18/31/8 17/30/8 15/29/8
f 18/36/9 20/35/9 19/34/9 17/33/9
f 20/40/10 22/39/10 21/38/10 19/37/10
f 22/44/11 24/43/11 23/42/11 21/41/11
f 24/48/12 4/47/12 1/46/12 23/45/12
f 1/60/13 2/59/13 5/58/13 7/57/13 9/56/13 11/55/13 13/54/13 15/53/13 17/52/13 19/51/13 21/50/13 23/49/13
f 24/72/14 22/71/14 20/70/14 18/69/14 16/68/14 14/67/14 12/66/14 10/65/14 8/64/14 6/63/14 3/62/14 4/61/14
o group1649548467
g mesh1649548467
usemtl mat21
f 28/76/15 27/75/15 26/74/15 25/73/15
f 32/80/16 31/79/16 30/78/16 29/77/16
f 26/84/17 32/83/17 29/82/17 25/81/17
f 30/88/18 31/87/18 27/86/18 28/85/18
f 29/92/19 30/91/19 28/90/19 25/89/19
f 27/96/20 31/95/20 32/94/20 26/93/20
o group1718343960
g mesh1718343960
usemtl mat21
f 36/100/21 35/99/21 34/98/21 33/97/21
f 40/104/22 39/103/22 38/102/22 37/101/22
f 34/108/23 40/107/23 37/106/23 33/105/23
f 38/112/24 39/111/24 35/110/24 36/109/24
f 37/116/25 38/115/25 36/114/25 33/113/25
f 35/120/26 39/119/26 40/118/26 34/117/26
o group1560400653
g mesh1560400653
usemtl mat21
f 44/124/27 43/123/27 42/122/27 41/121/27
f 48/128/28 47/127/28 46/126/28 45/125/28
f 42/132/29 48/131/29 45/130/29 41/129/29
f 46/136/30 47/135/30 43/134/30 44/133/30
f 45/140/31 46/139/31 44/138/31 41/137/31
f 43/144/32 47/143/32 48/142/32 42/141/32
