mtllib materials.mtl
v 0.02171168 -0.09635568 -0.01499999
v 0.0617117 0.09364426 -0.01499999
v -0.03828833 0.09364426 -0.01499999
v -0.05855855 -0.08797729 -0.01500005
v 0.02171168 -0.09635568 0.01499999
v -0.05855855 -0.08797729 0.01499993
v -0.02828836 0.09364426 0.01500005
v 0.0617117 0.09364426 0.01500005
v -0.05855855 -0.08797729 -0.01500005
v -0.02828836 0.09364426 -0.01499993
v -0.03828833 0.09364426 -0.01499999
v -0.06828833 -0.08635569 -0.0150001
v -0.05701733 -0.08822072 0.01499993
v -0.06828833 -0.08635569 0.01499987
v -0.03828835 0.09364426 0.01499999
v -0.02828836 0.09364426 0.01500005
v 0.03171191 -0.09635592 -0.01499993
v 0.07171187 0.09364414 -0.01499987
v 0.06171188 0.09364414 -0.01499993
v 0.02171171 -0.0963558 -0.01499993
v 0.03171191 -0.09635592 0.01500016
v 0.02171171 -0.0963558 0.01500005
v 0.06171182 0.09364414 0.01500005
v 0.07171181 0.09364414 0.0150001
vn 2.816917E-07 2.401277E-07 -1
vn -2.972415E-07 -3.909001E-07 1
vn 0.9785498 -0.2060106 1.677514E-07
vn -0.9938296 0.1109183 4.517013E-08
vn -0.1038134 -0.9945968 -2.928668E-07
vn -1.173466E-07 1 2.216545E-07
vn -0.9370431 0.1561733 0.3123462
vn -4.801492E-08 1 7.119433E-08
vn 6.034608E-06 -3.449E-07 -1
vn -5.529541E-06 2.457962E-07 1
vn 0.9877517 -0.1560338 -1.195698E-09
vn -0.9863939 0.1643989 -4.768821E-07
vn -0.1632515 -0.9865845 8.6802E-08
vn 2.049166E-08 1 -3.577593E-08
vn 0.9850627 -0.1641767 -0.05193902
vn -0.1643964 -0.9863943 0.0004419409
vn 1.820671E-06 -2.795902E-07 -1
vn -9.317744E-06 2.083399E-06 1
vn 0.9785499 -0.2060101 4.195381E-07
vn -0.9785497 0.2060113 -9.375664E-07
vn -1.180149E-05 -1 3.129336E-07
vn -1.0971E-06 1 1.951132E-07
vn 0.9785499 -0.2060101 4.65606E-08
vn -1.180149E-05 -1 5.239709E-07
vn -0.9785496 0.2060114 -8.185815E-09
vt -0.1390834 0.1243253
vt -0.1542887 0.1364001
vt -0.1587608 0.1274558
vt -0.1434226 0.1175205
vt 0.1390834 0.1243253
vt 0.1434226 0.1175204
vt 0.1583136 0.1283502
vt 0.1542887 0.1364001
vt 0.009483449 0.2044944
vt 0.01215198 0.2031237
vt 0.02102358 0.2203949
vt 0.01835504 0.2217656
vt -0.02006223 0.2019324
vt -0.02932017 0.2176888
vt -0.02264879 0.2004126
vt -0.06884106 0.05821382
vt -0.07170035 0.05066667
vt -0.06889494 0.04960382
vt -0.06603564 0.05715098
vt 0.06222226 0.07850095
vt 0.05939703 0.07749194
vt 0.06558563 0.06908353
vt 0.05991247 0.2092999
vt 0.05675204 0.2091917
vt 0.05833801 0.1908474
vt 0.059397 0.07749192
vt 0.06242404 0.06901623
vt 0.0655856 0.0690835
vt -0.1434228 0.1175202
vt -0.1583137 0.12835
vt -0.1587609 0.1274556
vt -0.1440029 0.1167224
vt 0.143332 0.1176472
vt 0.1440029 0.1167225
vt 0.1587609 0.1274556
vt 0.1583137 0.12835
vt 0.01723976 0.2016376
vt 0.026107 0.2177738
vt 0.02347783 0.2192185
vt -0.01365231 0.2032377
vt -0.02236149 0.2192735
vt -0.02499777 0.2178418
vt -0.01628859 0.2018059
vt -0.07542579 0.0404259
vt -0.07263525 0.0393246
vt -0.07221586 0.04038727
vt 0.06524925 0.07002522
vt 0.06242403 0.06901621
vt 0.06276037 0.06807447
vt 0.0655856 0.06908348
vt 0.01042321 0.2200585
vt 0.002578137 0.2034007
vt 0.00529644 0.202122
vt -0.07221823 0.04015812
vt -0.07506604 0.04111431
vt -0.07542817 0.04019678
vt -0.1386362 0.1252197
vt -0.1538415 0.1372945
vt -0.1542887 0.1364001
vt -0.1390835 0.1243253
vt 0.1386364 0.1252195
vt 0.1390837 0.124325
vt 0.1542889 0.1363998
vt 0.1538417 0.1372943
vt 0.01224622 0.2033069
vt 0.02111783 0.2205781
vt 0.01844929 0.2219489
vt -0.01835515 0.2217656
vt -0.02102368 0.2203949
vt -0.01215208 0.2031237
vt -0.0635681 0.07473204
vt -0.06074288 0.07372303
vt -0.06040652 0.07466478
vt 0.06188584 0.07944288
vt 0.05906063 0.07843386
vt 0.05939696 0.07749213
vt 0.06222219 0.07850114
vt 0.01844922 0.2219489
vt 0.009577612 0.2046777
vt 0.01224616 0.2033069
vt -0.06040649 0.07466476
vt -0.06323173 0.07567377
vt -0.06356807 0.07473202
vt -0.01215188 0.2031237
vt -0.009483341 0.2044944
vt -0.01835493 0.2217656
o group826053089
g mesh826053089
usemtl mat23
f 4/4/1 3/3/1 2/2/1 1/1/1
f 8/8/2 7/7/2 6/6/2 5/5/2
f 2/12/3 8/11/3 5/10/3 1/9/3
f 6/15/4 3/14/4 4/13/4
f 5/19/5 6/18/5 4/17/5 1/16/5
f 3/22/6 8/21/6 2/20/6
f 6/25/7 7/24/7 3/23/7
f 3/28/8 7/27/8 8/26/8
o group67601880
g mesh67601880
usemtl mat23
f 12/32/9 11/31/9 10/30/9 9/29/9
f 16/36/10 15/35/10 14/34/10 13/33/10
f 10/39/11 16/38/11 13/37/11
f 14/43/12 15/42/12 11/41/12 12/40/12
f 13/46/13 14/45/13 12/44/13
f 11/50/14 15/49/14 16/48/14 10/47/14
f 13/53/15 9/52/15 10/51/15
f 12/56/16 9/55/16 13/54/16
o group1478953549
g mesh1478953549
usemtl mat23
f 20/60/17 19/59/17 18/58/17 17/57/17
f 24/64/18 23/63/18 22/62/18 21/61/18
f 18/67/19 24/66/19 21/65/19
f 22/70/20 23/69/20 19/68/20
f 21/73/21 22/72/21 20/71/21
f 19/77/22 23/76/22 24/75/22 18/74/22
f 21/80/23 17/79/23 18/78/23
f 20/83/24 17/82/24 21/81/24
f 19/86/25 20/85/25 22/84/25
