mtllib materials.mtl
v 0.04588425 -0.02464092 0.03067252
v -0.00596267 -0.01319098 0.008794844
v -0.006191432 -0.007663369 0.0134178
v -0.003523052 -0.01611304 0.002671957
v 0.0004738569 -0.01564634 -0.003310248
v 0.004956961 -0.01191592 -0.007548824
v 0.008725107 -0.005921602 -0.008908063
v 0.01076865 0.0007307529 -0.007023767
v 0.01053989 0.006258488 -0.002400801
v 0.008100271 0.009180427 0.003722087
v 0.004103363 0.008713722 0.009704277
v -0.0003797412 0.004983425 0.01394285
v -0.004147947 -0.001011014 0.01530211
v 0.008154571 0.05656397 -0.002256319
v -0.009384453 0.004225492 0.01358363
v -0.01364613 0.004390955 0.007770702
v -0.002845526 0.003416777 0.01651071
v 0.004218578 0.002181292 0.01576762
v 0.009914935 0.0008502007 0.01155348
v 0.01271731 -0.0002198219 0.004997477
v 0.01187479 -0.0007420778 -0.002143741
v 0.007613063 -0.0005766153 -0.007956669
v 0.001074135 0.0002322197 -0.01088375
v -0.005989909 0.001467705 -0.01014066
v -0.01168627 0.002798676 -0.00592652
v -0.01448864 0.003868699 0.0006294847
v 0.000543654 -0.03155589 -0.04900695
v -0.004727244 -0.01525962 0.005806223
v 0.002453029 -0.0157913 0.006180599
v -0.01062191 -0.01168156 0.003701463
v -0.01365143 -0.006015778 0.000430271
v -0.01300406 0.0002194643 -0.003130838
v -0.008853257 0.00535357 -0.006027654
v -0.002311289 0.008010864 -0.007483989
v 0.004869044 0.007479191 -0.007109612
v 0.0107637 0.003901124 -0.005004838
v 0.01379317 -0.001764655 -0.001733646
v 0.01314586 -0.008000016 0.001827449
v 0.008995056 -0.01313412 0.004724264
v -0.04491806 -0.02779019 0.02560951
v 0.006855011 -0.01068926 0.007583246
v 0.004932821 -0.01321387 0.001109347
v 0.006444693 -0.005600572 0.01267408
v 0.003811896 0.0006886721 0.01501776
v -0.0003380179 0.00649333 0.01398633
v -0.004893064 0.01025796 0.009856135
v -0.00863266 0.01097393 0.003733858
v -0.01055485 0.008449435 -0.002740026
v -0.01014453 0.003360748 -0.007830858
v -0.007511735 -0.002928495 -0.01017456
v -0.003361821 -0.008733153 -0.009143114
v 0.001193225 -0.0124979 -0.005012915
vn -0.4207654 -0.5921652 0.6872387
vn -0.3243657 -0.8974243 0.299026
vn -0.09183478 -0.9861246 -0.1382916
vn 0.2145211 -0.8344991 -0.5075354
vn 0.5126139 -0.4831753 -0.7097666
vn 0.72257 -0.02629038 -0.6907977
vn 0.7881318 0.4137339 -0.4557111
vn 0.6917322 0.7189927 -0.06749868
vn 0.4592013 0.8076931 0.3698189
vn 0.1528454 0.6560674 0.7390627
vn -0.1452473 0.3047438 0.941294
vn -0.3552036 -0.1521413 0.922325
vn -0.7825154 0.3800713 -0.4931689
vn -0.7299373 0.4100991 0.5468184
vn -0.3397456 0.3749025 0.8625665
vn 0.1516865 0.3010499 0.941467
vn 0.6126806 0.20833 0.7623787
vn 0.9197134 0.1215871 0.3732879
vn 0.9905159 0.06406382 -0.1215487
vn 0.8061163 0.05117352 -0.5895403
vn 0.415925 0.08637014 -0.9052882
vn -0.07550717 0.1602228 -0.9841887
vn -0.5365013 0.2529427 -0.8051003
vn -0.8435341 0.3396856 -0.4160095
vn -0.9143366 0.3972089 0.07882734
vn -0.1622671 -0.9825419 0.09099984
vn -0.08528975 -0.957252 0.2763952
vn -0.5576453 -0.8087804 0.1868317
vn -0.8800464 -0.4748303 -0.007384405
vn -0.9661062 -0.04488328 -0.2542131
vn -0.792765 0.3658567 -0.4875168
vn -0.4064692 0.6473323 -0.644782
vn 0.08927362 0.724122 -0.6838695
vn 0.5616288 0.5756505 -0.5943061
vn 0.8840299 0.2417004 -0.40009
vn 0.9700898 -0.1882467 -0.1532614
vn 0.7967486 -0.5989867 0.08004229
vn 0.4104525 -0.8804623 0.2373076
vn -0.008485121 0.4965826 0.8679481
vn 0.3780582 -0.8949943 0.2367642
vn 0.4326778 -0.6199521 0.6545604
vn 0.3227395 -0.2089041 0.9231459
vn 0.07770126 0.22801 0.9705535
vn -0.2367793 0.5737193 0.7840802
vn -0.5364373 0.7355912 0.4136916
vn -0.7409796 0.6702522 -0.04136742
vn -0.7955992 0.3952102 -0.4591633
vn -0.6856609 -0.01583787 -0.7277488
vn -0.4406226 -0.452752 -0.7751563
vn -0.1261421 -0.7984613 -0.5886832
vn 0.173516 -0.9603332 -0.2182943
vn 0.7730469 0.4787155 -0.416209
vt 0.1357444 -0.06933872
vt 0.1364359 -0.07503962
vt 0.1371447 -0.07490806
vt 0.03340974 -0.1191152
vt 0.02987287 -0.1236394
vt 0.03046763 -0.1240469
vt -0.03650958 -0.07454635
vt -0.0415481 -0.07730164
vt -0.04116317 -0.07791124
vt -0.0714619 -0.007448181
vt -0.07692103 -0.009230405
vt -0.07665469 -0.009900377
vt -0.09427243 0.05239861
vt -0.09986573 0.05109728
vt -0.09965859 0.05040672
vt -0.1167148 0.08412997
vt -0.1223044 0.08281268
vt -0.1220953 0.0821227
vt -0.1581585 -0.001921534
vt -0.1620824 -0.006114513
vt -0.1615261 -0.006573129
vt 0.07394225 -0.1300484
vt 0.07916324 -0.13244
vt 0.07942176 -0.1317669
vt 0.1076574 -0.07597078
vt 0.1130702 -0.07788904
vt 0.1132679 -0.0771957
vt 0.1253511 -0.02261088
vt 0.1306521 -0.0248196
vt 0.1308871 -0.024138
vt 0.1417617 0.01498981
vt 0.1467155 0.01208486
vt 0.1470404 0.01272845
vt 0.1568274 0.009583753
vt 0.1607577 0.005396747
vt 0.1612514 0.005922207
vt -0.1183876 0.03155863
vt -0.1176711 0.03147808
vt -0.1170104 0.03176653
vt -0.1165824 0.03234671
vt -0.1165018 0.03306317
vt -0.1167903 0.03372391
vt -0.1173704 0.03415192
vt -0.1180869 0.03423247
vt -0.1187477 0.03394402
vt -0.1191757 0.03336383
vt -0.1192562 0.03264739
vt -0.1189678 0.03198663
vt 0.06843249 0.09048505
vt 0.06628649 0.08515842
vt 0.06697082 0.08493151
vt 0.134316 0.03546629
vt 0.1302961 0.03136528
vt 0.1308416 0.0308939
vt 0.1603395 -0.0022864
vt 0.1555723 -0.005488286
vt 0.1560111 -0.006060376
vt 0.166781 -0.002192467
vt 0.1617991 -0.005048987
vt 0.1621963 -0.005650687
vt 0.1551599 0.04169948
vt 0.1504271 0.03844698
vt 0.1508719 0.0378796
vt 0.07633571 0.1331878
vt 0.07366528 0.1281038
vt 0.07432335 0.1278093
vt -0.1125261 0.1076834
vt -0.1097318 0.1026664
vt -0.1091252 0.1030561
vt -0.1626807 0.02188702
vt -0.1582693 0.01821036
vt -0.1578434 0.01879208
vt -0.1657934 -0.009027417
vt -0.1612224 -0.01250363
vt -0.1608228 -0.01190349
vt -0.1528949 0.003358976
vt -0.1486709 -0.0005314911
vt -0.1482167 2.843612E-05
vt -0.1175067 0.04973175
vt -0.1143023 0.04496629
vt -0.1137304 0.04540536
vt -0.03833725 0.1000921
vt -0.03742196 0.09442278
vt -0.03671883 0.09458215
vt -0.005952923 -0.1017682
vt -0.005266605 -0.1015474
vt -0.004782646 -0.101013
vt -0.004630724 -0.1003082
vt -0.004851548 -0.09962188
vt -0.005385944 -0.09913792
vt -0.006090724 -0.098986
vt -0.006777043 -0.09920683
vt -0.007261002 -0.09974123
vt -0.007412923 -0.100446
vt -0.007192099 -0.1011323
vt -0.006657702 -0.1016163
vt 0.02795385 -0.09377627
vt 0.03343172 -0.09550004
vt 0.03360453 -0.09480008
vt -0.02087591 -0.141275
vt -0.01636139 -0.1448243
vt -0.01595225 -0.1442307
vt -0.1573049 -0.02359146
vt -0.1597447 -0.02879012
vt -0.159074 -0.02905484
vt -0.1302029 0.06545734
vt -0.1356368 0.0635997
vt -0.1353612 0.06293348
vt -0.1128538 0.03541372
vt -0.1185673 0.03483638
vt -0.11845 0.03412503
vt -0.1071937 -0.0212928
vt -0.1129336 -0.02111255
vt -0.1129109 -0.02183316
vt -0.1094012 -0.07363757
vt -0.1150666 -0.0726983
vt -0.1151396 -0.07341556
vt -0.1290149 -0.08676862
vt -0.134211 -0.08432353
vt -0.1344764 -0.08499387
vt -0.07585341 0.1351951
vt -0.07240348 0.139786
vt -0.0730059 0.1401821
vt 0.03089538 0.1195999
vt 0.03657169 0.1204704
vt 0.03641788 0.1211748
vt 0.04334809 0.05500371
vt 0.04908901 0.05486176
vt 0.04906155 0.05558221
vt 0.04149561 -0.02154072
vt 0.04717518 -0.02238982
vt 0.0472368 -0.02167149
vt 0.137507 -0.002474117
vt 0.1379369 -0.003052879
vt 0.1385986 -0.00333915
vt 0.1393148 -0.003256216
vt 0.1398936 -0.002826305
vt 0.1401798 -0.002164603
vt 0.1400969 -0.00144842
vt 0.139667 -0.0008696527
vt 0.1390053 -0.000583382
vt 0.1382891 -0.0006663211
vt 0.1377103 -0.001096233
vt 0.1374241 -0.001757934
vt 0.04612127 -0.03280548
vt 0.04588379 -0.02706771
vt 0.04516672 -0.02714268
vt 0.1159661 -0.02318691
vt 0.1161114 -0.01744607
vt 0.115391 -0.01747311
vt 0.1562328 -0.01647016
vt 0.1568143 -0.010757
vt 0.1560939 -0.01072916
vt 0.156598 -0.007177964
vt 0.1575573 -0.001515966
vt 0.1568403 -0.001440394
vt 0.1168927 0.009536521
vt 0.1180766 0.01515584
vt 0.1173632 0.0152599
vt 0.04631933 0.0296315
vt 0.04751648 0.035248
vt 0.04680331 0.03535374
vt -0.03826427 0.04046875
vt -0.03727927 0.04612633
vt -0.03799591 0.04620516
vt -0.113872 0.03073758
vt -0.1132816 0.03644982
vt -0.114002 0.03647879
vt -0.1569922 0.002552985
vt -0.1568691 0.008294345
vt -0.1575894 0.008264525
vt -0.1543611 -0.02783237
vt -0.1546343 -0.02209619
vt -0.1553508 -0.02217562
vt -0.1089841 -0.04418046
vt -0.1094696 -0.03845833
vt -0.1101827 -0.03856426
vt -0.03564281 -0.04306702
vt -0.03611135 -0.03734348
vt -0.0368248 -0.03744729
vt -0.1391577 -0.08047766
vt -0.1396695 -0.07996985
vt -0.1403666 -0.07978597
vt -0.1410623 -0.07997529
vt -0.1415701 -0.08048708
vt -0.1417539 -0.0811842
vt -0.1415646 -0.08187987
vt -0.1410528 -0.08238768
vt -0.1403557 -0.08257156
vt -0.13966 -0.08238225
vt -0.1391522 -0.08187045
vt -0.1389684 -0.08117332
o group1081144923
g mesh1081144923
usemtl mat10
f 3/3/1 2/2/1 1/1/1
f 2/6/2 4/5/2 1/4/2
f 4/9/3 5/8/3 1/7/3
f 5/12/4 6/11/4 1/10/4
f 6/15/5 7/14/5 1/13/5
f 7/18/6 8/17/6 1/16/6
f 8/21/7 9/20/7 1/19/7
f 9/24/8 10/23/8 1/22/8
f 10/27/9 11/26/9 1/25/9
f 11/30/10 12/29/10 1/28/10
f 12/33/11 13/32/11 1/31/11
f 13/36/12 3/35/12 1/34/12
f 13/48/13 12/47/13 11/46/13 10/45/13 9/44/13 8/43/13 7/42/13 6/41/13 5/40/13 4/39/13 2/38/13 3/37/13
o group1705459477
g mesh1705459477
usemtl mat10
f 16/51/14 15/50/14 14/49/14
f 15/54/15 17/53/15 14/52/15
f 17/57/16 18/56/16 14/55/16
f 18/60/17 19/59/17 14/58/17
f 19/63/18 20/62/18 14/61/18
f 20/66/19 21/65/19 14/64/19
f 21/69/20 22/68/20 14/67/20
f 22/72/21 23/71/21 14/70/21
f 23/75/22 24/74/22 14/73/22
f 24/78/23 25/77/23 14/76/23
f 25/81/24 26/80/24 14/79/24
f 26/84/25 16/83/25 14/82/25
f 26/96/26 25/95/26 24/94/26 23/93/26 22/92/26 21/91/26 20/90/26 19/89/26 18/88/26 17/87/26 15/86/26 16/85/26
o group449936979
g mesh449936979
usemtl mat10
f 29/99/27 28/98/27 27/97/27
f 28/102/28 30/101/28 27/100/28
f 30/105/29 31/104/29 27/103/29
f 31/108/30 32/107/30 27/106/30
f 32/111/31 33/110/31 27/109/31
f 33/114/32 34/113/32 27/112/32
f 34/117/33 35/116/33 27/115/33
f 35/120/34 36/119/34 27/118/34
f 36/123/35 37/122/35 27/121/35
f 37/126/36 38/125/36 27/124/36
f 38/129/37 39/128/37 27/127/37
f 39/132/38 29/131/38 27/130/38
f 39/144/39 38/143/39 37/142/39 36/141/39 35/140/39 34/139/39 33/138/39 32/137/39 31/136/39 30/135/39 28/134/39 29/133/39
o group1596653131
g mesh1596653131
usemtl mat10
f 42/147/40 41/146/40 40/145/40
f 41/150/41 43/149/41 40/148/41
f 43/153/42 44/152/42 40/151/42
f 44/156/43 45/155/43 40/154/43
f 45/159/44 46/158/44 40/157/44
f 46/162/45 47/161/45 40/160/45
f 47/165/46 48/164/46 40/163/46
f 48/168/47 49/167/47 40/166/47
f 49/171/48 50/170/48 40/169/48
f 50/174/49 51/173/49 40/172/49
f 51/177/50 52/176/50 40/175/50
f 52/180/51 42/179/51 40/178/51
f 52/192/52 51/191/52 50/190/52 49/189/52 48/188/52 47/187/52 46/186/52 45/185/52 44/184/52 43/183/52 41/182/52 42/181/52
