mtllib materials.mtl
v 0.07169285 -0.001463175 0.00401032
v -0.04411572 0.02314878 -0.09142351
v -0.04444116 0.01037097 -0.09344649
v -0.04717273 0.03343081 -0.08418471
v -0.05279303 0.0384624 -0.07366979
v -0.05947065 0.03689504 -0.06269616
v -0.0654164 0.02914906 -0.05420423
v -0.06903708 0.01729941 -0.05046934
v -0.06936252 0.004521847 -0.05249238
v -0.06630552 -0.005760431 -0.05973119
v -0.06068522 -0.01079178 -0.0702461
v -0.05400759 -0.009224653 -0.08121973
v -0.04806185 -0.001478434 -0.08971167
v 0.06107467 -0.002077103 0.001419127
v -0.06478822 -0.06308937 -0.0242914
v -0.05857384 -0.07443821 -0.02452511
v -0.0701822 -0.05340099 -0.01762009
v -0.07331055 -0.04796886 -0.006298661
v -0.07333493 -0.04824865 0.006639242
v -0.0702489 -0.05416524 0.01772696
v -0.0648793 -0.06413352 0.02399349
v -0.05866492 -0.07548237 0.02375984
v -0.05327094 -0.08517075 0.01708847
v -0.05014259 -0.09060287 0.005767107
v -0.05011821 -0.09032309 -0.007170796
v -0.05320424 -0.08440638 -0.01825851
v 0.06573942 0.003789425 0.0006076097
v -0.0529688 0.08044791 -0.01541859
v -0.0579831 0.07028461 -0.02166635
v -0.04991388 0.08640194 -0.004342258
v -0.0496369 0.08655119 0.008594871
v -0.05221206 0.08085585 0.01992625
v -0.05694932 0.07084203 0.02661568
v -0.06257939 0.05919266 0.02687073
v -0.06759369 0.04902959 0.02062297
v -0.07064861 0.04307556 0.009546638
v -0.07092559 0.04292631 -0.003390491
v -0.06835043 0.04862142 -0.01472187
v -0.06361318 0.05863547 -0.0214113
v 0.07122916 0.002880573 -0.0085693
v -0.05475736 0.00116396 0.05738109
v -0.0561133 -0.01100922 0.0532043
v -0.04979324 0.009631395 0.06581485
v -0.0425511 0.0121243 0.07624584
v -0.03497148 0.007974625 0.08587897
v -0.02908528 -0.001705408 0.09213316
v -0.02646971 -0.01432252 0.09333259
v -0.02782559 -0.02649546 0.08915579
v -0.03278971 -0.03496289 0.08072203
v -0.04003185 -0.0374558 0.0702911
v -0.04761147 -0.03330636 0.06065792
v -0.05349773 -0.02362609 0.05440372
vn 0.6455381 0.1033621 -0.7567013
vn 0.5896987 0.5747592 -0.5673687
vn 0.4123145 0.8878067 -0.204441
vn 0.1609156 0.9586233 0.2348354
vn -0.09713598 0.7682341 0.6327568
vn -0.2926955 0.3676535 0.8827006
vn -0.373363 -0.1357832 0.9176944
vn -0.3175236 -0.6071804 0.7283617
vn -0.1401394 -0.9202276 0.3654342
vn 0.1112595 -0.9910442 -0.0738422
vn 0.3693111 -0.800655 -0.4717637
vn 0.5648707 -0.4000743 -0.7217075
vn -0.8562133 0.1019903 -0.5064551
vn 0.1509532 0.1029045 -0.9831703
vn -0.08590652 0.5321531 -0.8422785
vn -0.2597978 0.8406765 -0.4751507
vn -0.3241264 0.9458057 0.01984157
vn -0.2616556 0.8193716 0.5100653
vn -0.08912443 0.4952519 0.8641657
vn 0.1472376 0.06029439 0.9872618
vn 0.3840973 -0.3689544 0.8463699
vn 0.5579885 -0.6774775 0.4792421
vn 0.6223171 -0.7826068 -0.01574999
vn 0.5598463 -0.6561726 -0.5059739
vn 0.3873151 -0.3320529 -0.8600744
vn -0.8771518 -0.4800625 -0.01203524
vn 0.3491015 0.359695 -0.8653021
vn 0.513747 0.6885539 -0.5118179
vn 0.5817319 0.8130873 -0.02184115
vn 0.5348395 0.6999264 0.473339
vn 0.3856346 0.3793927 0.8410394
vn 0.1740966 -0.06262717 0.9827351
vn -0.04309317 -0.5076944 0.8604588
vn -0.2077388 -0.8365533 0.5069745
vn -0.2757236 -0.9610867 0.01699793
vn -0.2288312 -0.8479258 -0.478182
vn -0.07962632 -0.5273921 -0.8458825
vn 0.1319118 -0.08537203 -0.9875783
vn -0.9001476 0.4353519 0.01424681
vn -0.4405743 0.3348628 -0.8329233
vn -0.3116192 0.7560165 -0.5756149
vn -0.06256045 0.979654 -0.1906945
vn 0.2398668 0.9458514 0.2186987
vn 0.5146273 0.6636664 0.542868
vn 0.6880994 0.20871 0.6949527
vn 0.7138013 -0.2971126 0.6342018
vn 0.5848462 -0.7182663 0.3768933
vn 0.3357875 -0.9419036 -0.008027005
vn 0.03336035 -0.9081011 -0.4174201
vn -0.2414003 -0.625916 -0.7415896
vn -0.4148724 -0.1709595 -0.8936743
vn -0.803719 -0.1110455 0.5845551
vt -0.2110208 0.05216955
vt -0.2220712 0.04172265
vt -0.221143 0.04082094
vt -0.1151939 -0.1331427
vt -0.11456 -0.1483364
vt -0.1132705 -0.1482275
vt 0.07530318 -0.10985
vt 0.08610018 -0.1205586
vt 0.08697154 -0.1196019
vt 0.1471924 -0.004895715
vt 0.1597812 -0.01342642
vt 0.1604609 -0.01232521
vt 0.1834892 0.07051097
vt 0.1960183 0.06189295
vt 0.1967057 0.0629894
vt 0.2064925 0.08713226
vt 0.2177493 0.07690809
vt 0.2185779 0.0779022
vt 0.2051847 0.02436731
vt 0.2125666 0.01107226
vt 0.2136702 0.01174802
vt 0.1221858 -0.07920722
vt 0.1207805 -0.09434905
vt 0.122073 -0.09441371
vt -0.01337331 -0.07178335
vt -0.02267064 -0.08381703
vt -0.02161386 -0.08456393
vt -0.09877186 0.01547617
vt -0.1111243 0.00660676
vt -0.1103255 0.005588648
vt -0.1487282 0.0931182
vt -0.1620114 0.0857152
vt -0.1613339 0.08461264
vt -0.1852069 0.1184436
vt -0.1983903 0.1108643
vt -0.1976982 0.1097709
vt -0.1303232 0.1540084
vt -0.1314683 0.1546113
vt -0.1327614 0.1545609
vt -0.1338561 0.1538707
vt -0.1344589 0.1527256
vt -0.1344085 0.1514325
vt -0.1337183 0.1503378
vt -0.1325732 0.149735
vt -0.1312801 0.1497854
vt -0.1301855 0.1504756
vt -0.1295826 0.1516207
vt -0.129633 0.1529138
vt -0.2003481 0.03381201
vt -0.2003331 0.01959055
vt -0.1990404 0.01965079
vt -0.131263 0.0004470974
vt -0.1288885 -0.01357473
vt -0.1276237 -0.01330083
vt -0.02887313 0.01311219
vt -0.02514618 -0.0006122353
vt -0.02391404 -0.000216625
vt 0.07530864 0.05075086
vt 0.07920364 0.03707317
vt 0.08043084 0.03748386
vt 0.1602714 0.07920689
vt 0.1632313 0.06529684
vt 0.1644835 0.06562348
vt 0.2074396 0.08010549
vt 0.2085446 0.06592702
vt 0.2098289 0.06608617
vt 0.2014102 0.06454933
vt 0.2001739 0.0503817
vt 0.2014669 0.05032799
vt 0.1427679 0.06122787
vt 0.1393798 0.0474159
vt 0.1406493 0.04716509
vt 0.05023503 0.08357908
vt 0.04544543 0.07018842
vt 0.0466825 0.06980847
vt -0.05336763 0.1150042
vt -0.05854974 0.1017604
vt -0.05732442 0.1013442
vt -0.1471001 0.1239983
vt -0.1515519 0.1104916
vt -0.1503057 0.1101428
vt -0.2052293 0.09085531
vt -0.2078109 0.07687013
vt -0.2065289 0.07669336
vt -0.2078709 0.06361324
vt -0.2091542 0.06344605
vt -0.2101819 0.06265964
vt -0.2106787 0.06146471
vt -0.2105115 0.06018146
vt -0.2097251 0.05915372
vt -0.2085302 0.0586569
vt -0.2072469 0.05882409
vt -0.2062192 0.05961051
vt -0.2057224 0.06080543
vt -0.2058896 0.06208868
vt -0.206676 0.06311642
vt -0.1818125 -0.02490603
vt -0.1927542 -0.03399055
vt -0.1918831 -0.03494757
vt -0.05850681 -0.1457536
vt -0.06332643 -0.1591335
vt -0.06209023 -0.1595162
vt 0.150822 -0.08646876
vt 0.1578227 -0.09884778
vt 0.158919 -0.09816016
vt 0.2075883 0.03349457
vt 0.2183651 0.02421496
vt 0.219164 0.02523301
vt 0.2103463 0.08021042
vt 0.2216513 0.07158215
vt 0.2223888 0.07264551
vt 0.1920253 0.058685
vt 0.2025877 0.0491621
vt 0.2034096 0.05016168
vt 0.1424702 -0.01586586
vt 0.1505351 -0.02757939
vt 0.1515665 -0.02679778
vt 0.03013459 -0.08930095
vt 0.03217364 -0.1033755
vt 0.03344459 -0.1031319
vt -0.1117053 -0.05944147
vt -0.1175578 -0.07240289
vt -0.1163553 -0.07288123
vt -0.1860994 0.0273676
vt -0.196286 0.01744381
vt -0.1953418 0.01655891
vt -0.2097833 0.07472704
vt -0.221528 0.06670757
vt -0.2207504 0.06567315
vt -0.2095644 0.05789638
vt -0.2215915 0.05030703
vt -0.2208518 0.04924517
vt 0.02077313 0.1867273
vt 0.01977758 0.1875541
vt 0.01850202 0.1877723
vt 0.01728824 0.1873236
vt 0.01646145 0.186328
vt 0.01624319 0.1850525
vt 0.01669196 0.1838387
vt 0.0176875 0.1830119
vt 0.01896305 0.1827936
vt 0.02017684 0.1832424
vt 0.02100364 0.1842379
vt 0.02122189 0.1855135
vt -0.1437282 0.07334047
vt -0.1498908 0.06052356
vt -0.1487002 0.06001643
vt -0.05660402 0.02715237
vt -0.06313936 0.01452148
vt -0.06196413 0.0139797
vt 0.04918919 -0.01762239
vt 0.04366759 -0.03072819
vt 0.04488179 -0.03117585
vt 0.1528451 -0.01505336
vt 0.149911 -0.02896885
vt 0.1511881 -0.02917796
vt 0.20978 0.04647246
vt 0.2104722 0.03226785
vt 0.2117605 0.03238958
vt 0.1915464 0.1100342
vt 0.1952813 0.09631198
vt 0.1965132 0.09670831
vt 0.1209942 0.1235877
vt 0.1262173 0.1103601
vt 0.127398 0.1108897
vt 0.02729378 0.09268071
vt 0.03250653 0.07944904
vt 0.03368773 0.07997767
vt -0.07290989 0.05365632
vt -0.06903997 0.03997152
vt -0.06781203 0.04037996
vt -0.1607863 0.04251812
vt -0.1594421 0.02836032
vt -0.1581607 0.02854112
vt -0.208664 0.06491921
vt -0.2104551 0.05081099
vt -0.2091652 0.05070658
vt -0.199956 0.08656512
vt -0.2044798 0.07308234
vt -0.2032354 0.07272694
vt 0.1996322 0.100443
vt 0.2000564 0.1016656
vt 0.1998124 0.1029365
vt 0.1989657 0.1039151
vt 0.197743 0.1043393
vt 0.1964722 0.1040953
vt 0.1954935 0.1032486
vt 0.1950694 0.1020259
vt 0.1953134 0.1007551
vt 0.1961601 0.09977643
vt 0.1973827 0.09935228
vt 0.1986536 0.09959626
o group991733189
g mesh991733189
usemtl mat23
f 3/3/1 2/2/1 1/1/1
f 2/6/2 4/5/2 1/4/2
f 4/9/3 5/8/3 1/7/3
f 5/12/4 6/11/4 1/10/4
f 6/15/5 7/14/5 1/13/5
f 7/18/6 8/17/6 1/16/6
f 8/21/7 9/20/7 1/19/7
f 9/24/8 10/23/8 1/22/8
f 10/27/9 11/26/9 1/25/9
f 11/30/10 12/29/10 1/28/10
f 12/33/11 13/32/11 1/31/11
f 13/36/12 3/35/12 1/34/12
f 13/48/13 12/47/13 11/46/13 10/45/13 9/44/13 8/43/13 7/42/13 6/41/13 5/40/13 4/39/13 2/38/13 3/37/13
o group1207380142
g mesh1207380142
usemtl mat23
f 16/51/14 15/50/14 14/49/14
f 15/54/15 17/53/15 14/52/15
f 17/57/16 18/56/16 14/55/16
f 18/60/17 19/59/17 14/58/17
f 19/63/18 20/62/18 14/61/18
f 20/66/19 21/65/19 14/64/19
f 21/69/20 22/68/20 14/67/20
f 22/72/21 23/71/21 14/70/21
f 23/75/22 24/74/22 14/73/22
f 24/78/23 25/77/23 14/76/23
f 25/81/24 26/80/24 14/79/24
f 26/84/25 16/83/25 14/82/25
f 26/96/26 25/95/26 24/94/26 23/93/26 22/92/26 21/91/26 20/90/26 19/89/26 18/88/26 17/87/26 15/86/26 16/85/26
o group468475709
g mesh468475709
usemtl mat23
f 29/99/27 28/98/27 27/97/27
f 28/102/28 30/101/28 27/100/28
f 30/105/29 31/104/29 27/103/29
f 31/108/30 32/107/30 27/106/30
f 32/111/31 33/110/31 27/109/31
f 33/114/32 34/113/32 27/112/32
f 34/117/33 35/116/33 27/115/33
f 35/120/34 36/119/34 27/118/34
f 36/123/35 37/122/35 27/121/35
f 37/126/36 38/125/36 27/124/36
f 38/129/37 39/128/37 27/127/37
f 39/132/38 29/131/38 27/130/38
f 39/144/39 38/143/39 37/142/39 36/141/39 35/140/39 34/139/39 33/138/39 32/137/39 31/136/39 30/135/39 28/134/39 29/133/39
o group205876905
g mesh205876905
usemtl mat23
f 42/147/40 41/146/40 40/145/40
f 41/150/41 43/149/41 40/148/41
f 43/153/42 44/152/42 40/151/42
f 44/156/43 45/155/43 40/154/43
f 45/159/44 46/158/44 40/157/44
f 46/162/45 47/161/45 40/160/45
f 47/165/46 48/164/46 40/163/46
f 48/168/47 49/167/47 40/166/47
f 49/171/48 50/170/48 40/169/48
f 50/174/49 51/173/49 40/172/49
f 51/177/50 52/176/50 40/175/50
f 52/180/51 42/179/51 40/178/51
f 52/192/52 51/191/52 50/190/52 49/189/52 48/188/52 47/187/52 46/186/52 45/185/52 44/184/52 43/183/52 41/182/52 42/181/52
