mtllib materials.mtl
v 0.03231537 -0.00201869 0.003763795
v -0.02723026 -0.009445667 0.01372147
v -0.02605021 -0.01387227 0.01613122
v -0.02764058 -0.004285812 0.0137713
v -0.02717102 0.0002247095 0.0162673
v -0.02594757 0.002877235 0.02054071
v -0.02429795 0.00296104 0.02544653
v -0.02266419 0.0004537106 0.02967012
v -0.02148414 -0.003973007 0.03207988
v -0.02107382 -0.009132862 0.03203011
v -0.02154338 -0.01364338 0.0295341
v -0.02276683 -0.01629579 0.02526063
v -0.02441645 -0.01637971 0.02035487
v 0.03293687 -0.00050807 0.005629063
v -0.01258564 -0.01840115 -0.03053075
v -0.01323199 -0.02243423 -0.0273509
v -0.01336241 -0.01340795 -0.03165323
v -0.01535404 -0.008792639 -0.0304175
v -0.01802683 -0.005791783 -0.02715474
v -0.02066481 -0.005209446 -0.02273923
v -0.02256095 -0.007201791 -0.018354
v -0.02320731 -0.01123488 -0.01517409
v -0.02243054 -0.01622808 -0.01405162
v -0.02043891 -0.02084339 -0.01528734
v -0.01776612 -0.02384424 -0.0185501
v -0.01512814 -0.02442658 -0.02296567
v 0.02251929 0.003681779 -0.0008285046
v -0.03281593 0.02467489 -0.01487482
v -0.03470242 0.02012002 -0.01329708
v -0.03105199 0.02941728 -0.01378244
v -0.02988315 0.03307641 -0.01031262
v -0.02962255 0.03467178 -0.005395114
v -0.03034008 0.03377604 -0.0003476143
v -0.03184342 0.03062904 0.003477514
v -0.03372979 0.02607417 0.005055249
v -0.03549385 0.02133179 0.003962874
v -0.0366627 0.01767266 0.0004930496
v -0.03692329 0.01607728 -0.004424393
v -0.03620577 0.01697302 -0.009471953
vn -0.08322845 -0.4934855 -0.8657627
vn -0.1645044 -0.003558622 -0.98637
vn -0.1614752 0.4906512 -0.8562636
vn -0.07495249 0.8567207 -0.5103056
vn 0.07188001 0.9965623 -0.04119489
vn 0.2396787 0.872705 0.4253706
vn 0.3834819 0.5183364 0.764375
vn 0.4647577 0.02840964 0.884982
vn 0.4617285 -0.4658 0.7548756
vn 0.3752058 -0.8318696 0.4089175
vn 0.2283734 -0.9717111 -0.0601931
vn 0.06057471 -0.8478537 -0.5267587
vn -0.9445425 -0.07817697 0.3189481
vn 0.644452 -0.5344437 -0.546856
vn 0.6377881 -0.0731507 -0.7667302
vn 0.496311 0.4179002 -0.7609434
vn 0.2579295 0.8071322 -0.5310462
vn -0.01348249 0.9902512 -0.1386392
vn -0.2452002 0.9181904 0.3111323
vn -0.3751351 0.6102583 0.6977524
vn -0.3684711 0.1489655 0.9176264
vn -0.2269941 -0.3420852 0.9118396
vn 0.01138751 -0.7313173 0.6819423
vn 0.2827995 -0.9144363 0.2895354
vn 0.5145173 -0.8423754 -0.1602362
vn -0.8472221 -0.2384998 -0.474692
vn 0.09809189 -0.361756 -0.9270979
vn 0.2846485 0.1133877 -0.9519026
vn 0.4345351 0.5427517 -0.7187488
vn 0.50759 0.8112882 -0.2901101
vn 0.4842379 0.8470433 0.2191606
vn 0.3707361 0.6404361 0.6726043
vn 0.1974972 0.2468268 0.948721
vn 0.01094067 -0.2283168 0.9735255
vn -0.138946 -0.6576807 0.7403717
vn -0.2120008 -0.9262173 0.3117329
vn -0.1886487 -0.9619722 -0.1975377
vn -0.07514679 -0.755365 -0.6509815
vn -0.9298698 0.3615458 -0.06802167
vt -0.1670089 -0.02842218
vt -0.1691495 -0.03411583
vt -0.1686577 -0.03427722
vt -0.2210582 -0.01575111
vt -0.2234799 -0.02133104
vt -0.2229967 -0.02151673
vt -0.222897 -0.04186768
vt -0.2250863 -0.04754278
vt -0.2245959 -0.04770838
vt -0.1630716 -0.0963058
vt -0.1644764 -0.1022241
vt -0.1639682 -0.1023221
vt -0.04642903 -0.1340672
vt -0.04661798 -0.140147
vt -0.04610037 -0.1401411
vt 0.08514626 -0.1179582
vt 0.08615454 -0.1239569
vt 0.08666091 -0.1238494
vt 0.1822968 -0.06808139
vt 0.1840484 -0.07390652
vt 0.1845373 -0.0737365
vt 0.2264934 -0.03024395
vt 0.2284253 -0.03601179
vt 0.2289087 -0.03582665
vt 0.2164216 -0.02825135
vt 0.2180098 -0.03412311
vt 0.2185033 -0.03396681
vt 0.153085 -0.05245968
vt 0.153867 -0.05849196
vt 0.1543771 -0.05840364
vt 0.04725505 -0.07021166
vt 0.04693443 -0.07628597
vt 0.04745204 -0.07629123
vt -0.07094401 -0.0578939
vt -0.07233973 -0.06381438
vt -0.0718313 -0.0639116
vt -0.05286513 0.1985796
vt -0.05261902 0.199035
vt -0.05263358 0.1995524
vt -0.0529049 0.1999933
vt -0.05336029 0.2002394
vt -0.05387773 0.2002248
vt -0.05431856 0.1999535
vt -0.05456467 0.1994981
vt -0.05455011 0.1989807
vt -0.05427879 0.1985398
vt -0.0538234 0.1982937
vt -0.05330596 0.1983083
vt -0.03671737 0.08809231
vt -0.04125062 0.08403651
vt -0.04088937 0.08366576
vt -0.143824 0.1161283
vt -0.1472275 0.1110869
vt -0.1467866 0.1108157
vt -0.2289072 -0.002479044
vt -0.2289397 -0.008561721
vt -0.2284225 -0.00854246
vt -0.1695143 -0.1296397
vt -0.1663328 -0.1348241
vt -0.1659036 -0.1345348
vt -0.07647357 -0.1206659
vt -0.0722506 -0.1250439
vt -0.07189368 -0.124669
vt 0.005749957 -0.04556645
vt 0.0100519 -0.04986683
vt 0.01040195 -0.0494855
vt 0.08858012 0.03290767
vt 0.09233184 0.0281197
vt 0.09272534 0.02845602
vt 0.1757176 0.05636173
vt 0.1779828 0.05071648
vt 0.1784545 0.05092952
vt 0.2286736 -0.009386567
vt 0.2282557 -0.01545496
vt 0.2287732 -0.01546851
vt 0.1974379 -0.08145199
vt 0.1944891 -0.0867722
vt 0.1949521 -0.08700364
vt 0.1249337 -0.07038586
vt 0.1207006 -0.07475404
vt 0.1210873 -0.07509813
vt 0.04785625 0.003393801
vt 0.04318524 -0.0005025555
vt 0.04353343 -0.0008855878
vt -0.2269589 -0.03580835
vt -0.2272302 -0.03536751
vt -0.2276856 -0.03512139
vt -0.2282031 -0.03513592
vt -0.2286439 -0.03540723
vt -0.22889 -0.0358626
vt -0.2288755 -0.03638004
vt -0.2286042 -0.03682088
vt -0.2281488 -0.03706701
vt -0.2276314 -0.03705247
vt -0.2271905 -0.03678117
vt -0.2269444 -0.03632579
vt -0.1728643 0.006541727
vt -0.1778591 0.003070244
vt -0.1775459 0.002658135
vt -0.2146308 0.02649597
vt -0.2194005 0.02272105
vt -0.2190623 0.02232919
vt -0.2252893 -0.05231635
vt -0.2285882 -0.05742683
vt -0.2281418 -0.05768881
vt -0.08736568 -0.197227
vt -0.08621962 -0.2032009
vt -0.08571585 -0.2030818
vt 0.08224149 -0.1701576
vt 0.08625086 -0.174732
vt 0.08662526 -0.1743746
vt 0.1616641 -0.08684868
vt 0.1663195 -0.09076373
vt 0.1666355 -0.09035374
vt 0.2052367 -0.02451824
vt 0.2098035 -0.02853631
vt 0.2101286 -0.02813349
vt 0.2285703 -0.01477925
vt 0.2324352 -0.0194764
vt 0.2328205 -0.01913079
vt 0.2113242 -0.07680456
vt 0.2133354 -0.08254521
vt 0.2138162 -0.08235342
vt 0.1076281 -0.1554632
vt 0.1064319 -0.1614271
vt 0.1069433 -0.1615072
vt -0.02549348 -0.1390451
vt -0.0291591 -0.1438994
vt -0.02873311 -0.1441934
vt -0.1150512 -0.06299292
vt -0.1197487 -0.06685731
vt -0.1194032 -0.0672427
vt -0.1440383 0.08947649
vt -0.1441139 0.08998857
vt -0.1444354 0.09039426
vt -0.1449167 0.09058483
vt -0.1454288 0.09050922
vt -0.1458344 0.09018771
vt -0.146025 0.08970641
vt -0.1459494 0.08919434
vt -0.1456279 0.08878865
vt -0.1451466 0.08859809
vt -0.1446345 0.0886737
vt -0.1442288 0.0889952
o group988900758
g mesh988900758
usemtl mat2
f 3/3/1 2/2/1 1/1/1
f 2/6/2 4/5/2 1/4/2
f 4/9/3 5/8/3 1/7/3
f 5/12/4 6/11/4 1/10/4
f 6/15/5 7/14/5 1/13/5
f 7/18/6 8/17/6 1/16/6
f 8/21/7 9/20/7 1/19/7
f 9/24/8 10/23/8 1/22/8
f 10/27/9 11/26/9 1/25/9
f 11/30/10 12/29/10 1/28/10
f 12/33/11 13/32/11 1/31/11
f 13/36/12 3/35/12 1/34/12
f 13/48/13 12/47/13 11/46/13 10/45/13 9/44/13 8/43/13 7/42/13 6/41/13 5/40/13 4/39/13 2/38/13 3/37/13
o group39852534
g mesh39852534
usemtl mat2
f 16/51/14 15/50/14 14/49/14
f 15/54/15 17/53/15 14/52/15
f 17/57/16 18/56/16 14/55/16
f 18/60/17 19/59/17 14/58/17
f 19/63/18 20/62/18 14/61/18
f 20/66/19 21/65/19 14/64/19
f 21/69/20 22/68/20 14/67/20
f 22/72/21 23/71/21 14/70/21
f 23/75/22 24/74/22 14/73/22
f 24/78/23 25/77/23 14/76/23
f 25/81/24 26/80/24 14/79/24
f 26/84/25 16/83/25 14/82/25
f 26/96/26 25/95/26 24/94/26 23/93/26 22/92/26 21/91/26 20/90/26 19/89/26 18/88/26 17/87/26 15/86/26 16/85/26
o group384242299
g mesh384242299
usemtl mat2
f 29/99/27 28/98/27 27/97/27
f 28/102/28 30/101/28 27/100/28
f 30/105/29 31/104/29 27/103/29
f 31/108/30 32/107/30 27/106/30
f 32/111/31 33/110/31 27/109/31
f 33/114/32 34/113/32 27/112/32
f 34/117/33 35/116/33 27/115/33
f 35/120/34 36/119/34 27/118/34
f 36/123/35 37/122/35 27/121/35
f 37/126/36 38/125/36 27/124/36
f 38/129/37 39/128/37 27/127/37
f 39/132/38 29/131/38 27/130/38
f 39/144/39 38/143/39 37/142/39 36/141/39 35/140/39 34/139/39 33/138/39 32/137/39 31/136/39 30/135/39 28/134/39 29/133/39
