mtllib materials.mtl
v -0.2680002 0.01600015 -0.4290002
v 0.5920002 0.01600003 -0.4290003
v 0.5920001 0.06599998 -0.4290001
v -0.268 0.0660001 -0.429
v -0.2680002 0.01600015 0.4310003
v -0.2679999 0.0660001 0.4310001
v 0.5920002 0.06599998 0.4309999
v 0.5920004 0.01600003 0.4310002
v -0.268 0.0660001 -0.4289998
v 0.5420006 0.06599998 -0.429
v 0.5420007 0.1359999 -0.429
v 0.007000424 0.2359999 -0.4289998
v -0.2154998 0.1359999 -0.4289998
v -0.268 0.136 -0.4289998
v -0.268 0.0660001 -0.3789999
v -0.268 0.136 -0.3789999
v -0.2154998 0.1359999 -0.3789999
v 0.007000394 0.2359999 -0.3789999
v 0.5420007 0.1359999 -0.379
v 0.5420008 0.06599998 -0.379
v -0.218 0.0660001 -0.379
v -0.218 0.136 -0.379
v -0.268 0.136 -0.379
v -0.268 0.0660001 -0.379
v -0.218 0.0660001 0.3809999
v -0.268 0.0660001 0.3809999
v -0.268 0.2460001 0.3809999
v -0.218 0.2460001 0.3809999
v -0.218 0.1960001 0.196
v -0.218 0.2460001 0.1084999
v -0.218 0.176 -0.03900003
v -0.218 0.2060001 -0.2039999
v -0.268 0.2060001 -0.2039999
v -0.268 0.176 -0.03900003
v -0.268 0.2460001 0.1084999
v -0.268 0.1960001 0.196
v 0.5420001 0.0660001 0.4310001
v 0.5420001 0.1960001 0.4310001
v 0.592 0.1960001 0.4310001
v 0.592 0.0660001 0.4310001
v 0.5420001 0.0660001 -0.4289998
v 0.592 0.0660001 -0.4289998
v 0.592 0.136 -0.4289998
v 0.5420001 0.136 -0.4289998
v 0.5420001 0.136 -0.3814999
v 0.5420001 0.1860001 -0.184
v 0.5420001 0.126 0.0710001
v 0.5420001 0.1960001 0.3860002
v 0.592 0.1960001 0.3860002
v 0.592 0.126 0.0710001
v 0.592 0.1860001 -0.184
v 0.592 0.136 -0.3814999
v -0.268 0.06599998 0.3809994
v 0.5420006 0.06599975 0.3809993
v 0.5420008 0.1959996 0.3809993
v 0.3832507 0.1334997 0.3809994
v 0.1145008 0.2209998 0.3809994
v -0.09299951 0.1259998 0.3809994
v -0.2154995 0.2459998 0.3809994
v -0.2679998 0.2460001 0.3809994
v -0.268 0.06599998 0.4309994
v -0.2679997 0.2460001 0.4309994
v -0.2154995 0.2459998 0.4309994
v -0.09299956 0.1259998 0.4309995
v 0.1145007 0.2209998 0.4309993
v 0.3832508 0.1334997 0.4309993
v 0.5420008 0.1959996 0.4309993
v 0.5420007 0.06599975 0.4309993
vn -1.365357E-07 3.703532E-06 -1
vn 1.365367E-07 3.546066E-06 1
vn -1.022175E-07 -1 -7.457047E-15
vn 1.605972E-07 1 1.698539E-15
vn -1 4.943221E-06 9.356553E-08
vn 1 3.699465E-06 -1.351503E-07
vn -1.505242E-07 1.756441E-07 -1
vn 1.505242E-07 -1.930694E-07 1
vn -1.46561E-07 -1 -3.79806E-14
vn -1 2.28064E-07 3.086672E-07
vn 1 6.766501E-07 -1.510564E-06
vn 0.1837339 0.982976 6.372453E-08
vn -0.4099384 0.9121132 -9.94918E-08
vn 2.326993E-06 1 -6.557063E-13
vn 0 0 -1
vn -1.404025E-07 0 1
vn 1 -3.920405E-08 3.630005E-09
vn -1 -3.049208E-09 0
vn 0 -1 1.225453E-10
vn -2.846154E-08 0.9284767 -0.3713908
vn -1.168212E-08 0.9034257 -0.4287448
vn 1.328382E-08 0.9838698 0.1788861
vn -2.332911E-09 0.9653634 -0.2609089
vn -1.848233E-08 0.8682435 0.4961384
vn -1.545137E-07 0 1
vn 1.856264E-07 8.514955E-07 -1
vn -1 2.348345E-07 -8.29764E-09
vn 1 2.330712E-07 -8.29764E-09
vn 0 -1 -1.082932E-10
vn 0 1 -9.271811E-08
vn 6.911396E-09 0.9734172 0.2290395
vn 5.615353E-08 0.9761871 -0.2169306
vn 7.310131E-10 0.9694163 -0.2454222
vn 0 1 1.567687E-09
vn -1.312517E-07 1.658796E-07 -1
vn 1.22903E-07 -2.72055E-07 1
vn -3.214066E-07 -1 -1.748456E-07
vn -1 1.519018E-06 2.918156E-07
vn 1 -1.266686E-06 -5.833344E-07
vn -0.4162772 0.9092377 -4.843199E-07
vn 0.69978 0.7143585 2.294628E-07
vn 4.463106E-06 1 -1.231792E-07
vn 0.3095864 0.9508713 4.842191E-08
vn -0.3663317 0.9304844 -2.079651E-07
vt -0.1207473 0.04248493
vt -0.08228695 0.1194057
vt -0.0867591 0.1216418
vt -0.1252194 0.04472101
vt 0.1207478 0.04248549
vt 0.1252199 0.04472158
vt 0.08675946 0.1216423
vt 0.08228733 0.1194062
vt -0.1353418 0.03134653
vt -0.05435195 0.002421583
vt -0.02542701 0.08341145
vt -0.1064169 0.1123364
vt 0.1353418 0.03134653
vt 0.1064168 0.1123364
vt 0.02542704 0.08341143
vt 0.05435196 0.002421611
vt 0.03847891 0.1835548
vt 0.03557272 0.1876235
vt -0.0344086 0.1376373
vt -0.03150245 0.1335686
vt -0.03847753 0.183555
vt 0.03150343 0.1335682
vt 0.03440961 0.1376369
vt -0.0355713 0.1876236
vt -0.1252198 0.04472136
vt -0.08899545 0.11717
vt -0.09525643 0.1203005
vt -0.1281267 0.07692077
vt -0.1291329 0.05254761
vt -0.1314808 0.04785185
vt 0.1252198 0.04472136
vt 0.1314808 0.04785185
vt 0.1291329 0.05254761
vt 0.1281267 0.07692076
vt 0.09525643 0.1203005
vt 0.08899544 0.11717
vt -0.1353417 0.03134654
vt -0.1306331 0.02966485
vt -0.1033898 0.105946
vt -0.1080985 0.1076277
vt 0.03557189 0.1876237
vt 0.03150323 0.1933198
vt 0.02743456 0.1904136
vt 0.03150322 0.1847175
vt -0.03557198 0.1876235
vt -0.03150331 0.1847174
vt -0.02743466 0.1904135
vt -0.03150332 0.1933197
vt 0.1340742 0.03642005
vt 0.1138265 0.08694018
vt 0.1091854 0.08508009
vt 0.1294331 0.03455996
vt 0.1170792 0.08696006
vt 0.1096506 0.1101954
vt 0.1048881 0.1086728
vt 0.1123167 0.08543744
vt 0.1353419 0.0313463
vt 0.1335761 0.03629046
vt 0.1288674 0.03460878
vt 0.1306331 0.02966462
vt -0.1229838 0.0491935
vt -0.1292447 0.05232399
vt -0.1314808 0.04785186
vt -0.1252198 0.04472136
vt 0.1229837 0.04919349
vt 0.1252198 0.04472136
vt 0.1413195 0.0527712
vt 0.1390834 0.05724334
vt -0.03150311 0.1847175
vt 0.03034062 0.1405434
vt 0.0408029 0.1551906
vt 0.02284265 0.1618749
vt 0.01862867 0.1710294
vt 0.002557434 0.1739065
vt -0.009125439 0.1859381
vt -0.02743445 0.1904136
vt 0.03150311 0.1847175
vt 0.02743444 0.1904137
vt 0.009125429 0.1859381
vt -0.002557446 0.1739065
vt -0.01862868 0.1710294
vt -0.02284267 0.1618749
vt -0.04080292 0.1551906
vt -0.03034064 0.1405434
vt -0.1289514 0.03437358
vt -0.1306331 0.02966487
vt -0.05906068 0.004103308
vt -0.057379 0.008812019
vt 0.07269929 -0.0005093829
vt 0.05404867 -0.003230571
vt 0.05477055 -0.008178188
vt 0.07342116 -0.005456999
vt 0.02914933 -0.007908013
vt 0.01291747 -0.009665594
vt 0.01345572 -0.01463654
vt 0.02968759 -0.01287896
vt 0.1323174 0.04630745
vt 0.1169718 0.03954272
vt 0.1189886 0.03496753
vt 0.1343342 0.04173227
vt 0.03657999 -0.003410031
vt 0.01784174 -0.00742598
vt 0.01888954 -0.01231496
vt 0.03762779 -0.008299011
vt 0.1342183 0.06231729
vt 0.1254184 0.05740559
vt 0.1278553 0.05303963
vt 0.1366552 0.05795133
vt 0.08899551 0.11717
vt 0.1006231 0.1229837
vt 0.098387 0.1274559
vt 0.08675944 0.1216421
vt -0.08899543 0.1171699
vt -0.08675937 0.121642
vt -0.09302036 0.1247725
vt -0.09525642 0.1203004
vt -0.03440929 0.1376372
vt 0.0355718 0.1876237
vt 0.03150314 0.1933198
vt 0.02763791 0.190559
vt 0.008660479 0.1831482
vt -0.008602302 0.1634442
vt -0.03830358 0.1508313
vt -0.04196538 0.1482158
vt 0.03440934 0.1376372
vt 0.04196544 0.1482157
vt 0.03830364 0.1508313
vt 0.008602363 0.1634442
vt -0.008660409 0.1831482
vt -0.02763784 0.1905589
vt -0.03150306 0.1933198
vt -0.03557173 0.1876237
vt -0.0271087 0.07870272
vt -0.02542702 0.08341143
vt -0.1064168 0.1123364
vt -0.1080985 0.1076277
vt 0.0271087 0.07870271
vt 0.03134653 0.08021623
vt 0.02966485 0.08492493
vt 0.02542702 0.08341142
vt 0.07917975 0.1082007
vt 0.1029593 0.1191909
vt 0.1008616 0.1237296
vt 0.0770821 0.1127394
vt 0.007864732 0.06873731
vt 0.03924089 0.07627301
vt 0.03807323 0.08113475
vt 0.006697074 0.07359906
vt 0.05871124 0.07972629
vt 0.07859375 0.08417021
vt 0.07750312 0.08904981
vt 0.05762061 0.08460589
vt 0.1036253 0.1060301
vt 0.1080985 0.1076277
vt 0.1064168 0.1123364
vt 0.1019436 0.1107388
vt -0.1252198 0.04472135
vt -0.08899545 0.11717
vt -0.100623 0.1229838
vt -0.1021323 0.1059897
vt -0.1219774 0.08586507
vt -0.1227601 0.06305714
vt -0.1389716 0.05746697
vt -0.1413195 0.05277122
vt 0.1252198 0.04472134
vt 0.1413195 0.05277121
vt 0.1389716 0.05746697
vt 0.1227601 0.06305713
vt 0.1219774 0.08586505
vt 0.1021323 0.1059897
vt 0.100623 0.1229838
vt 0.08899544 0.11717
vt -0.05906077 0.004103296
vt -0.05435206 0.002421615
vt -0.02710879 0.07870279
vt -0.0318175 0.08038445
vt -0.03034031 0.1405435
vt -0.04080258 0.1551907
vt -0.04487125 0.1522845
vt -0.03440898 0.1376373
vt 0.03034036 0.1405435
vt 0.03440903 0.1376373
vt 0.0419651 0.1482159
vt 0.03789643 0.1511221
vt 0.03638915 0.07337209
vt 0.02944113 0.09511004
vt 0.0246785 0.09358778
vt 0.03162651 0.07184982
vt 0.1195525 -0.04056347
vt 0.1075506 -0.02831536
vt 0.1039793 -0.03181483
vt 0.1159813 -0.04406293
vt 0.05906092 0.004102747
vt 0.05729515 0.009046914
vt 0.05258644 0.007365231
vt 0.05435222 0.002421067
vt 0.06203756 0.0009715107
vt 0.05046862 0.02675887
vt 0.04590668 0.02471226
vt 0.05747562 -0.001075109
vt 0.02479661 0.1093336
vt 0.01958658 0.1255797
vt 0.01482542 0.1240528
vt 0.02003545 0.1078067
o group187141473
g mesh187141473
usemtl mat23
f 4/4/1 3/3/1 2/2/1 1/1/1
f 8/8/2 7/7/2 6/6/2 5/5/2
f 2/12/3 8/11/3 5/10/3 1/9/3
f 6/16/4 7/15/4 3/14/4 4/13/4
f 5/20/5 6/19/5 4/18/5 1/17/5
f 3/24/6 7/23/6 8/22/6 2/21/6
o group544844047
g mesh544844047
usemtl mat23
f 14/30/7 13/29/7 12/28/7 11/27/7 10/26/7 9/25/7
f 20/36/8 19/35/8 18/34/8 17/33/8 16/32/8 15/31/8
f 10/40/9 20/39/9 15/38/9 9/37/9
f 15/44/10 16/43/10 14/42/10 9/41/10
f 11/48/11 19/47/11 20/46/11 10/45/11
f 18/52/12 19/51/12 11/50/12 12/49/12
f 17/56/13 18/55/13 12/54/13 13/53/13
f 16/60/14 17/59/14 13/58/14 14/57/14
o group174882730
g mesh174882730
usemtl mat23
f 24/64/15 23/63/15 22/62/15 21/61/15
f 28/68/16 27/67/16 26/66/16 25/65/16
f 22/76/17 32/75/17 31/74/17 30/73/17 29/72/17 28/71/17 25/70/17 21/69/17
f 26/84/18 27/83/18 36/82/18 35/81/18 34/80/18 33/79/18 23/78/18 24/77/18
f 25/88/19 26/87/19 24/86/19 21/85/19
f 23/92/20 33/91/20 32/90/20 22/89/20
f 34/96/21 35/95/21 30/94/21 31/93/21
f 33/100/22 34/99/22 31/98/22 32/97/22
f 36/104/23 27/103/23 28/102/23 29/101/23
f 35/108/24 36/107/24 29/106/24 30/105/24
o group1333120624
g mesh1333120624
usemtl mat23
f 40/112/25 39/111/25 38/110/25 37/109/25
f 44/116/26 43/115/26 42/114/26 41/113/26
f 38/124/27 48/123/27 47/122/27 46/121/27 45/120/27 44/119/27 41/118/27 37/117/27
f 42/132/28 43/131/28 52/130/28 51/129/28 50/128/28 49/127/28 39/126/28 40/125/28
f 41/136/29 42/135/29 40/134/29 37/133/29
f 39/140/30 49/139/30 48/138/30 38/137/30
f 50/144/31 51/143/31 46/142/31 47/141/31
f 49/148/32 50/147/32 47/146/32 48/145/32
f 51/152/33 52/151/33 45/150/33 46/149/33
f 52/156/34 43/155/34 44/154/34 45/153/34
o group1104832615
g mesh1104832615
usemtl mat23
f 60/164/35 59/163/35 58/162/35 57/161/35 56/160/35 55/159/35 54/158/35 53/157/35
f 68/172/36 67/171/36 66/170/36 65/169/36 64/168/36 63/167/36 62/166/36 61/165/36
f 54/176/37 68/175/37 61/174/37 53/173/37
f 61/180/38 62/179/38 60/178/38 53/177/38
f 55/184/39 67/183/39 68/182/39 54/181/39
f 64/188/40 65/187/40 57/186/40 58/185/40
f 63/192/41 64/191/41 58/190/41 59/189/41
f 62/196/42 63/195/42 59/194/42 60/193/42
f 65/200/43 66/199/43 56/198/43 57/197/43
f 66/204/44 67/203/44 55/202/44 56/201/44
