mtllib materials.mtl
v 2.980232E-08 0.09375 -0.09374997
v 0.04687499 0.08118987 -0.09374996
v 0.04687496 0.08118987 0.09374996
v -2.980232E-08 0.09375 0.09374995
v 0.08118986 0.046875 -0.09374995
v 0.08118983 0.046875 0.09374997
v 0.09374997 0 -0.09374994
v 0.09374994 0 0.09374998
v 0.08118986 -0.046875 -0.09374994
v 0.08118983 -0.046875 0.09374998
v 0.046875 -0.08118987 -0.09374994
v 0.04687497 -0.08118987 0.09374998
v 0 -0.09375 -0.09374995
v -2.980232E-08 -0.09375 0.09374997
v -0.04687497 -0.08118987 -0.09374996
v -0.046875 -0.08118987 0.09374996
v -0.08118981 -0.046875 -0.09374997
v -0.08118987 -0.046875 0.09374995
v -0.09374994 0 -0.09374998
v -0.09374997 0 0.09374994
v -0.08118981 0.046875 -0.09374998
v -0.08118987 0.046875 0.09374994
v -0.04687494 0.08118987 -0.09374998
v -0.04687497 0.08118987 0.09374994
vn 0.2588189 0.9659259 -7.108728E-08
vn 0.7071068 0.7071068 3.610444E-08
vn 0.9659259 0.258819 1.356451E-07
vn 0.9659259 -0.258819 2.045169E-07
vn 0.7071068 -0.7071068 1.989221E-07
vn 0.258819 -0.9659259 1.590944E-07
vn -0.2588192 -0.9659259 6.937955E-08
vn -0.7071069 -0.7071066 -5.085651E-08
vn -0.9659259 -0.258819 -1.425074E-07
vn -0.9659259 0.258819 -1.827207E-07
vn -0.7071069 0.7071067 -2.066496E-07
vn -0.2588187 0.9659259 -1.615325E-07
vn 1.748456E-07 -1.501155E-07 -1
vn -1.748456E-07 1.41285E-07 1
vt 0.03651542 -0.06515384
vt 0.03460994 -0.06069074
vt 0.01736581 -0.06805296
vt 0.0192713 -0.07251607
vt 0.1092383 -0.0968834
vt 0.1057895 -0.09346929
vt 0.09259842 -0.1067943
vt 0.0960472 -0.1102084
vt 0.1472859 0.1018821
vt 0.1431755 0.0993024
vt 0.1531427 0.08342104
vt 0.1572531 0.08600074
vt 0.06425714 0.1519028
vt 0.06215195 0.1475303
vt 0.07904582 0.1393965
vt 0.08115102 0.1437689
vt 0.02658833 0.1040327
vt 0.02503972 0.09943359
vt 0.0428094 0.09345023
vt 0.04435801 0.09804936
vt -0.000979848 0.02280159
vt -0.002484214 0.01818779
vt 0.01534211 0.01237537
vt 0.01684648 0.01698917
vt -0.03460996 -0.06069077
vt -0.03651544 -0.06515388
vt -0.01927132 -0.0725161
vt -0.01736583 -0.06805299
vt -0.1057896 -0.09346927
vt -0.1092383 -0.09688338
vt -0.09604724 -0.1102084
vt -0.09259847 -0.1067943
vt -0.1431755 0.09930235
vt -0.1472859 0.1018821
vt -0.1572531 0.0860007
vt -0.1531427 0.083421
vt -0.06215194 0.1475303
vt -0.06425713 0.1519028
vt -0.081151 0.143769
vt -0.07904581 0.1393965
vt -0.02503974 0.09943362
vt -0.02658835 0.1040328
vt -0.04435803 0.09804939
vt -0.04280942 0.09345026
vt 0.002484227 0.01818775
vt 0.0009798618 0.02280154
vt -0.01684646 0.01698912
vt -0.0153421 0.01237533
vt -0.1784608 0.05338346
vt -0.1769262 0.04877963
vt -0.1732953 0.04555991
vt -0.1685409 0.04458701
vt -0.1639371 0.04612161
vt -0.1607174 0.04975253
vt -0.1597445 0.05450686
vt -0.1612791 0.05911068
vt -0.16491 0.06233041
vt -0.1696644 0.06330331
vt -0.1742682 0.0617687
vt -0.1774879 0.05813779
vt 0.1774879 0.05813778
vt 0.1742682 0.0617687
vt 0.1696643 0.06330331
vt 0.16491 0.0623304
vt 0.1612791 0.05911068
vt 0.1597445 0.05450686
vt 0.1607174 0.04975253
vt 0.1639371 0.0461216
vt 0.1685409 0.044587
vt 0.1732953 0.0455599
vt 0.1769262 0.04877963
vt 0.1784608 0.05338345
o group1186345686
g mesh1186345686
usemtl mat8
f 4/4/1 3/3/1 2/2/1 1/1/1
f 3/8/2 6/7/2 5/6/2 2/5/2
f 6/12/3 8/11/3 7/10/3 5/9/3
f 8/16/4 10/15/4 9/14/4 7/13/4
f 10/20/5 12/19/5 11/18/5 9/17/5
f 12/24/6 14/23/6 13/22/6 11/21/6
f 14/28/7 16/27/7 15/26/7 13/25/7
f 16/32/8 18/31/8 17/30/8 15/29/8
f 18/36/9 20/35/9 19/34/9 17/33/9
f 20/40/10 22/39/10 21/38/10 19/37/10
f 22/44/11 24/43/11 23/42/11 21/41/11
f 24/48/12 4/47/12 1/46/12 23/45/12
f 1/60/13 2/59/13 5/58/13 7/57/13 9/56/13 11/55/13 13/54/13 15/53/13 17/52/13 19/51/13 21/50/13 23/49/13
f 24/72/14 22/71/14 20/70/14 18/69/14 16/68/14 14/67/14 12/66/14 10/65/14 8/64/14 6/63/14 3/62/14 4/61/14
