mtllib materials.mtl
v -0.03671633 0.00999999 0.3344121
v 0.05828365 0.00999999 0.3043159
v 0.05828365 -0.00999999 0.3043159
v -0.03671633 -0.00999999 0.3344121
v 0.1741682 0.00999999 0.2257518
v 0.1741682 -0.00999999 0.2257518
v 0.1942644 0.00999999 0.1507518
v 0.1942644 -0.00999999 0.1507518
v 0.1931875 0.00999999 -0.02058786
v 0.1931875 -0.00999999 -0.02058786
v 0.1382837 0.00999999 -0.07549167
v 0.1382837 -0.00999999 -0.07549167
v -0.03055611 0.00999999 -0.06723851
v -0.03055611 -0.00999999 -0.06723851
v -0.1055561 0.00999999 -0.04714233
v -0.1055561 -0.00999999 -0.04714233
v -0.1466202 0.00999999 0.05941212
v -0.1466202 -0.00999999 0.05941212
v -0.1667163 0.00999999 0.1344121
v -0.1667163 -0.00999999 0.1344121
v -0.1466202 0.00999999 0.2094121
v -0.1466202 -0.00999999 0.2094121
v -0.1217163 0.00999999 0.2843159
v -0.1217163 -0.00999999 0.2843159
v -0.03671632 0.00999999 -0.07558787
v 0.03828367 0.00999999 -0.08568403
v 0.03828367 -0.00999999 -0.08568403
v -0.03671632 -0.00999999 -0.07558787
v 0.04416823 0.00999999 -0.1542481
v 0.04416823 -0.00999999 -0.1542481
v 0.01944389 0.00999999 -0.1772385
v 0.01944389 -0.00999999 -0.1772385
v -0.0393727 0.00999999 -0.1833326
v -0.0393727 -0.00999999 -0.1833326
v -0.06934414 0.00999999 -0.1629288
v -0.06934414 -0.00999999 -0.1629288
v -0.07171629 0.00999999 -0.1156841
v -0.07171629 -0.00999999 -0.1156841
vn 0.3020088 -5.934518E-09 0.9533051
vn 0.56115 -2.095925E-08 0.8277141
vn 0.9659259 -1.031157E-07 0.258819
vn 0.9999803 -9.579506E-08 -0.006285267
vn 0.7071069 2.961067E-08 -0.7071068
vn -0.04882329 -7.767631E-09 -0.9988074
vn -0.258819 1.426141E-09 -0.9659259
vn -0.9331061 1.33619E-07 -0.3596011
vn -0.9659259 -1.782604E-09 -0.258819
vn -0.9659259 -1.749405E-07 0.258819
vn -0.9489266 5.144529E-08 0.315497
vn -0.5077447 2.250848E-08 0.8615076
vn 0 1 5.113343E-09
vn 3.054417E-08 -1 2.201401E-08
vn 0.1334122 3.8399E-09 0.9910607
vn 0.9963372 -1.496075E-07 0.08551127
vn 0.6809604 2.61357E-08 -0.7323204
vn 0.1030603 -3.722157E-07 -0.9946751
vn -0.5627469 -2.836963E-07 -0.8266292
vn -0.9987419 4.399401E-08 -0.05014656
vn -0.7533605 4.536004E-08 0.6576078
vn 0 1 -9.563344E-08
vn 0 -1 -2.7976E-08
vt 0.1600592 0.05914211
vt 0.1558116 0.06815687
vt 0.1540024 0.0673044
vt 0.15825 0.05828964
vt 0.1639671 0.05155066
vt 0.157844 0.06414126
vt 0.1560454 0.06326657
vt 0.1621685 0.05067597
vt 0.1650272 0.06725602
vt 0.1600749 0.07323629
vt 0.1585345 0.0719607
vt 0.1634868 0.06598042
vt 0.1433472 0.1070906
vt 0.1293214 0.1169324
vt 0.1281727 0.1152953
vt 0.1421984 0.1054534
vt -0.07799987 0.158841
vt -0.08374505 0.1536179
vt -0.08239967 0.152138
vt -0.07665449 0.1573612
vt -0.1420046 0.09645665
vt -0.1494673 0.08128895
vt -0.1476727 0.08040601
vt -0.1402101 0.09557371
vt -0.1538957 0.07222397
vt -0.1572124 0.06520342
vt -0.155404 0.0643491
vt -0.1520873 0.07136965
vt -0.1571904 0.07268539
vt -0.1638729 0.06342548
vt -0.1622511 0.06225511
vt -0.1555686 0.07151502
vt -0.1600749 0.07323627
vt -0.1650272 0.067256
vt -0.1634868 0.0659804
vt -0.1585345 0.07196067
vt -0.07899433 0.1588938
vt -0.08664614 0.1575753
vt -0.08630653 0.1556043
vt -0.07865472 0.1569228
vt -0.06530184 0.1671293
vt -0.07318673 0.1667602
vt -0.07309321 0.1647624
vt -0.06520832 0.1651315
vt 0.1164801 0.128567
vt 0.1106362 0.1365166
vt 0.1090248 0.135332
vt 0.1148686 0.1273824
vt -0.06480296 -0.02367484
vt -0.05691135 -0.02350085
vt -0.04917238 -0.02287087
vt -0.04278522 -0.01845581
vt -0.03413168 -0.01100482
vt -0.03476166 -0.003265851
vt -0.03966312 0.01291208
vt -0.04668026 0.01623599
vt -0.06285226 0.01057463
vt -0.06923941 0.006159567
vt -0.0727405 -0.007396166
vt -0.07237959 -0.01735496
vt 0.0723796 -0.01735495
vt 0.07274051 -0.007396162
vt 0.06923942 0.006159571
vt 0.06285226 0.01057464
vt 0.04668026 0.01623599
vt 0.03966313 0.01291209
vt 0.03476166 -0.003265847
vt 0.03413168 -0.01100482
vt 0.04278523 -0.01845581
vt 0.04917238 -0.02287087
vt 0.05691136 -0.02350085
vt 0.06480297 -0.02367484
vt 0.1516478 0.07691143
vt 0.1483655 0.0837302
vt 0.1465634 0.08286273
vt 0.1498457 0.07604396
vt 0.135402 0.1072356
vt 0.1302428 0.1117896
vt 0.1289192 0.1102902
vt 0.1340785 0.1057362
vt -0.09822185 0.1417304
vt -0.1006353 0.1393695
vt -0.0992367 0.1379398
vt -0.09682328 0.1403007
vt -0.1433475 0.09275876
vt -0.1460838 0.08751679
vt -0.1443108 0.08659131
vt -0.1415746 0.09183327
vt -0.1555402 0.0688813
vt -0.1571265 0.065621
vt -0.1553281 0.06474596
vt -0.1537417 0.06800625
vt -0.1259087 0.1167171
vt -0.129578 0.1137315
vt -0.1283157 0.1121802
vt -0.1246464 0.1151658
vt 0.08473136 0.149451
vt 0.0805288 0.1527168
vt 0.07930158 0.1511376
vt 0.08350415 0.1478718
vt -0.02881498 -0.00551268
vt -0.02444553 -0.003700273
vt -0.02353207 -0.0001914844
vt -0.0260842 0.005142554
vt -0.02908086 0.0066977
vt -0.03533991 0.003837466
vt -0.03376819 -0.003565168
vt 0.03376817 -0.003565162
vt 0.0353399 0.003837472
vt 0.02908084 0.006697706
vt 0.02608418 0.00514256
vt 0.02353206 -0.0001914786
vt 0.02444551 -0.003700266
vt 0.02881496 -0.005512674
o group1834761066
g mesh1834761066
usemtl mat21
f 4/4/1 3/3/1 2/2/1 1/1/1
f 3/8/2 6/7/2 5/6/2 2/5/2
f 6/12/3 8/11/3 7/10/3 5/9/3
f 8/16/4 10/15/4 9/14/4 7/13/4
f 10/20/5 12/19/5 11/18/5 9/17/5
f 12/24/6 14/23/6 13/22/6 11/21/6
f 14/28/7 16/27/7 15/26/7 13/25/7
f 16/32/8 18/31/8 17/30/8 15/29/8
f 18/36/9 20/35/9 19/34/9 17/33/9
f 20/40/10 22/39/10 21/38/10 19/37/10
f 22/44/11 24/43/11 23/42/11 21/41/11
f 24/48/12 4/47/12 1/46/12 23/45/12
f 1/60/13 2/59/13 5/58/13 7/57/13 9/56/13 11/55/13 13/54/13 15/53/13 17/52/13 19/51/13 21/50/13 23/49/13
f 24/72/14 22/71/14 20/70/14 18/69/14 16/68/14 14/67/14 12/66/14 10/65/14 8/64/14 6/63/14 3/62/14 4/61/14
o group1463012485
g mesh1463012485
usemtl mat21
f 28/76/15 27/75/15 26/74/15 25/73/15
f 27/80/16 30/79/16 29/78/16 26/77/16
f 30/84/17 32/83/17 31/82/17 29/81/17
f 32/88/18 34/87/18 33/86/18 31/85/18
f 34/92/19 36/91/19 35/90/19 33/89/19
f 36/96/20 38/95/20 37/94/20 35/93/20
f 38/100/21 28/99/21 25/98/21 37/97/21
f 25/107/22 26/106/22 29/105/22 31/104/22 33/103/22 35/102/22 37/101/22
f 38/114/23 36/113/23 34/112/23 32/111/23 30/110/23 27/109/23 28/108/23
