mtllib materials.mtl
v 0.06999999 -0.00666666 0.01000005
v 0.06999999 0.02333331 0.01000002
v 0.06999999 0.02333331 -0.00999999
v 0.06999999 -0.00666666 -0.009999961
v 0.05000001 -0.00666666 0.01000002
v 0.05000001 -0.00666666 -0.009999961
v 0.05000001 0.02333331 -0.00999999
v 0.05000001 0.02333331 0.01000002
v -0.04999998 -0.00666666 0.01000002
v -0.04999998 0.02333331 0.00999999
v -0.04999998 0.02333331 -0.00999999
v -0.04999998 -0.00666666 -0.00999999
v -0.06999996 -0.00666666 0.00999999
v -0.06999996 -0.00666666 -0.00999999
v -0.06999996 0.02333331 -0.00999999
v -0.06999996 0.02333331 0.00999999
v 0.04999992 -0.02666664 0.00999999
v 0.06999993 -0.00666666 0.00999999
v 0.06999993 -0.00666666 -0.00999999
v 0.04999992 -0.02666664 -0.00999999
v -0.05000004 -0.02666664 0.00999999
v -0.05000004 -0.02666664 -0.00999999
v -0.07000002 -0.00666666 -0.00999999
v -0.07000002 -0.00666666 0.00999999
vn 1 -3.104408E-07 9.770096E-08
vn -1 -3.104407E-07 -9.770084E-08
vn -8.267716E-07 4.438918E-07 1
vn 8.171326E-08 -4.623237E-07 -1
vn -6.495932E-08 -1 2.607701E-08
vn 3.259628E-08 1 -1.192093E-07
vn 1 -3.104408E-07 9.770096E-08
vn -1 -3.104407E-07 -9.770084E-08
vn -8.267716E-07 4.438918E-07 1
vn 8.171326E-08 -4.623237E-07 -1
vn -6.495932E-08 -1 2.607701E-08
vn 3.259628E-08 1 -1.192093E-07
vn 0.7071067 -0.7071069 -1.112941E-07
vn -0.7071068 -0.7071068 -9.550705E-13
vn -3.880511E-08 2.386127E-07 1
vn -2.716357E-08 2.110225E-07 -1
vn -8.459902E-08 -1 4.936005E-08
vn 1.413143E-10 1 2.048922E-08
vt 0.09520678 0.2158719
vt 0.09695049 0.2183131
vt 0.09532303 0.2194755
vt 0.09357931 0.2170343
vt -0.09520693 0.2158718
vt -0.09357947 0.2170343
vt -0.09532318 0.2194755
vt -0.09695065 0.218313
vt 0.2249485 0.06663486
vt 0.2258429 0.064846
vt 0.2285262 0.06618764
vt 0.2276317 0.0679765
vt -0.2249485 0.06663486
vt -0.2276317 0.0679765
vt -0.2285262 0.06618765
vt -0.2258429 0.06484601
vt -0.0589934 -0.02246729
vt -0.06087689 -0.02179462
vt -0.06154956 -0.0236781
vt -0.05966607 -0.02435077
vt 0.05899338 -0.02246729
vt 0.05966605 -0.02435077
vt 0.06154954 -0.0236781
vt 0.06087686 -0.02179462
vt 0.09520678 0.2158719
vt 0.09695049 0.2183131
vt 0.09532303 0.2194755
vt 0.09357931 0.2170343
vt -0.09520693 0.2158718
vt -0.09357947 0.2170343
vt -0.09532319 0.2194755
vt -0.09695065 0.218313
vt 0.230315 0.05590174
vt 0.2312094 0.05411288
vt 0.2338927 0.05545452
vt 0.2329983 0.05724338
vt -0.230315 0.05590174
vt -0.2329983 0.05724338
vt -0.2338927 0.05545453
vt -0.2312094 0.05411289
vt -0.06302944 -0.03376819
vt -0.06491293 -0.03309552
vt -0.0655856 -0.034979
vt -0.06370211 -0.03565167
vt 0.06302942 -0.03376819
vt 0.06370209 -0.03565168
vt 0.06558557 -0.034979
vt 0.0649129 -0.03309552
vt -0.003520132 0.1399629
vt -0.002617545 0.1426434
vt -0.004512977 0.1432816
vt -0.005415564 0.1406011
vt -0.1754796 -0.106174
vt -0.1768867 -0.1047526
vt -0.1788967 -0.1067425
vt -0.1774897 -0.1081638
vt 0.224054 0.06395155
vt 0.2285262 0.05500729
vt 0.2312094 0.05411286
vt 0.2249485 0.06663483
vt -0.224054 0.06395152
vt -0.2249484 0.0666348
vt -0.2312094 0.05411283
vt -0.2285261 0.05500726
vt -0.05966608 -0.02435078
vt -0.06154956 -0.02367811
vt -0.06491292 -0.03309553
vt -0.06302945 -0.0337682
vt 0.05899341 -0.02246727
vt 0.06370212 -0.03565166
vt 0.0655856 -0.03497899
vt 0.06087689 -0.0217946
o group1998443809
g mesh1998443809
usemtl mat23
f 4/4/1 3/3/1 2/2/1 1/1/1
f 8/8/2 7/7/2 6/6/2 5/5/2
f 2/12/3 8/11/3 5/10/3 1/9/3
f 6/16/4 7/15/4 3/14/4 4/13/4
f 5/20/5 6/19/5 4/18/5 1/17/5
f 3/24/6 7/23/6 8/22/6 2/21/6
o group1804313652
g mesh1804313652
usemtl mat23
f 12/28/7 11/27/7 10/26/7 9/25/7
f 16/32/8 15/31/8 14/30/8 13/29/8
f 10/36/9 16/35/9 13/34/9 9/33/9
f 14/40/10 15/39/10 11/38/10 12/37/10
f 13/44/11 14/43/11 12/42/11 9/41/11
f 11/48/12 15/47/12 16/46/12 10/45/12
o group202659281
g mesh202659281
usemtl mat23
f 20/52/13 19/51/13 18/50/13 17/49/13
f 24/56/14 23/55/14 22/54/14 21/53/14
f 18/60/15 24/59/15 21/58/15 17/57/15
f 22/64/16 23/63/16 19/62/16 20/61/16
f 21/68/17 22/67/17 20/66/17 17/65/17
f 19/72/18 23/71/18 24/70/18 18/69/18
