mtllib materials.mtl
v 0.2094399 0.9038748 0.7622861
v 0.1838183 -0.1314876 0.01022634
v 0.09950325 -0.1728751 0.07909563
v 0.2178893 -0.06235373 -0.07709265
v 0.192587 0.01600212 -0.1594643
v 0.1146912 0.08258462 -0.2148172
v 0.005073905 0.119553 -0.2283195
v -0.106893 0.1170015 -0.1963534
v -0.1912081 0.07561409 -0.1274841
v -0.2252791 0.006480217 -0.0401651
v -0.1999769 -0.07187563 0.0422065
v -0.122081 -0.1384581 0.09755936
v -0.01246363 -0.1754265 0.1110618
v 1.149311 0.7049178 -0.4181132
v 0.2463072 -0.002603889 0.1495338
v 0.1872899 0.09628201 0.1669542
v 0.278256 -0.08999497 0.07948384
v 0.2745757 -0.1424749 -0.02442592
v 0.2362523 -0.1459817 -0.134353
v 0.1735547 -0.09957588 -0.2208424
v 0.1032825 -0.01569152 -0.2607195
v 0.04426518 0.08319438 -0.2432991
v 0.01231632 0.1705855 -0.1732492
v 0.01599666 0.2230654 -0.06933939
v 0.05432001 0.2265722 0.04058763
v 0.1170177 0.1801662 0.1270771
v 0.126427 -0.5217764 -1.133508
v 0.2245486 0.006808221 0.02804053
v 0.2061499 0.1098098 -0.02311718
v 0.1832683 -0.0931856 0.07119256
v 0.09337017 -0.1633785 0.09477645
v -0.02105781 -0.1849624 0.09247285
v -0.1293546 -0.1521538 0.06489903
v -0.2025024 -0.07374382 0.01944333
v -0.220901 0.02925766 -0.03171438
v -0.1796208 0.1292515 -0.07486641
v -0.0897226 0.1994444 -0.09845027
v 0.02470532 0.2210283 -0.09614667
v 0.1330023 0.1882197 -0.06857282
v -0.86465 1.0008 -0.2349056
v 0.1394839 0.2155957 -0.1191683
v 0.1359029 0.2365333 -0.004653096
v 0.09924087 0.1589892 -0.2126623
v 0.02595678 0.0818814 -0.2600835
v -0.06073183 0.004933357 -0.2487254
v -0.1375969 -0.05123681 -0.1816314
v -0.1840425 -0.07157838 -0.07677931
v -0.1876235 -0.0506407 0.03773588
v -0.1473805 0.005965769 0.1312299
v -0.07409647 0.08307356 0.1786511
v 0.01259217 0.1600216 0.167293
v 0.0894573 0.2161918 0.100199
v -0.4865366 -0.5417523 0.955304
v 0.05943885 0.1937358 0.0613279
v 0.148951 0.1192268 0.06228253
v -0.04805216 0.221819 0.02637154
v -0.1447199 0.1959515 -0.03321996
v -0.2046623 0.1230645 -0.1014792
v -0.2118179 0.02268803 -0.1601161
v -0.1642693 -0.07828212 -0.1934189
v -0.07475707 -0.1527911 -0.1924643
v 0.03273389 -0.1808743 -0.157508
v 0.1294016 -0.1550068 -0.09791642
v 0.189344 -0.08211982 -0.02965724
v 0.1964996 0.01825672 0.02897969
v -1.049614 -0.8813032 -0.09489566
v 0.02070048 -0.1794394 -0.1011896
v -0.02629671 -0.1182163 -0.188413
v 0.02985439 -0.202041 0.01269761
v -0.001287788 -0.1799649 0.1227328
v -0.06438157 -0.1191263 0.199432
v -0.1425209 -0.03582692 0.2222438
v -0.2147686 0.0476132 0.1850559
v -0.2617658 0.1088365 0.0978325
v -0.2709197 0.131438 -0.01605472
v -0.2397775 0.1093618 -0.1260899
v -0.1766838 0.04852331 -0.2027891
v -0.09854433 -0.03477615 -0.225601
v 0.9440242 -0.9334461 0.321956
v 0.139545 -0.1138617 -0.2431274
v 0.05357072 -0.1873382 -0.2152966
v 0.2133513 -0.02893984 -0.2130302
v 0.2552133 0.04467255 -0.1330695
v 0.2539141 0.08725107 -0.02467075
v 0.2098019 0.08738697 0.08312076
v 0.1346965 0.04504371 0.1614224
v 0.04872218 -0.02843279 0.1892533
v -0.02508411 -0.1133546 0.1591561
v -0.06694612 -0.186967 0.07919538
v -0.06564698 -0.2295455 -0.02920341
v -0.02153471 -0.2296814 -0.136995
vn 0.6878343 -0.4376552 0.5790873
vn 0.9562314 -0.1870884 0.2249875
vn 0.9761115 0.1472908 -0.1597242
vn 0.7421474 0.4758856 -0.4719642
vn 0.3170297 0.7106493 -0.6280683
vn -0.1853318 0.7886772 -0.5862085
vn -0.6303297 0.6890618 -0.3576008
vn -0.8987268 0.438495 -0.003501002
vn -0.9186068 0.1041159 0.3812105
vn -0.6846427 -0.2244788 0.6934506
vn -0.259525 -0.4592426 0.8495546
vn 0.2428367 -0.5372705 0.8076948
vn -0.1691546 -0.7395328 -0.6515197
vn 0.4597013 0.1193305 0.8800198
vn 0.6659339 -0.3029845 0.6817129
vn 0.7300224 -0.6200912 0.2873226
vn 0.6347944 -0.7470208 -0.1974744
vn 0.4057662 -0.6497626 -0.642777
vn 0.1043056 -0.3543772 -0.929267
vn -0.1888113 0.05998766 -0.9801794
vn -0.3950438 0.4823027 -0.7818725
vn -0.4591323 0.7994093 -0.3874822
vn -0.3639043 0.9263388 0.09731479
vn -0.1348761 0.8290807 0.5426175
vn 0.1665847 0.533695 0.8291075
vn -0.7968447 -0.5274781 0.2946273
vn 0.9849916 0.109801 -0.133174
vn 0.933116 -0.3504168 0.08063897
vn 0.6357166 -0.7362533 0.2319384
vn 0.1724816 -0.9443237 0.2801837
vn -0.3324656 -0.9188758 0.2124475
vn -0.7438251 -0.6667283 0.04687976
vn -0.9513732 -0.2554438 -0.1721559
vn -0.8994974 0.2047741 -0.3859688
vn -0.6020982 0.5906104 -0.5372683
vn -0.1388632 0.7986808 -0.5855135
vn 0.3660841 0.7732329 -0.5177773
vn 0.7774437 0.5210853 -0.3522095
vn -0.09889141 0.4284201 0.8981518
vn 0.6200821 0.774946 -0.1222981
vn 0.5369644 0.5991431 -0.5938829
vn 0.2795831 0.2959945 -0.9133567
vn -0.08309663 -0.05327083 -0.9951167
vn -0.453895 -0.3550678 -0.8172553
vn -0.7334571 -0.5285302 -0.4274303
vn -0.8468742 -0.5271788 0.06990512
vn -0.7637564 -0.3513757 0.5414898
vn -0.5063752 -0.04822732 0.8609636
vn -0.1436955 0.3010381 0.9427235
vn 0.2271029 0.6028351 0.7648622
vn 0.506665 0.7762975 0.375037
vn 0.6671271 -0.7288271 0.1541186
vn 0.442575 0.5408564 0.7152634
vn -0.004057755 0.7734467 0.6338485
vn -0.4669134 0.7784699 0.4194956
vn -0.8219698 0.55458 0.1296406
vn -0.97409 0.1617683 -0.15805
vn -0.8825135 -0.2947119 -0.3664899
vn -0.5717781 -0.6925471 -0.4398277
vn -0.1251453 -0.9251373 -0.3584127
vn 0.3377102 -0.9301605 -0.1440598
vn 0.6927665 -0.7062708 0.1457951
vn 0.8448868 -0.313459 0.4334857
vn 0.7533103 0.1430214 0.6419257
vn 0.3800614 0.44621 -0.810216
vn 0.4085052 -0.6288866 -0.6615324
vn 0.5358073 -0.8189287 -0.2055877
vn 0.4859569 -0.82012 0.3020748
vn 0.2723113 -0.6321411 0.725427
vn -0.04788335 -0.3053608 0.9510321
vn -0.3888312 0.07266033 0.9184394
vn -0.6591755 0.4006319 0.6363819
vn -0.7864775 0.5906739 0.1804371
vn -0.7366271 0.5918651 -0.3272252
vn -0.5229815 0.4038861 -0.7505773
vn -0.2027868 0.07710594 -0.9761825
vn 0.1381611 -0.3009154 -0.9435897
vn 0.7373661 0.6714298 0.07398181
vn 0.1256443 -0.4765861 -0.870103
vn 0.4878884 -0.1174756 -0.864965
vn 0.7501243 0.241943 -0.6154487
vn 0.8420858 0.5053636 -0.1884121
vn 0.7391321 0.602203 0.3017207
vn 0.4688494 0.5065132 0.7236192
vn 0.1036597 0.2439339 0.9642359
vn -0.2585844 -0.1151765 0.9590978
vn -0.5208201 -0.474595 0.7095816
vn -0.6127816 -0.7380156 0.2825451
vn -0.509828 -0.834855 -0.2075878
vn -0.2395451 -0.7391651 -0.6294864
vn -0.6745164 0.6843642 -0.2768993
vt 0.1816014 0.0876732
vt 0.05588088 0.06366074
vt 0.05858415 0.05233195
vt 0.182727 0.07207759
vt 0.05630427 0.05208895
vt 0.05864468 0.04067966
vt 0.1772277 0.0734984
vt 0.05374878 0.03980561
vt 0.05732273 0.02872066
vt -0.1655114 0.09525117
vt -0.05517238 0.03038549
vt -0.0497328 0.04068405
vt -0.182596 0.06662624
vt -0.05868103 0.03457411
vt -0.05628047 0.04597089
vt -0.1819579 0.08237579
vt -0.05842749 0.04887222
vt -0.05589339 0.06024005
vt -0.1782038 0.09920643
vt -0.05755557 0.05647171
vt -0.0541704 0.06761576
vt -0.1663717 0.1209055
vt -0.05456751 0.05859924
vt -0.04936665 0.06902039
vt -0.1126344 0.1721164
vt -0.03934131 0.06718605
vt -0.03010641 0.07428294
vt 0.07552074 0.1912444
vt 0.01923962 0.07628921
vt 0.02992224 0.07164909
vt 0.1603274 0.129002
vt 0.04786212 0.06789701
vt 0.0538823 0.0579267
vt 0.1768969 0.1034387
vt 0.05399884 0.06768508
vt 0.05775771 0.05666148
vt 0.02112379 0.0420319
vt 0.01893183 0.05347063
vt 0.01131416 0.06228089
vt 0.0003119478 0.06610195
vt -0.01112679 0.06390999
vt -0.01993703 0.05629233
vt -0.0237581 0.04529011
vt -0.02156614 0.03385138
vt -0.01394848 0.02504113
vt -0.002946263 0.02122006
vt 0.008492467 0.02341202
vt 0.01730273 0.03102969
vt 0.05735567 0.1904033
vt 0.03656695 0.06410963
vt 0.04813332 0.06274278
vt 0.07435828 0.1934318
vt 0.0558061 0.06679029
vt 0.06739484 0.06562818
vt 0.0712231 0.2015239
vt 0.05842265 0.07417238
vt 0.07005212 0.07353605
vt 0.04811033 0.2104065
vt 0.04308378 0.08251204
vt 0.05473041 0.08258461
vt 0.01150034 0.2147232
vt 0.01403582 0.08675514
vt 0.02565783 0.08751544
vt -0.0278952 0.2126788
vt -0.02017557 0.08491863
vt -0.008593907 0.08614929
vt -0.05927734 0.2071022
vt -0.05008584 0.07943947
vt -0.03851914 0.08080353
vt -0.07478888 0.2022159
vt -0.06809993 0.07439762
vt -0.05650873 0.07553485
vt -0.07074196 0.1998724
vt -0.06981652 0.07188254
vt -0.05818586 0.07249656
vt -0.04823237 0.1986278
vt -0.0548211 0.07080431
vt -0.04317445 0.07073458
vt -0.01313766 0.196144
vt -0.02702034 0.06890593
vt -0.01539669 0.06817075
vt 0.0253701 0.1924084
vt 0.006309573 0.06584243
vt 0.01789354 0.0646338
vt 0.07314779 -0.03670764
vt 0.07254613 -0.02507633
vt 0.06620943 -0.01530415
vt 0.0558356 -0.01000954
vt 0.04420429 -0.0106112
vt 0.03443211 -0.01694789
vt 0.0291375 -0.02732174
vt 0.02973916 -0.03895305
vt 0.03607586 -0.04872523
vt 0.0464497 -0.05401983
vt 0.058081 -0.05341818
vt 0.06785319 -0.04708147
vt -0.05751366 0.04401974
vt 0.06992774 0.03214766
vt 0.0704793 0.04378145
vt -0.0581861 0.07231576
vt 0.06863258 0.05501624
vt 0.06968009 0.06661589
vt -0.05871617 0.08436845
vt 0.06676395 0.05912978
vt 0.06853869 0.07064063
vt -0.05900817 0.07952718
vt 0.06328164 0.04174548
vt 0.06620976 0.05301826
vt -0.05756072 0.06649924
vt 0.05377464 0.003358995
vt 0.05905325 0.01374097
vt -0.03392834 0.07561591
vt 0.006345642 -0.0458759
vt 0.01722272 -0.04171193
vt 0.03375026 0.08407065
vt -0.06650861 0.004506769
vt -0.05886105 -0.004277529
vt 0.04928529 0.08813579
vt -0.07326395 0.05120428
vt -0.06939945 0.04021725
vt 0.05341923 0.08654658
vt -0.07311349 0.06726639
vt -0.07083702 0.05584418
vt 0.05527566 0.06917645
vt -0.07237398 0.05980492
vt -0.0709936 0.04824015
vt 0.05641604 0.03700709
vt -0.07154955 0.03434971
vt -0.0707782 0.02272841
vt 0.05760565 -0.001722407
vt -0.07038566 -0.002413569
vt -0.06979293 -0.01404533
vt 0.0114922 0.09548751
vt 0.0007271828 0.09104185
vt -0.006372756 0.0818093
vt -0.00790521 0.0702637
vt -0.00345955 0.05949869
vt 0.005773002 0.05239875
vt 0.01731861 0.05086629
vt 0.02808362 0.05531196
vt 0.03518356 0.06454451
vt 0.03671601 0.07609011
vt 0.03227035 0.08685511
vt 0.02303779 0.09395505
vt 0.03966708 -0.131359
vt -0.02703628 -0.02212108
vt -0.03669003 -0.02863679
vt -0.1411063 -0.06784901
vt -0.06312221 0.03364351
vt -0.07267092 0.0403122
vt -0.1697425 0.02266449
vt -0.05146848 0.07158798
vt -0.05640538 0.08213675
vt -0.1684005 0.04163105
vt -0.04330717 0.06872197
vt -0.04628768 0.07998101
vt -0.1648496 0.02394168
vt -0.03788575 0.04014178
vt -0.03988401 0.05161593
vt -0.1604411 -0.01441403
vt -0.03290416 -0.003616658
vt -0.03441368 0.007931968
vt -0.1490212 -0.06964848
vt -0.02232077 -0.05150339
vt -0.02449474 -0.04006122
vt 0.1654743 0.04748464
vt 0.04081459 0.07650562
vt 0.03869265 0.06505369
vt 0.1571184 0.07267786
vt 0.03109855 0.09506686
vt 0.02958509 0.08351875
vt 0.1506436 0.05821003
vt 0.0257074 0.08601677
vt 0.02369697 0.07454474
vt 0.1410812 0.0160361
vt 0.01904524 0.05463005
vt 0.01604223 0.04337698
vt 0.119833 -0.04956959
vt 0.006773861 0.01042946
vt 0.001787924 -9.620467E-05
vt 0.071647 0.08979399
vt 0.06038374 0.09275848
vt 0.04914722 0.08969418
vt 0.04094826 0.08142215
vt 0.03798377 0.07015889
vt 0.04104807 0.05892237
vt 0.0493201 0.05072341
vt 0.06058336 0.04775892
vt 0.07181989 0.05082322
vt 0.08001884 0.05909524
vt 0.08298333 0.07035851
vt 0.07991903 0.08159503
vt -0.02547406 -0.07729436
vt 0.03256341 0.03678415
vt 0.0219532 0.04158755
vt -0.07710271 -0.04495011
vt 0.003977567 0.05408646
vt -0.005360711 0.06104677
vt -0.1092935 -0.01977966
vt -0.02070529 0.07260208
vt -0.02946971 0.08027243
vt -0.124561 -0.02263258
vt -0.04198944 0.07516408
vt -0.05122118 0.08226509
vt -0.1105232 -0.06413202
vt -0.05658077 0.05193892
vt -0.06735515 0.05636184
vt -0.03879734 -0.1116586
vt -0.04603609 0.0161297
vt -0.05762229 0.01494263
vt 0.0472553 -0.09948278
vt -0.01148057 0.01423771
vt -0.02157478 0.008427703
vt 0.09665734 -0.06060197
vt 0.01880699 0.04099321
vt 0.009894136 0.03349587
vt 0.1199906 -0.03433218
vt 0.04164632 0.0668826
vt 0.03277008 0.05934193
vt 0.1239138 -0.03514604
vt 0.05933299 0.07535996
vt 0.04955518 0.06903195
vt 0.1010578 -0.06204204
vt 0.06839197 0.06171253
vt 0.0572777 0.05823079
vt 0.04347442 -0.08715009
vt 0.05900404 0.03989748
vt 0.04739092 0.04078316
vt -0.0646918 0.08485725
vt -0.07413919 0.07804579
vt -0.07891513 0.06742318
vt -0.07773993 0.05583576
vt -0.07092846 0.04638838
vt -0.06030586 0.04161243
vt -0.04871845 0.04278764
vt -0.03927106 0.04959911
vt -0.03449512 0.06022171
vt -0.03567032 0.07180912
vt -0.04248179 0.08125651
vt -0.05310439 0.08603246
vt -0.00211436 -0.05746673
vt 0.01806482 0.06892574
vt 0.006491993 0.07023678
vt 0.002770448 -0.0601509
vt 0.0489374 0.0592261
vt 0.03789469 0.06292852
vt 0.006670564 -0.06278542
vt 0.06749763 0.0498304
vt 0.05700884 0.05489345
vt 0.009036062 -0.06130724
vt 0.07237519 0.0499151
vt 0.06200266 0.05521226
vt 0.009420739 -0.05484512
vt 0.06186466 0.06191057
vt 0.05103425 0.06619442
vt 0.006954994 -0.04721819
vt 0.03250704 0.07819851
vt 0.02100066 0.08000199
vt 0.001678709 -0.0453045
vt -0.009572542 0.08219321
vt -0.02111572 0.0806426
vt -0.003856363 -0.05102067
vt -0.04388304 0.07055286
vt -0.05476856 0.06641103
vt -0.007631213 -0.05860241
vt -0.06024269 0.05807788
vt -0.07063131 0.05281234
vt -0.009406595 -0.06248112
vt -0.06041782 0.0549076
vt -0.07087746 0.04978458
vt -0.009144006 -0.06140584
vt -0.04592419 0.06118891
vt -0.05691599 0.05733798
vt -0.006590752 -0.05826203
vt -0.01760406 0.06925645
vt -0.0291501 0.06772737
vt 0.004802575 -0.01343958
vt -0.006507571 -0.01621983
vt -0.01491233 -0.02428266
vt -0.01815965 -0.03546766
vt -0.0153794 -0.04677782
vt -0.007316564 -0.05518258
vt 0.003868433 -0.05842989
vt 0.01517859 -0.05564965
vt 0.02358334 -0.04758681
vt 0.02683065 -0.0364018
vt 0.02405042 -0.02509166
vt 0.01598757 -0.01668689
vt 0.1220589 0.09831399
vt -0.004843819 0.0816419
vt -0.002802907 0.07017525
vt 0.1180648 0.1052606
vt -0.009569937 0.09568847
vt -0.008171391 0.08412589
vt 0.1121516 0.09425637
vt -0.01555221 0.08565538
vt -0.01424165 0.07408249
vt -0.124267 -0.02313524
vt -0.0008589519 -0.05708656
vt 0.00171636 -0.045728
vt -0.1134929 0.006512393
vt 0.01301657 -0.01291992
vt 0.01425923 -0.00133955
vt -0.1080302 0.05660587
vt 0.01762173 0.03223708
vt 0.01931668 0.04375995
vt -0.100806 0.1000845
vt 0.02262652 0.06622204
vt 0.02519365 0.07758246
vt -0.08672668 0.1303988
vt 0.03041947 0.07883298
vt 0.03462189 0.08969525
vt -0.04210887 0.1523784
vt 0.04628342 0.05980925
vt 0.05433216 0.0682275
vt 0.09706198 0.1147368
vt 0.04625355 -0.002739825
vt 0.05714272 -0.00687203
vt 0.1295057 0.06377035
vt 0.01431506 0.00797277
vt 0.01986406 -0.002267248
vt 0.1262199 0.07774986
vt 0.001638042 0.04839667
vt 0.004822078 0.0371935
vt -0.03775372 0.06494139
vt -0.03938153 0.07647394
vt -0.04655753 0.08564751
vt -0.0573589 0.09000405
vt -0.06889144 0.08837624
vt -0.07806501 0.08120026
vt -0.08242156 0.07039887
vt -0.08079375 0.05886633
vt -0.07361775 0.04969276
vt -0.06281637 0.04533622
vt -0.05128384 0.04696403
vt -0.04211027 0.05414002
o group22266007
g mesh22266007
usemtl mat10
f 3/3/1 2/2/1 1/1/1
f 2/6/2 4/5/2 1/4/2
f 4/9/3 5/8/3 1/7/3
f 5/12/4 6/11/4 1/10/4
f 6/15/5 7/14/5 1/13/5
f 7/18/6 8/17/6 1/16/6
f 8/21/7 9/20/7 1/19/7
f 9/24/8 10/23/8 1/22/8
f 10/27/9 11/26/9 1/25/9
f 11/30/10 12/29/10 1/28/10
f 12/33/11 13/32/11 1/31/11
f 13/36/12 3/35/12 1/34/12
f 13/48/13 12/47/13 11/46/13 10/45/13 9/44/13 8/43/13 7/42/13 6/41/13 5/40/13 4/39/13 2/38/13 3/37/13
o group1081895512
g mesh1081895512
usemtl mat10
f 16/51/14 15/50/14 14/49/14
f 15/54/15 17/53/15 14/52/15
f 17/57/16 18/56/16 14/55/16
f 18/60/17 19/59/17 14/58/17
f 19/63/18 20/62/18 14/61/18
f 20/66/19 21/65/19 14/64/19
f 21/69/20 22/68/20 14/67/20
f 22/72/21 23/71/21 14/70/21
f 23/75/22 24/74/22 14/73/22
f 24/78/23 25/77/23 14/76/23
f 25/81/24 26/80/24 14/79/24
f 26/84/25 16/83/25 14/82/25
f 26/96/26 25/95/26 24/94/26 23/93/26 22/92/26 21/91/26 20/90/26 19/89/26 18/88/26 17/87/26 15/86/26 16/85/26
o group648765456
g mesh648765456
usemtl mat10
f 29/99/27 28/98/27 27/97/27
f 28/102/28 30/101/28 27/100/28
f 30/105/29 31/104/29 27/103/29
f 31/108/30 32/107/30 27/106/30
f 32/111/31 33/110/31 27/109/31
f 33/114/32 34/113/32 27/112/32
f 34/117/33 35/116/33 27/115/33
f 35/120/34 36/119/34 27/118/34
f 36/123/35 37/122/35 27/121/35
f 37/126/36 38/125/36 27/124/36
f 38/129/37 39/128/37 27/127/37
f 39/132/38 29/131/38 27/130/38
f 39/144/39 38/143/39 37/142/39 36/141/39 35/140/39 34/139/39 33/138/39 32/137/39 31/136/39 30/135/39 28/134/39 29/133/39
o group1498459733
g mesh1498459733
usemtl mat10
f 42/147/40 41/146/40 40/145/40
f 41/150/41 43/149/41 40/148/41
f 43/153/42 44/152/42 40/151/42
f 44/156/43 45/155/43 40/154/43
f 45/159/44 46/158/44 40/157/44
f 46/162/45 47/161/45 40/160/45
f 47/165/46 48/164/46 40/163/46
f 48/168/47 49/167/47 40/166/47
f 49/171/48 50/170/48 40/169/48
f 50/174/49 51/173/49 40/172/49
f 51/177/50 52/176/50 40/175/50
f 52/180/51 42/179/51 40/178/51
f 52/192/52 51/191/52 50/190/52 49/189/52 48/188/52 47/187/52 46/186/52 45/185/52 44/184/52 43/183/52 41/182/52 42/181/52
o group2045747951
g mesh2045747951
usemtl mat10
f 55/195/53 54/194/53 53/193/53
f 54/198/54 56/197/54 53/196/54
f 56/201/55 57/200/55 53/199/55
f 57/204/56 58/203/56 53/202/56
f 58/207/57 59/206/57 53/205/57
f 59/210/58 60/209/58 53/208/58
f 60/213/59 61/212/59 53/211/59
f 61/216/60 62/215/60 53/214/60
f 62/219/61 63/218/61 53/217/61
f 63/222/62 64/221/62 53/220/62
f 64/225/63 65/224/63 53/223/63
f 65/228/64 55/227/64 53/226/64
f 65/240/65 64/239/65 63/238/65 62/237/65 61/236/65 60/235/65 59/234/65 58/233/65 57/232/65 56/231/65 54/230/65 55/229/65
o group2119920310
g mesh2119920310
usemtl mat10
f 68/243/66 67/242/66 66/241/66
f 67/246/67 69/245/67 66/244/67
f 69/249/68 70/248/68 66/247/68
f 70/252/69 71/251/69 66/250/69
f 71/255/70 72/254/70 66/253/70
f 72/258/71 73/257/71 66/256/71
f 73/261/72 74/260/72 66/259/72
f 74/264/73 75/263/73 66/262/73
f 75/267/74 76/266/74 66/265/74
f 76/270/75 77/269/75 66/268/75
f 77/273/76 78/272/76 66/271/76
f 78/276/77 68/275/77 66/274/77
f 78/288/78 77/287/78 76/286/78 75/285/78 74/284/78 73/283/78 72/282/78 71/281/78 70/280/78 69/279/78 67/278/78 68/277/78
o group684562632
g mesh684562632
usemtl mat10
f 81/291/79 80/290/79 79/289/79
f 80/294/80 82/293/80 79/292/80
f 82/297/81 83/296/81 79/295/81
f 83/300/82 84/299/82 79/298/82
f 84/303/83 85/302/83 79/301/83
f 85/306/84 86/305/84 79/304/84
f 86/309/85 87/308/85 79/307/85
f 87/312/86 88/311/86 79/310/86
f 88/315/87 89/314/87 79/313/87
f 89/318/88 90/317/88 79/316/88
f 90/321/89 91/320/89 79/319/89
f 91/324/90 81/323/90 79/322/90
f 91/336/91 90/335/91 89/334/91 88/333/91 87/332/91 86/331/91 85/330/91 84/329/91 83/328/91 82/327/91 80/326/91 81/325/91
